<svg enable-background="new 0 0 250 257.7" height="41" viewBox="0 0 250 257.7" width="41" xmlns="http://www.w3.org/2000/svg"><path d="m.6 111.4c0-10 0-19.9 0-29.9 4.8-1 9.8-.2 14.6-.5.7 0 1.2.2 1.7.6 2.1 4.8.8 9.8 1.1 14.7-.2 5 .9 10-1 14.8-.4.5-.9.9-1.5 1.1-5.1.7-10.1 1.9-14.9-.8z" fill="#2e2209"/><path d="m16.4 159.3c-5.1-2.3-10.6-.2-15.8-1.2 0-5 0-10 0-14.9 4.7-2.6 9.7-1.4 14.6-1 .6.2 1.1.6 1.6 1 2.1 4.8 1.3 9.7.7 14.6-.2.7-.6 1.2-1.1 1.5z" fill="#43360a"/><path d="m15.5 143.2c-5 0-10 0-15 0 0-5.3 0-10.6 0-15.9 5-2.5 10.1-2.1 15.1-.3 1.9 5.5 2.1 10.9-.1 16.2z" fill="#2d2009"/><path d="m15.4 127.3c-4.9 0-9.9 0-14.8 0 0-5.3 0-10.6 0-15.9 5 0 10 0 15.1.1 1.7 5.3 2.2 10.6-.3 15.8z" fill="#36270a"/><path d="m15.5 81.5c-5 0-10 0-15 0 0-.3 0-.7 0-1 5 .1 10 .1 15 .2.3.2.4.3.3.5s-.2.3-.3.3z" fill="#48350c"/><g fill="#654b17"><path d="m15.5 81.5c0-.3 0-.5 0-.8 4.1-.1 8.2-.4 12.3-.1 3.2.2 3.7-1 3.8-3.9.1-3.8-1.2-7.8.9-11.4.2.2.4.4.5.6 1.2 2.8.8 5.8.8 8.8 0 3.2 1.4 4.4 4.5 4.4 3-.1 5.9-.1 8.9 0 3.1-.1 6.2-.1 9.3 0 3.1 0 4.4-1.4 4.4-4.5 0-2.7-.3-5.5.6-8.2.3-.5.7-.9 1.2-1.1.6.1 1 .4 1.3.9 1.2 2.9.7 5.9.7 8.8s1.2 4.2 4.2 4.2c2.9 0 5.9-.4 8.8.6.5.3.9.6 1.2 1.1 1.8 4.2-.4 8.9 1.7 13 2.5 2.1 5.4 1 8.1 1.1 5.9.3 6.7 1 6.9 7v.5c.2 7.2.2 7.2 7.5 7.3 2.1.1 4.3-.1 6.2 1.2 1.9 2.8 1.1 6 1.3 9.1.2 5.2.4 5.4 5.7 5.6 3.1.1 6.3-.7 9.1 1.4 2.2 5.2.9 10.6 1.1 16-.3 5.1 1.3 10.3-1.4 15.1-1.6 1.4-3.7 1.4-5.6 1.4-8.2 0-16.4.2-24.6-.1-3.4.1-6.9 0-10.4 0-4.3.1-3.8 3.2-3.8 6s-.4 5.8 3.9 6c3.2.2 6.6-.8 9.6 1.3.3.6.2 1.1-.3 1.6-5.3 1.6-10.5 1.9-15.7-.3-2.7-5-1.1-10.5-1.4-15.7.1-4.8-.6-9.7.5-14.5.2-.5.6-1 1-1.4 2.6-1.4 5.5-.8 8.3-.9 5.6-.2 6.1-.6 6.1-6.4 0-.8 0-1.7 0-2.5.1-2.9-1.2-4.2-4.1-4.2-3.3-.1-6.6.5-9.8-.6-.5-.2-.9-.6-1.2-1.1-1.2-2.8-.7-5.8-.8-8.7-.2-5.1-.5-5.5-5.7-5.5-2.1 0-4.3-.3-6.2.8-1.9 1.7-1 4-1.2 6-.3 2.7.6 5.6-1.3 8-4.7 1.9-9.4 1.3-14.2.5-.5-.2-1-.6-1.3-1.1-1.5-3.1-.9-6.5-.9-9.8.1-4.9-3.1-4.5-6.4-4.6s-5.9.3-5.8 4.7c.1 3.2.8 6.6-1.1 9.7-.5.4-1.1.3-1.6-.1-2.2-4.6-.9-9.5-1.1-14.2 0-.6 0-1.2 0-1.8-.1-4.8-.1-9.6 0-14.4-.1-2.1 0-4.2-.1-6.4 0-7.1 0-7.1-6.9-7.2-2.3 0-4.6.2-6.5-1.4-.4.3-.7.2-1 .2z"/><path d="m94.2 34.7c1.9-1.9 4.3-.8 6.5-.8 8.1-.2 16.2-.1 24.2-.1 5.1-2.9 10.5-1.1 15.8-1.5 4.9-.1 9.9-.2 14.8 0 3.1-.1 6.2-.1 9.4 0s4.4-1.4 4.4-4.5c0-3-.8-6.3 1.5-9 2.2 3.5.7 7.3.8 10.9.1 3.1.7 4.3 4.1 4.2 3.7-.1 7.5-1.1 11.1.7-2.7 2.4-6 1.5-9 1.5-4.9 0-4.5 3.2-4.6 6.4-.1 3.3.3 5.7 4.7 5.7 6.8 0 7.2-.2 7.4-7 .1-2.3-.3-4.7 1.5-6.5 1.4 4.9-.1 10 .9 14.9 2.2 2.7 1.4 6 1.5 9.1 0 3.1 1.3 4.4 4.5 4.5 3.1 0 6.3-.7 9.1 1.5 5 1 10.1-.5 15 .8-.2.2-.4.4-.5.6-1.5.9-3.1.9-4.7.9-9.2-.1-8.4 0-8.4 8.7 0 1.5 0 2.9-.7 4.3-.3.5-.7.9-1.2 1.2-1.4.7-2.9.7-4.4.7-9.3 0-9.8-.8-9.7 9.4 0 2 .1 4-1.6 5.6-4.9 1.5-9.8 1.7-14.7-.2-2.5-3-1.5-6.6-1.6-10-.1-3.3-1.3-4.9-4.7-4.7-11.9.6-11.2-1.3-11.2-11.8 0-4.6-.1-9.3 0-13.9.1-4.3-2.2-5.2-5.9-5.2-3.6 0-6.3.5-6 5 .1 1.1 0 2.3 0 3.5-.3 5.9-1.6 7.2-7.5 7.5-1.2.1-2.3.1-3.5 0-3.6-.2-5 1.5-5 5 0 2.9.6 6-1.4 8.6-4.9 2.2-9.8 1.4-14.8.7-3.4-2-2.5-5.4-2.6-8.4-.3-5.6-.4-5.8-5.9-6-2.7-.1-5.6.5-8-1.5-1.4-5.4-1.6-10.8.2-16.1l.1.1c4.7-2.5 9.7-1.1 14.6-1.3 3.6-.1 7.2-.1 10.8 0 4.2 0 4.2-2.7 4.1-5.7-.1-2.9.7-6.3-4-6.3-3.6 0-7.2.1-10.8-.1-5-.2-10 1.5-14.6-1.4z"/><path d="m217.7 65.5c1.7 3.8.6 7.8.7 11.6 0 2.9 1 3.5 3.7 3.6 3.8.1 7.8-1.2 11.4.8-2.6 2.2-5.7 1.5-8.6 1.5-3.7-.1-5.1 1.5-4.9 5.1.1 2.8.1 5.6 0 8.5.1 4.8.1 9.6 0 14.3v1.8c-.3 4.8 1 9.7-1 14.3-.5.5-1 .6-1.6.3-1.7-2.3-1.1-5-1.3-7.6-.1-1.9.3-4-1-5.7-1.5-1.5-3.4-1.1-5.2-1.1-6-.1-11.9 0-17.9 0-4 0-5.8-1.8-5.7-5.8 0-.8 0-1.7 0-2.5 0-8.9.3-9.3 9-9.6 5.2-.2 5.5-.6 5.7-5.8.1-2.9-.6-6 1.6-8.6 2.4-2 5.4-1.6 8.1-1.4 4.2.2 5.6-1.5 5.4-5.6-.1-2.6-.6-5.3 1.2-7.7.1-.2.2-.3.4-.4z"/></g><path d="m218.5 112.4c0-.4 0-.7 0-1.1 4.8-2.6 9.9-1 14.9-1.3 5.3.4 10.8-1.4 15.8 1.4v31.9c-4.9 2.8-10.3 1-15.4 1.4-4.8-.2-9.6.6-14.3-.6-.6-.3-1-.7-1.2-1.2.1-.6.4-1.1.9-1.3 1.9-.8 3.8-.7 5.8-.7 7-.1 7-.1 7-7.3 0-2.1 0-4.3 0-6.4-.2-3-.1-5.9-.1-8.9.1-3.2-1.4-4.4-4.4-4.4-3-.1-6.3.7-9-1.5z" fill="#5b5b5b"/><path d="m233.4 173.1c-3.8 2-7.8.6-11.7.8-2.5.1-3.3.6-3.4 3.3-.1 4 1 8-.7 11.9-.2-.2-.4-.4-.6-.6-1.3-2.5-1-5.1-.9-7.7.2-3.7-1.3-5.5-5.1-5.3-2.9.2-5.9.1-8.8 0-4.9-.3-10 1.3-14.7-1.4-2-5.4-1.8-10.7-.2-16.1 4.9-2.6 10.1-1.1 15.2-1.3 5.3.2 10.7-1.1 15.9 1.1 2.4 2.6 1.7 5.9 1.6 8.9 0 3.6 1.3 5 4.9 5 2.9-.1 6-.7 8.5 1.4z" fill="#38280c"/><path d="m109 235.9c-10 .4-19.9.5-29.9 0-.8-5.1-.7-10.1 0-15.2 5.3-2.4 11-.8 16.5-1.2 4.5-.3 9.2-1.1 13.5 1.1 2.3 5.1 2.4 10.2-.1 15.3z" fill="#1d1606"/><path d="m79.2 220.9v14.9c-2.1-2-.8-4.6-.9-6.8-.2-8.3-.1-8.2-8.5-8.3-2.2 0-4.5 1-6.5-.7-1-4.2-.2-8.6-.5-12.8-.2-2.8 1.7-3.3 3.8-3.5 3.6-.3 7.3-.3 10.9-.1h1.9c5-.1 9.9-.1 14.9 0 8.4-.2 16.7-.1 25.1-.1 1.8 0 3.6 0 5.2 1.1.5.5.6 1.1.2 1.7-1.5 1.2-3.4 1.2-5.2 1.2-8.2 0-16.5.2-24.7-.1-3.5 0-6.9.1-10.4 0-3.7-.1-5.1 1.5-4.9 5.1.1 2.3.2 4.6.2 6.9-.1.5-.3 1.1-.6 1.5z" fill="#3b2d0c"/><path d="m32.3 189.2c-1.7-3.6-.8-7.4-.7-11.1.1-3.4-1.1-4-4.2-4.1-3.6-.1-7.5 1.3-11-.8 2.5-2.2 5.6-1.5 8.4-1.5 3.8.1 5.3-1.5 5.1-5.3-.1-2.4-.2-4.9.5-7.3.2-.6.5-1 1-1.4.5-.3 1.1-.6 1.6-.7 4.8-.2 9.6-1.3 14.2.9 2.6 4.5 1.2 9.3 1.2 14.1-.1.6-.3 1.1-.6 1.7-.3.5-.7.9-1.2 1.1-2.7 1-5.5.7-8.3.6-3.3-.1-4.9 1.1-4.7 4.6.1 2.6.3 5.3-.5 7.9 0 .6-.4 1-.8 1.3z" fill="#543e14"/><path d="m47.3 190c-5-1.1-10.1.5-15-.9.1-.1.3-.3.4-.4 2.7-1.8 5.7-1.2 8.6-1.1 3.4 0 4.6-1.4 4.6-4.7 0-2.9-.7-5.9 1.2-8.6l.3-.3c4.2-2.4 8.7-1.3 13-1 2.4.2 3 2.3 3.1 4.4.2 3.6 0 7.3.2 10.9.1.6-.1 1.3-.3 1.8-.5.4-1 .7-1.6.9-4.9.4-9.8 1.7-14.5-1z" fill="#513d13"/><path d="m93.8 49.5c.1 5.3.2 10.6.4 15.9 2.4 5.1 2.1 10.2.2 15.3-5.4 2.1-10.8 2.3-16.2-.1l-.1.1c-2.4-4.9-1.9-9.9-.4-14.9 2.3-2.2 5.2-1.5 8-1.6 5.6-.2 5.8-.4 6-5.9.1-2.9-.6-6 1.5-8.5.1-.3.3-.4.6-.3z" fill="#a62f48"/><path d="m171.7 204.9c-5.2.1-10.5.2-15.7.3-.2-.2-.5-.4-.7-.6-1.3-5.3-1.9-10.5.5-15.7 5.3-2 10.7-2.1 16 .1 2.2 5.2 2.4 10.5-.1 15.9z" fill="#aa1232"/><path d="m93.1 49.7c0 4-.1 8 .1 11.9.2 3.1-1.1 4.1-4.1 4-3.6-.2-7.3 0-10.9 0-5 2.4-10 2.4-14.9 0-.3-.6-.2-1.1.3-1.5 2.3-1.3 4.8-.9 7.2-1 5.6-.2 5.8-.4 6-5.8.1-2.6-.5-5.3 1.4-7.5 5 0 9.9 0 14.9-.1z" fill="#d3253e"/><path d="m62.2 190.1c.4-.1.9-.1 1.3-.2 4.2-2.3 8.6-1.1 12.9-.9 1.4.1 2.6 1.1 2.7 2.5.4 4.5 1.5 9.1-.9 13.4-4.8.5-11-2.1-14.1 1.2-2.8 3-.5 9.1-.9 13.8-1.5-4.9.3-10-1-14.9-2.3-5-2.3-10 0-14.9z" fill="#4d3811"/><path d="m156 205.1v.5c-.4 4.9 2.2 11.5-1 14.2-3.3 2.9-9.8.8-14.9.7-.2-.2-.3-.5-.5-.7 0-.3-.1-.6-.1-.9.7-4.8-1.5-10 1.6-14.6 4.9-1.3 9.9-1.9 14.7.5 0 .1.2.3.2.3z" fill="#a42d2c"/><path d="m140.9 33.8c-5.3 0-10.7 0-16 0 0-3.9.2-7.9 0-11.8-.1-2.4.4-3.6 3.2-3.4 4.3.3 8.5.2 12.8.3 2.4 4.9 2.4 9.9 0 14.9z" fill="#3d2b0a"/><path d="m171.7 204.9c0-5.3-.1-10.6-.1-15.9.2-.2.4-.4.7-.6 4.6-1.2 9.3-1.1 13.9-.1.6.3.9.7 1.1 1.4-.3 5 .5 10-.5 15-5.1.7-10.1.3-15.1.2z" fill="#231a08"/><path d="m249.3 111.4c-5.3-.1-10.5-.1-15.8-.2-2.6-4.7-1.8-9.5-.6-14.4.4-.6 1-.7 1.6-.4 3.9 0 7.8.1 11.7-.2 2.7-.2 3.3 1 3.2 3.4-.2 3.9-.1 7.8-.1 11.8z" fill="#292107"/><path d="m109 235.9c0-5 0-10 0-15 5-2.5 10.1-1.8 15.3-.6l.7.7c0 3.9-.1 7.9 0 11.8.1 2.4-.4 3.6-3.2 3.4-4.2-.3-8.5-.3-12.8-.3z" fill="#2d2107"/><path d="m233.5 143.4c5.3 0 10.5-.1 15.8-.1 0 3.8-.1 7.6.2 11.4.2 2.7-.5 3.9-3.5 3.7-3.8-.3-7.6-.1-11.4-.2-.6.3-1.2.2-1.6-.4-1.3-4.8-2-9.7.5-14.4z" fill="#211b0d"/><path d="m233.6 158.1c.3 0 .7.1 1 .2-2 4.8.1 10-1.1 14.9-3.6 0-7.2-.2-10.8 0-3.3.2-4.3-1.2-4.1-4.3.2-3.6 0-7.2-.1-10.8.2-.2.5-.4.7-.6 4.8-1.1 9.6-1.7 14.4.6z" fill="#342a09"/><path d="m234.5 96.4c-.3.1-.6.1-1 .2-5 2.1-10 2.3-15-.2.4-4.8-2.2-11 1.1-14.1 3-2.8 9.1-.5 13.8-.9 1.2 5-.8 10.2 1.1 15z" fill="#382a0b"/><path d="m31.2 158.4c.1 3.8.1 7.6.3 11.4.1 2.7-1.2 3.4-3.6 3.4-3.8-.1-7.6 0-11.4 0 0-4.6-.1-9.2-.1-13.9.2-.2.3-.5.2-.8 4.8-3 9.7-2.8 14.6-.1z" fill="#171106"/><path d="m202.7 64.6c-4.9-.3-11.1 2.2-14.2-1.1-2.8-3-.7-9.1-.8-13.9 4.1 0 8.2.1 12.3-.1 2.2-.1 2.9.6 2.8 2.8-.2 4.1-.1 8.2-.1 12.3z" fill="#2a1e08"/><path d="m78.2 49.8c0 3.8-.1 7.6 0 11.4.1 2.5-.9 3.6-3.5 3.5-3.8-.1-7.6 0-11.4 0-1.2-4.8-.7-9.7-.3-14.5 5.1-1.1 10.2-.5 15.2-.4z" fill="#d71c43"/><path d="m140.9 33.8c0-5 0-10 0-15 5-.4 10-.4 14.9 0 2.4 5 2.4 10 0 15-5 0-9.9 0-14.9 0z" fill="#281c08"/><path d="m155.8 33.8c0-5 0-10 0-15 5-.4 10-.4 15 0v.5c-.5 4.7 2.1 10.7-1.2 13.6-3.1 2.8-9.1.7-13.8.9z" fill="#382a0a"/><path d="m62.2 190.1v14.9c-4.1 0-8.2-.1-12.3.1-2.2.1-2.9-.6-2.8-2.8.2-4.1.1-8.2.1-12.3 5.1 0 10.1.1 15 .1z" fill="#302608"/><path d="m94.2 34.7c4.9.1 9.9.1 14.8.2 2.4 4.9 2.4 9.8 0 14.8-5 0-10 0-15-.1.1-5 .1-9.9.2-14.9z" fill="#291d09"/><path d="m186.7 204.6c0-5.2 0-10.4 0-15.5 5-3 10.5-1.1 15.8-1.5 4.9.3 10-1.2 14.8 1.2 0 0 .3.3.3.3-8.7 1.2-17.4.3-26.1.4-3.6 0-4.5 1.1-4.4 4.5.1 3.5.8 7.1-.4 10.6z" fill="#38280c"/><path d="m63.2 50.1c.1 4.8.2 9.7.3 14.5-.1.3-.1.7-.2 1-.4.1-.7.1-1.1.2-4.7 2.5-9.8 1-14.8 1.3-4.9-.3-10 1.2-14.8-1.2-.1-.2-.1-.3-.1-.5 8.7-1 17.3-.4 26-.4 3.1 0 4.4-.8 4.2-4.1-.1-3.6-.6-7.3.5-10.8z" fill="#a9403d"/><path d="m139.8 219.9c0 .2.1.5.2.7-5 .1-10 .2-15.1.3 0 0-.2-.1-.2-.1-.2-.7 0-1.2.6-1.6 5-1 9.9-1.9 14.5.7z" fill="#38280c"/><path d="m16.5 81.6c4.8.3 11-2.1 14.1 1.1 2.8 3 .6 9.1.9 13.8-5 2.4-10 2.4-14.9 0-.1-5-.1-10-.1-14.9z" fill="#48350c"/><path d="m16.5 96.5h14.9v14.8c-5 2.3-10.1 2.4-15.1 0 .1-5 .1-9.9.2-14.8z" fill="#644a14"/><path d="m16.3 111.3h15.1v1c-2.7 2.4-6 1.5-9 1.6-3.1.1-4.6 1.2-4.5 4.4.1 3 .1 5.9 0 8.9 0 4.7.2 9.4-.2 14-.1.6-.3 1.2-.6 1.7-.2.2-.4.4-.6.6-.3-.1-.6-.2-.9-.3-.1-5.3-.1-10.6-.2-15.9.1-5.3.2-10.6.3-15.9.2 0 .4 0 .6-.1z" fill="#68604f"/><path d="m31.2 158.4c-4.9-.3-9.7-.5-14.6.1 0-5-.1-10.1-.1-15.1.1-.2.1-.3.1-.5 4.2-2 8.7-1 13-.8 1.6.1 2.8 1.3 2.9 2.9.2 4.3 1.4 8.8-1 13z" fill="#543e12"/><path d="m94.1 80.6c0-5.1.1-10.1.1-15.2 3.6 0 7.3.2 10.9.1 3-.1 4 .9 4.1 4 .1 3.7-1.2 7.6.8 11.2 1.1 3 .5 6.2.4 9.3-.1 3.9 1.6 5.2 5.3 5.2 3.3 0 7-1 9.8 1.9.3.6.7 1.2.7 1.9.1 4.4 2.2 9.9-1.7 12.6-4.5 3.1-10.4 2.4-15.6 0-3.8 0-7.6-.1-11.4 0-2.5.1-3.4-.9-3.5-3.4-.2-3.7 1.8-8.5-1-10.9-2.7-2.2-7.3-.4-11.1-.7-1.2-.1-2.7.5-3.6-1 2.7-2.2 5.9-1.5 9-1.4 4.1.1 5.6-1.5 5.4-5.5-.2-2.8-.6-5.7 1.4-8.1z" fill="#a91736"/><path d="m108.9 111.5c4.3 0 8.5-.1 12.8 0 2.3 0 3.3-.9 3.2-3.2-.1-3.9-.1-7.9-.1-11.8.2-.2.4-.4.7-.6 4.9-1.3 9.9-1.1 14.8-.1.5.3.9.7 1.2 1.2 1 2.5.8 5.2.7 7.8-.2 3.8 1.4 5.5 5.2 5.2 1.8-.1 3.6-.2 5.4.2 1.3.3 3.2.1 2.9 2.4-2.8 2-6 1.2-9 1.2-3.1 0-4.4 1.3-4.4 4.4-.1 3.2.8 6.6-1.6 9.4-5.3 1.7-10.6 2.2-15.8-.3-4.1 0-8.3-.1-12.4 0-2.6.1-3.5-.9-3.5-3.5.2-4.1 0-8.2-.1-12.3z" fill="#a62f48"/><path d="m78.2 204.9c0-4.1-.1-8.2-.1-12.3 0-2.1-.7-3-2.8-2.9-3.9.1-7.9.1-11.8.1-.1-.3-.2-.6-.3-.8.2-.2.4-.4.6-.6 2.8-1.3 5.9-.8 8.8-.8s4.2-1.2 4.2-4.1c0-2.8-.3-5.6.5-8.4.2-.5.6-.9 1.1-1.2h15.8c1.1-.9 2.3-1.2 3.7-1.3 7.9-.2 15.7-.2 23.6 0 1.2 0 2.3.3 3.3 1 3.1 4.7 1.8 9.7 1.1 14.7-.3.6-.7 1-1.2 1.4-5.1 1.6-10.4.6-15.6.8-4.7.2-9.5-.1-14.2.3-3.2.3-6.5.7-9.7.6-3.1-.1-4.3 1.4-4.4 4.4s.8 6.2-1.4 9l-.5.1z" fill="#b6b6b6"/><path d="m124.8 174c-10.2 0-20.5-.1-30.7-.1 0-.3 0-.5 0-.8-2.3-5-2.4-9.9.1-14.9h30.8l.6.6c.3.5.5 1 .6 1.6.1 4.4.9 8.8-.7 13.1-.2.1-.5.3-.7.5z" fill="#38280c"/><path d="m62.3 127.3c.5-5.3-1.1-10.7 1-15.9 2.3 3.1 1.4 6.6 1.4 10 .1 3.1 1.4 4.4 4.5 4.4 3 0 6.3-.7 9 1.5 2.4 5.3 2.4 10.6 0 15.9-2.4 2-5.3 1.5-8 1.4-3.9-.2-5.8 1.2-5.5 5.4.2 2.4.3 4.9-.6 7.3-.2.5-.6.9-1.2 1.2-.6 0-1-.3-1.3-.8-1.2-2.8-.7-5.8-.7-8.7 0-3.2-1.4-4.4-4.4-4.3-2.7 0-5.5.4-8.3-.6-.5-.2-.9-.6-1.1-1.2 0-.6.3-1 .9-1.3 2.4-1 4.9-.8 7.3-.7 4 .2 5.8-1.3 5.6-5.4-.2-2.8-.7-5.8 1.4-8.2z" fill="#644b17"/><path d="m47.6 142.2c0 .3-.1.6-.1.9-2.3 2.4-5.2 1.5-8 1.6-5.2.2-5.4.4-5.6 5.8-.1 2.6.5 5.3-1.5 7.6l-.5.1-.5-.1c-.5-4.9 2.1-11.3-1.1-14.1-2.8-2.4-9.1-.8-13.8-1 0-.3.1-.5.1-.8 2.8-2.2 6-1.2 9-1.3 2.8-.1 4.2-1.2 4.2-4.2 0-2.8-.3-5.6.5-8.3.2-.5.6-.9 1.1-1.2.3 0 .6 0 .8-.1 5-1.9 10-2.3 14.8.4l-.1-.1c3 4.9 2.5 9.8.7 14.8z" fill="#b7b6b6"/><path d="m62.5 158c.3-.1.5-.1.8-.1 5-1.8 10-2.4 14.8.5.1 5.2.2 10.4.2 15.5 0 0-.3.3-.3.3-1.8 1.6-4 1.3-6.1 1.3-7.1.2-7.1.2-7.2 7 0 2.1.3 4.3-1.2 6.2 0 0-.3.3-.3.3-1.6-3.8-.5-7.7-.7-11.6-.1-2.5-.8-3.5-3.4-3.4-3.9.2-7.9 0-11.8-.1-.1-.3-.1-.6 0-.9 2.6-2.1 5.7-1.5 8.6-1.4 3.3 0 4.7-1.3 4.8-4.7.2-3-.8-6.3 1.8-8.9z" fill="#b6b6b6"/><path d="m124.9 127.3c5.3 0 10.6 0 15.9-.1.2.2.4.5.7.7 1.2 5.3 2 10.5-.7 15.6-5.3 1.6-10.6 2.6-15.8-.6 0-5.1 0-10.4-.1-15.6z" fill="#d61b41"/><path d="m78.2 143.3c0-5.3 0-10.6 0-15.9 4.1 0 8.2.1 12.4 0 2.4-.1 3.8.7 3.6 3.4v.5c-.1 14.3 1.6 11.9-11.5 12.1-1.5-.1-3-.2-4.5-.1z" fill="#443310"/><path d="m94.1 80.6c0 3.6-.1 7.3.1 10.9.1 2.9-.8 4.2-3.9 4.1-3.9-.2-7.9-.1-11.9-.1 0-5-.1-9.9-.1-14.9z" fill="#d61a41"/><path d="m78.2 127.3c-4.8-.5-11.1 2.1-14.1-1.2-2.9-3.2-.7-9.4-.8-14.3 0-.2 0-.3 0-.5 4.8.5 11-2.1 14.1 1.2 2.8 3 .6 9.1.8 13.8z" fill="#443310"/><path d="m47.3 127.5c-4.9-.1-9.9-.3-14.8-.4 0-1.8 0-3.6 0-5.5 0-11.1.8-11.7 12.1-10.3 2.2.3 2.8 1.2 2.8 3.2-.1 4.3-.1 8.7-.1 13z" fill="#543e14"/><path d="m125 143c5.1.1 10.3.1 15.4.2.6.2 1.1.6 1.3 1.2.6 4.8 1.8 9.7-1 14.2-5.3 1.4-10.5 1.9-15.7-.4 0-5.1 0-10.2 0-15.2z" fill="#39290c"/><path d="m78.1 158.4c-4.9-.4-9.9.5-14.8-.5.5-4.7-2.1-10.8 1.1-13.7 3.1-2.9 9.1-.6 13.8-.9 0 5-.1 10-.1 15.1z" fill="#543e13"/><path d="m94.2 158.2c0 5-.1 9.9-.1 14.9-3.3 0-6.6 0-9.9 0-1 0-2.2.3-2.9-.1-4.5-3.1-1.2-7.7-2.1-11.6-.5-2.2.7-3.3 3.1-3.2 4 .1 7.9 0 11.9 0z" fill="#543e14"/><path d="m16.6 127.4c0-3.8.1-7.6-.2-11.4-.2-3.2 1.2-4 4.1-3.8 3.6.2 7.3.1 10.9.2 0 4.9.1 9.9.1 14.8 0 0-.3.3-.3.3-4.8 2-9.7 2.1-14.6-.1z" fill="#b6b5b2"/><path d="m63.2 65.6h14.9c0 5 0 10-.1 15-.2 0-.3 0-.5 0-4.6-.5-10.7 2-13.6-1.2-2.6-3.1-.4-9.1-.7-13.8z" fill="#a9403d"/><path d="m47.4 65.8h14.8c0 3.6-.1 7.3.2 10.9.2 3.1-1.1 4.1-4.1 3.9-3.6-.2-7.3-.1-10.9-.1-2.4-4.9-2.5-9.8 0-14.7z" fill="#2c200a"/><path d="m47.4 65.8v14.7c-3.6 0-7.3-.1-10.9.1-2.9.1-4.3-.7-4.1-3.9.2-3.6.1-7.2.2-10.9 4.9.1 9.8 0 14.8 0z" fill="#3f310d"/><path d="m47.6 142.2c-.1-4.9-.3-9.9-.4-14.8 5 0 10-.1 15.1-.1 0 3.1-.3 6.3.1 9.4.6 4.8-1.5 6-5.9 5.6-3-.3-5.9-.1-8.9-.1z" fill="#543e14"/><path d="m124.9 80.6c0-2.2 0-4.3.1-6.5.1-9.9-1.3-8.4 8.3-8.6 1.2 0 2.3-.1 3.5 0 3 .2 4.3-1.2 4.1-4.2 0-.7 0-1.3 0-2 0-10 2.3-11.7 12.6-9.8 2.8.5 2.3 2.4 2.3 4.1 0 7.5.2 14.9-.1 22.4-.1 3.6 1.2 4.5 4.6 4.5 11.4 0 11.4.2 11.4 11.4v4.5c-.2.2-.5.4-.7.6-10.1 1.1-20.2 2.2-30.2-.6-1.9-2.3-1.4-5-1.4-7.6-.1-6.7-.2-6.8-7.1-6.9-2.3 0-4.7.3-6.8-.8-.2-.1-.4-.3-.6-.5z" fill="#443310"/><path d="m202.6 80.5c0 4.1-.1 8.3 0 12.4.1 2.5-.9 3.7-3.5 3.5-.5 0-1 0-1.5 0-10.6.1-11.7 1.5-10.1 12.3.4 2.7 2 2.6 3.8 2.6h21.4c1.6 0 3.4-.6 4.6 1-1.9 1.7-4.3 1.5-6.6 1.5-5.7.1-11.5 0-17.3 0-3.1 0-4.5 1.4-4.5 4.5 0 3 .1 5.9-.1 8.9-.2 4.9 1 9.9-1 14.7-.5.5-1.1.6-1.7.2-2.3-4.8-.9-9.9-1.2-14.8-.1-5.3-.1-10.6 0-15.9.3-5-1.4-10.2 1.5-14.9 0-3.9.1-7.9 0-11.8-.1-2.9 1.2-4.2 4.1-4.1 4.2 0 8.2-.1 12.1-.1z" fill="#453410"/><path d="m124.9 96.4c-4.1 0-8.2 0-12.3 0-1.6 0-3.6.1-3.5-2.3.2-4.5-1.1-9.2.9-13.6h14.9c2.5 5.3 2.4 10.5.1 15.9 0 .1-.1 0-.1 0z" fill="#d61a42"/><path d="m109 49.6c0-4.9 0-9.8 0-14.8 3.8 0 7.6 0 11.4-.1.8 0 1.9-.3 2.4.1 4.6 3.1 1.2 7.7 2.1 11.6.5 2.2-.7 3.3-3.1 3.3-4.2-.1-8.5-.1-12.8-.1z" fill="#3d2d0b"/><path d="m186.7 96.5v14.9c-5 2.5-10 2.2-15 .2-2.2-5-2.3-10.1.1-15.1z" fill="#443310"/><path d="m217.3 65.9c.1 3.8.1 7.6.3 11.4.1 2.7-1.1 3.4-3.6 3.3-3.8-.1-7.6 0-11.4 0 0-3.6.2-7.2 0-10.9-.1-2.9.7-4.2 3.9-4 3.5.2 7.2.1 10.8.2z" fill="#2c210b"/><path d="m186.8 34.7c-.1 3.8-.1 7.6-.2 11.4 0 1.2.5 3.2-1.3 3.3-4.1.3-8.2.2-12.3 0-1.1-.1-1.1-1.4-1.2-2.4-1.6-11.4-.9-12.1 10.6-12.2 1.4 0 2.9-.1 4.4-.1-.1 0 0 0 0 0z" fill="#2f220c"/><path d="m187.7 127.3c0-3.6.2-7.3 0-10.9-.2-3.1 1-4 4-4 8.6.2 17.2.1 25.8.1 0 4.9 0 9.8.1 14.7-4.7 3.2-9.9 1.2-14.9 1.6-5.1-.4-10.3 1.4-15-1.5z" fill="#38280c"/><path d="m202.6 127.5c5-.1 9.9-.2 14.9-.4.3.1.6.2.9.1.2.2.4.4.6.7 1.2 4.8 1.8 9.7-.5 14.4-4.7 4.3-10.2 2.2-15.4 1.7-.6-.3-1-.7-1.3-1.3-.8-5.1-1.8-10.2.8-15.2z" fill="#b6b6b6"/><path d="m218.5 96.5c5 0 10 .1 15 .1v14.6c-5 0-10 .1-14.9.1-.1-5-.1-9.9-.1-14.8z" fill="#38280c"/><path d="m218.5 112.4c15.7-.9 15.7-.9 15 15-5 2.4-10 2.4-14.9 0 0 0-.1-.1-.1-.1 0-5 0-9.9 0-14.9z" fill="#b6b5b5"/><path d="m202.6 143.2c5.3-.5 10.8 1 16-.9v1c2.1 5 2.4 9.9-.2 14.8-5.3 0-10.6 0-15.8.1-2.4-5-2.4-10 0-15z" fill="#989898"/><path d="m218.4 158.1c.1-4.9.2-9.9.2-14.8 5 0 9.9.1 14.9.1 0 4.9 0 9.8.1 14.6-5.1.1-10.1.1-15.2.1z" fill="#38280c"/><path d="m218.5 127.3h14.9c-.1 4.7 2 10.8-.8 13.8-3.1 3.3-9.3.7-14.1 1.2.1-5 0-10 0-15z" fill="#989898"/><path d="m186.6 142.1c.3 0 .6-.1.9-.2.5.4.9.9 1.2 1.5.5 5 1.6 10.1-1 14.9-.1 5.2-.2 10.3-.2 15.5-.2.2-.3.5-.5.7-4.7 1.6-9.5 1.1-14.3.4-.5-.2-.9-.6-1.2-1.1 0-.6.3-1.1.8-1.3 2.8-1.2 5.9-.7 8.8-.7s4.1-1.1 4.2-4.1c.4-7.3-.1-7.9-7.3-8-2 0-4 .1-5.8-.8-.5-.3-.9-.7-1.2-1.3-.7-4.8-1.3-9.7.5-14.4 4.9-2.4 10-1.4 15.1-1.1z" fill="#9a9596"/><path d="m202.8 188.8c-5.4.1-10.7.2-16.1.3v-.1c-2.3-5.2-2.5-10.3.9-15.2v-.1c5 .1 10.1.2 15.1.3 2.2 5 2.1 9.9.1 14.8z" fill="#352b0a"/><path d="m187.7 158.3c0-5 0-10 0-15.1 5-2.4 9.9-2.4 14.9 0v14.9c-5 .1-9.9.2-14.9.2z" fill="#b6b6b6"/><path d="m202.8 188.8c-.1-4.9-.1-9.8-.2-14.7 3.8 0 7.6.1 11.4 0 2.4-.1 3.7.7 3.6 3.4-.2 3.8-.2 7.6-.3 11.3-4.9 0-9.7 0-14.5 0z" fill="#201909"/><path d="m125 219.8c-.1.3-.1.7-.2 1-5.3 0-10.5.1-15.8.1-9.9 0-19.9 0-29.8 0 0-.3 0-.7 0-1 2.7-2.3 6-1.4 9-1.5 3.1-.1 4.5-1.3 4.5-4.4 0-2.7-.6-5.6 1.5-8h30.8c2.4 4.6 2.2 9.2 0 13.8z" fill="#38280c"/><path d="m94 190.1c1.6-1.7 3.8-1 5.7-1 8.5 0 16.9 0 25.4.1.4.4.7.9.9 1.5.4 4.6 1 9.2-.4 13.7-.2.2-.4.4-.6.6-10.3 0-20.6-.1-30.9-.1-2.3-5-2.3-9.9-.1-14.8z" fill="#999"/><path d="m94 190.1v14.7c-4.9 0-9.9 0-14.8.1 0-.7 0-1.3 0-2-.1-14.3-.1-14.3 14.8-12.8z" fill="#d5d5d5"/><path d="m125 219.8c0-4.6 0-9.2-.1-13.9 0-.3 0-.7 0-1 4.1-2.6 8.6-1.6 13-1.1 1.7.2 2.5 1.4 2.4 3.2-.2 4.3.5 8.6-.5 12.8 0 0-.1.1-.1.1-4.8 0-9.7-.1-14.7-.1z" fill="#181106"/><path d="m94.1 206c-.5 4.5 2 10.2-1.2 13.1-2.9 2.6-8.4.6-12.8.8-.3 0-.7 0-1 0-2-3.9-.8-8-.8-12.1 0-2.1 2-1.8 3.4-1.9 4.2 0 8.3.1 12.4.1z" fill="#3b2a0d"/><path d="m62.5 158c-.1 3-.1 5.9-.2 8.9 0 6.3 0 6.3-6.5 6.3-2.8 0-5.6 0-8.4 0-.1-4.9-.2-9.8-.2-14.8.2-.2.4-.5.6-.7 4.9-1.5 9.8-1.8 14.7.3z" fill="#d5d5d5"/><path d="m47.1 174.3c0 18.1 3.6 14.2-14.4 14.4-.2-17.9-3.5-14.5 14.4-14.4z" fill="#201909"/><path d="m32.4 158.1c0-3.6.2-7.2-.1-10.8-.2-3.3 1.2-4.3 4.3-4.1 3.6.2 7.2 0 10.8-.1 2.2 5 2.3 10.1-.1 15.1 0 0-.2.2-.2.2-4.8-.1-9.8-.2-14.7-.3z" fill="#d5d5d4"/><path d="m125.3 189.8c0-.2-.1-.5-.2-.7 4.9-3 10.3-1.1 15.5-1.5 4.9.2 9.8-.8 14.6.8.2.2.4.4.7.6v15.9c-5 0-9.9 0-14.9.1-1.5-1.6-1.5-3.6-1.5-5.5 0-8.5-.2-7.9-8.3-8-2.1 0-4.4.2-5.9-1.7z" fill="#a62f48"/><path d="m171.6 189c-5.3 0-10.5 0-15.8.1-2.4-5-2.2-10-.2-15 5.4-2.1 10.7-2.3 16.1.1l.1.1c2.3 5 2.3 9.9.1 14.9z" fill="#d51a42"/><path d="m125.3 189.8c4 0 7.9.2 11.9 0 2.8-.1 3.8 1 3.7 3.7-.1 3.8 0 7.6.1 11.4-.6 4.9 1 10-1 14.9-.5-4.8 2.1-11-1.2-14.1-3-2.8-9.1-.5-13.8-.8 0-5 .1-10 .3-15.1z" fill="#38280c"/><path d="m171.9 189.1c0-5 0-10-.1-14.9 5.2-.1 10.5-.2 15.7-.3-1.3 5-.7 10.1-.9 15.2-4.9 0-9.8 0-14.7 0z" fill="#38280c"/><path d="m16.6 127.4c4.9 0 9.8.1 14.6.1.1 3.8 0 7.5.2 11.3.1 2.5-.9 3.5-3.4 3.4-3.8-.1-7.5 0-11.3 0 0-4.9 0-9.9-.1-14.8z" fill="#d4d4d4"/><path d="m171.8 96.5v14.9c-.2.2-.4.4-.6.6-2.5 1.2-5.1.9-7.7.8-3.7-.2-5.4 1.2-5.3 5.1.1 2.9.5 5.9-.6 8.7-.3.6-.7.9-1.3 1-.6-.2-1-.6-1.2-1.2-.7-4.7-1.6-9.4.7-14-3.2-2.1-6.7-1-10-.9-4.1.2-5.2-1.3-4.9-5.1.3-3.3.1-6.6.1-9.9z" fill="#654b17"/><path d="m125 96.5c0-5.3-.1-10.6-.1-15.9 4.3 0 8.5 0 12.8-.1 2.3-.1 3.3.9 3.2 3.2-.1 4.3 0 8.5 0 12.8-5.3 0-10.6 0-15.9 0z" fill="#654a17"/><path d="m155.7 112.4c.1 4.9.1 9.9.2 14.8-5 2.6-10 2.4-15 .1 0 0 0 0-.1 0 0-3.8.1-7.6 0-11.4-.1-2.6.9-3.6 3.5-3.5 3.8.1 7.6 0 11.4 0z" fill="#d61a41"/><path d="m140.7 189c-5.2 0-10.4.1-15.6.1-.1-5.1-.2-10.1-.2-15.2v.1c2.3-1.8 5-1.3 7.6-1.4 5.7-.1 6-.4 6-5.8 0-5.7-.3-6-6.2-6.2-2.4-.1-5 .4-7.1-1.4 0-.3-.1-.7-.1-1h15.5c.3.2.5.4.8.5 2.1 5.1.7 10.4 1 15.6-.5 4.9 1.5 10.1-1.7 14.7z" fill="#989797"/><path d="m63.6 188.7c-.1-3.8 0-7.5-.2-11.3-.1-2.6.9-3.5 3.4-3.4 3.8.2 7.5.1 11.3.2 0 3.8 0 7.5.2 11.3.1 2.5-.8 3.6-3.4 3.4-3.8-.1-7.6-.1-11.3-.2z" fill="#d3d3d2"/><path d="m125.1 159.2c3.8 0 7.6.1 11.3-.1 2.5-.1 3.3.9 3.5 3.5.7 11.5.7 11.5-10.7 11.5-1.5 0-3 0-4.4-.1.1-4.9.2-9.8.3-14.8z" fill="#b7b5af"/><path d="m47.3 158.2c0-5 .1-10 .1-15.1h.5c4.7.3 10.9-2.1 13.8 1.1 2.8 3.1.7 9.1.8 13.9-5.1 0-10.1 0-15.2.1z" fill="#b6b5b5"/><path d="m140.9 127.3c5 0 10 0 15-.1v.2c2.4 5.3 2.2 10.6.1 16-5.1 2.1-10.1 2.3-15.2-.1 0 0-.4-.1-.4-.1.2-5.3.3-10.6.5-15.9z" fill="#d09b19"/><path d="m140.8 143.3c5 0 10 0 15-.1l.6.6c1.3 4.6 1.2 9.3.1 13.9-.3.5-.8.9-1.3 1.2-4.8.8-9.7 1.6-14.3-.7 0 0-.3-.1-.3-.1 0-4.9.1-9.8.2-14.8z" fill="#d2a116"/><path d="m171.7 111.4h14.9v16.1c-4.7 2.3-9.5 1.5-14.3.6-.6-.3-1-.7-1.3-1.3-.9-5.2-1.8-10.4.7-15.4z" fill="#644a17"/><path d="m171.6 127.4h15v14.7c-4.8 2-9.9.4-14.8.8-2.6-5.1-2.3-10.3-.2-15.5z" fill="#3d2d0d"/><path d="m202.6 143.3c-5 0-10 0-14.9 0-.1-.5-.1-.9-.2-1.4.1-4.9.1-9.8.2-14.7 5 .1 10 .2 15 .2-.1 5.4-.1 10.6-.1 15.9z" fill="#989898"/><path d="m171.6 127.4c.1 5.2.2 10.4.2 15.6-.1 5.1-.2 10.2-.4 15.3-.6.1-1.1-.1-1.4-.7-.9-1.7-.7-3.5-.8-5.4-.2-7.4-.2-7.4-7.4-7.6-2.1-.1-4.4.2-6.1-1.4 0-5.3 0-10.6 0-15.8.3-.1.7-.1 1-.2 5.1-2.1 10.1-2.4 14.9.2z" fill="#ce971a"/><path d="m170.7 158.1c.2.1.5.1.7.2 0 0 .3-.1.3-.1 2.3 5 2.3 9.9 0 14.9 0 .3-.1.7-.1 1-5.3 0-10.6 0-15.9 0-.2-.2-.4-.4-.6-.7-1-5-1.9-10.1.7-14.9l-.1-.4c5.1-2.3 10.1-2.3 15 0z" fill="#a92e48"/><path d="m171.8 173.1c0-5 0-9.9 0-14.9 3.8 0 7.6.1 11.4 0 2.6-.1 3.3 1 3.4 3.5.6 11.5.6 11.5-10.9 11.5-1.2-.1-2.6-.1-3.9-.1z" fill="#b5b5b5"/><path d="m140.7 189c.1-5 .2-9.9.2-14.9 5-2.4 10-2.4 14.9 0v15c-5-.1-10.1-.1-15.1-.1z" fill="#aa1232"/><path d="m171.7 127.4c-4.9-.1-9.9-.2-14.8-.2 0-4 .1-7.9-.1-11.9-.2-3.1 1.2-4.1 4.1-3.9 3.6.2 7.3 0 10.9 0-.1 5.3-.1 10.7-.1 16z" fill="#453310"/><path d="m155.8 174.1c-5 0-10 0-14.9 0 0-5.3-.1-10.6-.1-15.9 5 .1 10.1.2 15.1.2 0 5.3 0 10.5-.1 15.7z" fill="#d51a42"/><path d="m170.7 158.1c-5 0-10 0-14.9 0 0-5 0-9.9 0-14.9 3.8 0 7.6.1 11.4 0 2.5-.1 3.6.9 3.5 3.5-.1 3.8 0 7.6 0 11.4z" fill="#d3951a"/></svg>