<svg viewBox="0 0 280 280" xmlns="http://www.w3.org/2000/svg"><path d="m76.1 45.28c.26.1.52.09.77-.02 1.15-4.98.19-10.04.56-15.04.13-1.71-.75-3.59.68-5.14 6.57-.06 13.14-.13 19.71-.19.58-.63 1.05-1.42 2.06-1.46.3.01.59.03.89.04.3.02.6.06.9.08 26.64.09 53.27.18 79.91-.06 1.06-.02 1.71.64 2.31 1.39 6.29.75 12.71-.98 18.93 1-.19.22-.39.44-.58.66-4.16 1.67-8.53.88-12.77.76-4.23-.12-5.55 1.48-5.31 5.51.26 4.29.05 8.61.08 12.92.01.6.01 1.2 0 1.81-.05 6.81-.02 13.62 0 20.43-.55 6.88 1.09 13.86-1 20.66-.53.54-1.08.57-1.66.08-2-2.95-1.16-6.31-1.29-9.51-.18-4.4.35-8.8.03-13.2-.25-10.49.16-20.98.09-31.47-.01-1.98.32-4.01-.6-5.89-1.45-1.58-3.37-1.2-5.15-1.2-22.42-.03-44.85-.02-67.27 0-1.8 0-3.69-.3-5.18 1.13-2.08 5.56-.43 11.31-.92 16.94.01.57.01 1.14 0 1.72-.05 4.57-.06 9.14 0 13.7.02 1.58-.35 3.35 1.5 4.32 10.29.78 20.57.11 30.84.36 2.29.05 4.67-.37 6.81.89.58.44.68.97.3 1.59-1.78 1.64-4.02 1.28-6.13 1.29-9.42.06-18.84-.04-28.25.07-1.81.02-4.16-.78-4.92 2.01-.19 5.37.09 10.74-.16 16.1.01.89 0 1.78.09 2.66.25 5.2-.54 10.43.52 15.58 1.35 2.51 3.75 1.58 5.8 1.79 5.06.52 10.29-1.18 15.2 1.22.28.62.17 1.15-.33 1.61-5.16 1.9-10.5.68-15.76.92-5.38.25-5.48.19-5.53 5.72-.08 10.45.11 20.9-.09 31.36-.11.95-.36 1.84-.95 2.61-.69.67-1.55.99-2.47 1.14-4.1.31-8.23.35-12.32.08-4.23-.27-5.37 1.48-5.27 5.45.1 4.23.78 8.54-.64 12.72-.34.57-.84.81-1.49.74-.5-.34-.86-.8-1.1-1.36-.96-5.07-.2-10.2-.5-15.28-.02-2.45-1.81-2.23-3.45-2.24-3.73.16-7.5-.41-11.18.61-1.49.2-2.93.21-4.16-.86-.42-.89-.38-1.72.3-2.47 5.3-2.09 10.85-.47 16.24-1.1.49-.14.96-.33 1.38-.63 1.82-2.87.62-6.04.91-9.05.26-2.73-.4-5.54.67-8.21.29-.54.73-.84 1.34-.9.54.23.93.61 1.18 1.14 1.2 4.23.55 8.57.61 12.86.05 3.29 1.21 5.05 4.69 4.78 3.77-.3 7.63.76 11.29-.84 1.88-1.77 1.14-4.07 1.17-6.14.07-5.15.11-10.29-.05-15.44-.06-3.77 0-7.54 0-11.31.17-1.99.11-3.98-.24-5.95-.04-.59.02-1.16.14-1.73.4-11.14.1-22.28.15-33.42 0-1.17-.06-2.33-.86-3.3-4.46-1.88-9.11-.79-13.66-.79-2.84 0-2.64 2.45-2.64 4.43 0 10.9-.12 21.8.07 32.7.07.56.08 1.12.02 1.69-.31 1.24-1.32 1.76-2.33 2.27-.52.22-1.06.37-1.61.47-.83.15-1.68.19-2.52.21-5.11.05-10.23.01-15.34.05-.58.02-1.17.02-1.75.02-.59.02-1.18.03-1.78.05-5.34-.41-10.83 1.2-16.03-1.17-.17-2.82 2.1-2.4 3.67-2.56 2.62-.27 5.27-.05 7.9-.12 1.6-.04 3.36.34 4.48-1.35.97-10.51.15-21.04.41-31.55.05-1.81-.02-3.62.06-5.43.03-.61.13-1.2.3-1.79.24-.55.52-1.08.84-1.58.5-.32 1.06-.47 1.65-.48 4.62.41 9.26.03 13.88.24 3.26.15 4.23-1.25 4.33-4.4.38-12.6.47-12.59-12.29-12.78-1.98-.03-3.99.14-5.84-.81-.55-.33-.75-.81-.61-1.44l.11-.33c6.03-.94 12.14.15 18.18-.6z" fill="#8eefe3"/><path d="m203.63 275.52c-.93 2.11-2.84 1.34-4.36 1.35-38.91.04-77.82-.02-116.73.11-4.38.02-6.09-1.4-5.7-5.75.25-2.8.05-5.65.05-8.48q0-6.67-6.55-6.82c-.17 0-.33 0-.5 0q-13.94-.19-13.94-14.35c0-2.16-.07-4.32-.1-6.48.48-.47.97-.47 1.47-.01 1.88 3.62.68 7.52 1 11.28.17 1.98-.27 4 .49 5.92.52.64 1.19 1.01 2.01 1.11 5.76.69 11.69-1.11 17.34 1.2 2.2 4.15.81 8.64 1.17 12.96.17 2.07-.39 4.31 1.57 5.89 2.08 1.58 4.5.96 6.77.96 37.77.1 75.54-.1 113.31.12 1 .08 1.92.36 2.71.99z" fill="#edf3f2"/><path d="m35.85 107.89c.15-.26.23-.54.24-.83.55-.34 1-.24 1.35.3.62 1 .42 2.16.61 3.24.32 1.16.29 2.34.27 3.52 0 18.7 0 37.4.01 56.1.28 6.48-.76 13.01.6 19.46.41.34.86.59 1.38.71 5.53.44 11.07-.19 16.59.36.86.2 1.62.57 2.1 1.36.01.29.02.57.03.86-.4.43-.88.73-1.43.92-.54.17-1.1.27-1.66.31-4.39.14-8.78.01-13.17.09-1.57.03-3.36-.36-4.21 1.61-.57 9.98-.06 19.95-.26 29.91-.04 2.3.39 4.68-.95 6.81-.48.54-1.03.61-1.64.22-.64-11.46-.35-22.93-.15-34.38.07-4.06-1.45-5.09-4.92-5.08-4.49.02-8.98.02-13.47 0-.67.05-1.18-.21-1.54-.77.04-.66.36-1.14.95-1.44.54-.26 1.1-.43 1.69-.52 4.78-.5 9.6.16 14.38-.46.53-.13.99-.39 1.35-.82.69-1.43.5-2.95.5-4.43-.01-24.23.07-48.47-.04-72.7-.02-.28-.04-.57-.06-.85-.13-.55-.16-1.11-.09-1.67.15-.91.97-1.27 1.54-1.84z" fill="#47e4d2"/><path d="m99.05 24.04c-.41.29-.81.57-1.22.86.02-5.42.01-10.84.09-16.26.02-1.58-.52-3.33.96-4.63 1.06-.67 2.25-.45 3.4-.45 25.54-.01 51.08 0 76.62 0 .99 0 2-.12 2.93.37 2.25 1.1 2 3.16 2.01 5.14.02 5.27.04 10.55.07 15.82-.41-.28-.82-.56-1.23-.84-2.32-3.3-1.22-7.08-1.36-10.65-.26-6.36-.66-6.94-6.79-6.94-22.42-.03-44.85-.03-67.27 0-6.16 0-6.58.57-6.82 6.91-.13 3.58.87 7.35-1.37 10.67z" fill="#cff6f3"/><path d="m245.84 66.98c-.02 13.67-.04 27.34-.06 41.01-.65.27-1.17.12-1.57-.47-.32-.53-.54-1.1-.67-1.7-.6-9.88-.12-19.78-.28-29.67-.04-2.13.25-4.3-.74-6.31-1.14-1.62-2.85-1.44-4.5-1.45-2.65-.01-5.29.04-7.94-.02-5.67-.14-6.45-1.02-6.67-6.75-.15-4.11.53-8.26-.49-12.33-.32-.48-.68-.92-1.12-1.29-4.4-1.26-8.9-.31-13.33-.61-4.8-.32-6.05-1.22-5.93-5.95.13-5.03-1.31-10.23 1.14-15.1 1.96-.69 1.1.95 1.11 1.52.07 4.44.01 8.88.06 13.32.01 1.56-.49 3.48 1.97 3.8.34-.48.68-.46 1.02 0 4.47 0 8.95.14 13.41-.03 3.49-.13 4.73 1.41 4.6 4.76-.15 4.13-.07 8.28-.02 12.42.02 1.56-.52 3.5 1.97 3.84h1.02c5.66.59 11.46-1.16 17.02 1.01z" fill="#edf4f4"/><path d="m31.35 195.06c-6.69-.57-12.1-.57-16.43-2.14.38-.41.79-.43 1.24-.12 5.33.02 10.67.21 15.99 0 3.1-.12 4.03.96 4 3.98-.13 11.99-.05 23.98-.05 35.97.23.47.13.85-.31 1.15-1.44-1.56-.84-3.48-.84-5.25-.05-11.13-.03-22.26-.53-33.42" fill="#fafbfb"/><path d="m16.16 192.8c-.41.04-.82.08-1.24.12v-.01c-.7-1.05-.46-2.25-.47-3.39-.01-25.71-.01-51.42 0-77.13 0-1.15-.21-2.33.43-3.4 4.71-2.22 9.7-.54 14.54-1.01 2.13-.2 4.29-.06 6.43-.08-.24.44-.48.89-.72 1.34-2.88 1.91-6.13 1.07-9.22 1.11-8.56.11-8.57.04-8.57 8.8 0 21.88.01 43.77-.02 65.65 0 2.46.39 5.01-1.09 7.26-.07.25-.1.5-.08.75z" fill="#e0eeef"/><path d="m14.88 108.98c.01 27.98.02 55.95.04 83.93-1.51-1.3-.97-3.08-.97-4.66-.03-24.86-.03-49.72 0-74.58 0-1.59-.54-3.36.93-4.68z" fill="#fafbfb"/><path d="m181.82 3.93c-27.65.03-55.29.05-82.94.08 1.15-1.36 2.73-.96 4.18-.96 24.85-.02 49.7-.02 74.54 0 1.45 0 3.02-.4 4.22.88z" fill="#f4f8f8"/><path d="m243.65 234.12c-5.61.22-11.23.43-16.84.65-3.24-.14-2.05 2.38-2.18 3.88-.47 5.23.66 10.52-.66 15.72-2.55-2.6-1.27-5.87-1.51-8.86-.2-2.43.05-4.89-.17-7.32-.52-2.18-2.31-1.92-3.89-1.95-3.72-.07-7.43.01-11.15-.05-.51 0-1.02-.02-1.53-.07-.52-.04-1.02-.15-1.51-.31-.5-.18-.92-.47-1.28-.87-.25-.54-.16-1.01.26-1.43.44-.33.92-.56 1.45-.7.81-.21 1.63-.27 2.46-.29 3.46-.06 6.93-.19 10.39 0 3.59.19 5.19-1.16 4.98-4.85-.18-3.12-.07-6.26-.02-9.39.03-1.8-.14-3.66 1.16-5.19.54-.42 1.06-.41 1.57.04 2.05 4.61.91 9.47.94 14.2.02 3.81 1.15 5.23 5.13 5.27 4.13.04 8.6-1.53 12.4 1.52z" fill="#1aa9a6"/><path d="m203.67 26.35c-.03 5.44.04 10.88-.12 16.31-.08 2.8.97 3.64 3.75 3.69 5.37.1 10.79-.8 16.11.53-3.51 2.83-7.63 1.38-11.48 1.53-6.71.27-6.67.11-6.75 6.95-.04 3.46.36 6.95-.37 10.39-.21.56-.55 1.03-1.03 1.41-1.06.02-1.53-.69-1.9-1.52-.9-3.58-.42-7.23-.5-10.85-.13-6.05-.32-6.28-6.56-6.33-2.64-.02-5.29.06-7.93.04-1.44-.01-3.06.35-3.88-1.42 0-.35-.02-.7-.03-1.05.42-.41.89-.73 1.42-.97 4.26-.96 8.6-.57 12.89-.44 3.41.1 4.28-1.26 4.18-4.35-.13-4.13-.45-8.29.32-12.41.2-.56.53-1.03.99-1.4.07-.18.08-.37.03-.56.24.23.52.38.85.46z" fill="#21b1a3"/><path d="m36.57 107.16s-.49-.1-.48-.1c-.08-12.53-.16-25.05-.23-37.57 0-1.02.22-1.96 1.05-2.65.22.24.44.48.66.71.31.58.5 1.19.6 1.83.33 10.96.11 21.92.11 32.88 0 1.78.19 3.73-1.7 4.9z" fill="#b6f6ef"/><path d="m223.66 236.72c.1 5.89.2 11.78.3 17.66-6.35 1.62-12.78.53-19.18.59-1.08-.14-1.41-.6-.68-1.54.44-.32.93-.54 1.46-.68 3.6-.53 7.23-.34 10.84-.25 3.53.09 5.18-1.22 5.03-4.89-.12-2.95-.2-5.92.21-8.88.11-.54.31-1.05.6-1.52.36-.49.84-.66 1.43-.5z" fill="#266b60"/><path d="m53.91 65.98c-.34.25-.67.25-1.01 0" fill="#f8fafa"/><path d="m203.94 253.85c.28.37.57.74.85 1.12-2.26 4.55-.68 9.41-1.09 14.11-.19 2.14-.06 4.3-.07 6.45-.57.08-1.14.17-1.71.25-.39-.42-.58-.91-.59-1.48.25-5.63-.01-11.27.14-16.9 0-.51.04-1.03.08-1.54.02-.5.1-1 .22-1.49.13-.48.34-.92.61-1.34.37-.35.81-.47 1.3-.41.28.22.41.48.4.77-.02.3-.06.46-.14.46z" fill="#299a92"/><path d="m35.79 233.9c.1-.38.2-.76.31-1.15.18-.04.34-.12.49-.22 6.25.11 12.52-.44 18.77.35.79.42 1.75.73 1.27 1.96-.28.06-.55.14-.82.25-5.12-.04-10.24-.07-15.36-.14-1.61-.02-3.35.41-4.64-1.06z" fill="#d0fcf2"/><path d="m78.12 25.09c-.11 5.63-.15 11.26-.37 16.88-.04 1.09.9 2.61-.88 3.29 0-5.25-.04-10.49.04-15.74.02-1.54-.66-3.36 1.2-4.43z" fill="#f2f8f8"/><path d="m57.51 65.89-.36.08c-1.33-6.32-.84-12.66-.27-19.01.32-.25.63-.51.95-.76.04.29.06.59.08.89 2.27 6.32 2.99 12.6-.39 18.8z" fill="#57e7d7"/><path d="m56.87 46.97c.09 6.33.18 12.67.27 19-.11.35-.23.69-.35 1.03-.35.31-.72.31-1.1.05-.22-.41-.15-.77.2-1.07.56-6.33-1.12-12.77.97-19.02z" fill="#e0eeef"/><path d="m55.9 65.98v.91c-6.24 2.55-12.54 2.02-18.87.37 0 0-.12-.44-.12-.44 5.25-1.84 10.68-.34 16-.85h1.01 1.99z" fill="#e7f0f1"/><path d="m73.89 45h1c.4.09.8.18 1.21.28-6.02 1.48-12.12.46-18.18.6 5.23-1.91 10.66-.34 15.97-.88z" fill="#e0eeef"/><path d="m37 112.93c-.07-1.02-.14-2.04-.2-3.06.65-.49 1.33-.59 2.05-.15 5.67.1 11.33.2 17 .31 1.71 1.75 1.43 3.99 1.44 6.12.05 10.8-.03 21.6.06 32.4.13 1.11-.34 2.34.61 3.3 1.32.02 2.63.05 3.95.07 3.85-1.03 7.78-.2 11.67-.47 1.35.22 3.15-.69 3.75 1.46.08 5.34.04 10.68.02 16.02-.02.62-.27 1.13-.75 1.52-4.26 1.61-8.7.55-13.05.83-1.94.13-3.91-.15-5.82.42-.56.2-1.13.32-1.71.41-5.92-.02-11.87.95-17.74-.61-.53-.4-.8-.92-.84-1.58-.04-17.2 0-34.41-.04-51.61 0-1.79.4-3.64-.41-5.38z" fill="#fdfefe"/><path d="m57.78 192.98 1.13-.07c1.07 5.86.17 11.75.56 17.62-.4-5.87.58-11.76-.56-17.62-.4-.37-.81-.75-1.21-1.12-2.4-5.66-1.74-11.31.08-16.95 1.44-.14 1.58.85 1.59 1.89.05 3.61.02 7.22.04 10.84.01-3.35.14-6.71-.02-10.06-.14-3.06 1.21-4.17 4.14-4.09 3.71.11 7.43.02 11.15.04-5.55-.26-11.11.33-16.67-.29-.39-.55-.36-1.08.07-1.59 6.59-1.4 13.25-.32 19.86-.6.27-.03.55-.06.82-.08 6.24-.55 12.48-.47 18.72-.05.58.16 1.11.42 1.58.79.4.47.68.99.86 1.57.16.58.25 1.18.28 1.78.11 4.14.08 8.27.04 12.41-.02 2.17-.07 4.34-1.97 5.89-4.38 1.96-9.03.75-13.55 1.05-2.14.14-4.37-.13-5.18 2.57-.53 3.64-.08 7.29-.28 10.92-.11 1.92.32 4.08-1.89 5.26-2.18-5.65-.32-11.42-1.02-16.74.08 5-.06 10.39.1 15.79.31.46.54.95.69 1.47-.3.49-.73.79-1.28.91-5.56.19-11.12 1.14-16.71.24-.9-.22-1.65-.65-2.05-1.53-.62-6.78-1.7-13.58.68-20.25z" fill="#4becda"/><path d="m99.91 151.04c0-.7.02-1.39.02-2.09.98-.73 2.24.19 3.27-.54-2.36-.4-2.29-2.21-2.3-3.87-.05-9.77-.04-19.55-.01-29.32 0-2.21.58-4.18 3.18-4.13 10.76.22 21.51-.97 32.26-.23.5.03.93.33 1.36.56 2.75 4.44 1.63 9.23 1.09 13.91-.23 1.93-1.83 2.57-3.68 2.59-2.72.03-5.43 0-7.42.02 3.59.78 8.14-1.32 12.33 1.09-.9 2.77-3.31 2.09-5.3 2.27-4.03.38-8.15-.64-12.11.71-1.7 1.36-1.33 3.27-1.36 5.05-.05 3.14.03 6.28-.07 9.41-.12 3.83-2.1 5.67-5.91 5.8-4.12.13-8.26-.28-12.37.33-.87.16-1.73.15-2.56-.19-.6-.32-.75-.78-.44-1.39z" fill="#4becda"/><path d="m181.69 27.05c.04 12.97.08 25.95.12 38.92-.69.75-.42 2.18-1.77 2.47-.55.08-1.1.08-1.65 0-3.9-.18-7.79-.02-11.69-.1-1.78-.04-3.6.03-5.06-1.3-1.82-2.68-1.21-5.74-1.24-8.66-.09-9.89-.05-9.87-10.14-9.92-2.79-.01-5.62.32-8.37-.57-.57-.25-1-.64-1.3-1.18.01-.65.31-1.13.89-1.43 4.07-1.28 8.25-.54 12.38-.64 6.51-.15 6.41-.12 6.65-6.82.14-3.7-1.22-7.67 1.4-11.08 6.6-.15 13.2-.72 19.77.3z" fill="#d3fef4"/><path d="m59.85 108.91c-.3 0-.6-.03-.89-.07-1.21-8.99-.37-18.03-.47-27.04-.05-4.55-.77-9.16.52-13.68 4.83-.03 9.65.02 14.48-.11 2.84-.08 4.39.82 4.37 3.93-.06 10.82.02 21.64-.05 32.45-.01 1.94-.15 4.12-2.85 4.51-5.03-.73-10.07-.74-15.1 0z" fill="#fdfefe"/><path d="m99.91 88.03c0-5.68 0-11.35 0-17.03 1.61-.8 3.1-1.96 5.01-1.94 10.85.11 21.72-.53 32.56.33 2.3 1.83 1.44 4.45 1.73 6.8.36 2.99-1.01 6.2 1.17 8.95.44.36.74.81.94 1.34.09.59 0 1.15-.29 1.68-.45.42-.97.72-1.56.92-12.12 1.14-24.26.06-36.39.21-1.2.02-2.27-.45-3.18-1.25z" fill="#a1fae7"/><path d="m76.89 149.89c-.34 0-.67.02-1.01.03-4.57-1.07-9.22-.45-13.81-.41-3.28.03-4.5-1.33-4.52-4.36-.08-10.1-.06-20.21-.01-30.31.02-3.41 1.58-4.86 4.96-4.31 3.11.81 6.29.53 9.42.4 3.95-.17 5.26 1.7 5.38 5.35.26 7.97-.66 15.92-.4 23.89.03.83.06 1.66.25 2.47.2 2.43.68 4.86-.26 7.25z" fill="#4becda"/><path d="m99.05 24.04c.05-5.15.21-10.3.11-15.44-.05-2.82 1-3.69 3.81-3.68 25.26.09 50.51.09 75.77 0 2.82-.01 3.87.86 3.81 3.68-.1 5.15.06 10.3.11 15.45-1.24 1.5-2.97 1.25-4.61 1.24-24.76 0-49.51 0-74.27-.06-1.37 0-3.07.68-3.99-1.12 1-.87 2.22-.56 3.35-.56 24.28-.02 48.57-.01 72.85-.02.75 0 1.49-.03 1.49-.03-24.82 0-50.35 0-75.87 0-.69 0-1.31.12-1.85.57-.24 0-.48-.01-.72-.04z" fill="#16757d"/><path d="m99.91 88.03c13.63-.03 27.25-.05 40.88-.08.65-.31 1.13-.13 1.42.53-.07 5.93 1.03 11.92-.96 17.75-3.3 2.33-7.05.86-10.59 1.19-2.05.19-4.13.02-6.02.04-.35.93-.4.49-.02.42 5.33-1.09 10.8.33 16.14-.85 4.38-1.1 8.83-.44 13.25-.56 6.02-.16 6.17-.33 6.34-6.53.1-3.57-.75-7.25 1.05-10.66 2.39-1.25 3.36.74 3.33 2.16-.11 6.04.65 12.17-1.37 18.07-2.88 2.61-6.45 1.64-9.79 1.81-3.08.15-6.17.19-9.26.01-.57 0-1.14-.03-1.72-.06-.85-.04-1.69-.14-2.52-.32-.55-.09-1.09-.24-1.62-.43-3.48-.4-6.97-.12-10.45-.2-1.83-.04-3.68.03-5.15-1.36-6.24 0-12.49.05-18.73-.05-1.6-.02-3.86.9-4.25-1.95 4.24-1.18 8.57-.35 12.84-.4 3.9-.04 5.77-1.33 5.72-5.5-.14-12.12.84-10.46-10.2-10.66-2.79-.05-5.63.69-8.37-.43 0-.65.02-1.3.03-1.95z" fill="#d3fef4"/><path d="m179.83 68c.66-.68 1.32-1.35 1.98-2.03.02 7.65.05 15.31.07 22.96-.24.15-.49.31-.73.46-.29.04-.57.07-.86.11-.29-.01-.58-.03-.86-.05-6-.62-12.22 1.37-18.01-1.61-1.64-6.7-1.32-13.42-.23-20.15.21-.23.43-.46.64-.69 5.98.59 12.1-1.2 18 .99-1.58 2.71-4.18 1.17-6.31 1.43-1.83.22-3.71.09-5.56.03 3.1.15 6.22-.25 9.28.21 1.63.25 1.98-.75 2.6-1.67z" fill="#a2fae7"/><path d="m140.82 47.05c5.62-.01 11.25.04 16.87-.06 2.95-.05 4.21 1.2 4.16 4.15-.09 5.29-.02 10.59-.02 15.88 0 0 .03-.03.03-.03-2.39 2.04-5.28 1.32-7.99 1.36-4.08.06-8.16.15-12.24.02-.27-.14-.53-.27-.8-.41-.02-.35-.03-.7-.05-1.05-2.05-6.62-2.16-13.24.04-19.85z" fill="#a1fae6"/><path d="m98.81 114.02v11.88c-1.08 1.42.42 3.72-1.63 4.82-6.13.85-12.27 2.03-18.24-.81l-.07.05c-2.61-5.92-1.37-12.08-.94-18.13.18-2.56 2.83-3.02 5.02-3.18 3.16-.23 6.33.05 9.49-.12 3.97-.21 6.42 1.12 6.36 5.48z" fill="#f5fdfc"/><path d="m78.95 129.91c6.31.02 12.63.03 18.94.05.76 6.65.81 13.3-.03 19.95-5.11.01-10.22-.08-15.33.09-2.83.09-3.76-1.03-3.69-3.77.16-5.43.09-10.88.11-16.31z" fill="#d3fef4"/><path d="m99.88 89.98c5.8-2.04 11.78-.61 17.67-.93 1.68-.09 2.3 1.01 2.3 2.55 0 4.46.03 8.93-.03 13.39-.02 1.73-1.03 2.94-2.76 2.87-5.73-.24-11.54 1.12-17.17-.89 0-5.66 0-11.32 0-16.98z" fill="#fbfefe"/><path d="m183.02 47.08c5.28-.02 10.57.11 15.85-.1 3.11-.12 4.09 1.07 3.97 4.07-.19 4.99-.08 9.98-.09 14.98-.29.85-.81 1.49-1.66 1.83-5.53 1.04-11.15.33-16.71.91-.56-.16-1.03-.46-1.41-.89.02-6.93.04-13.86.06-20.78z" fill="#20c5b4"/><path d="m57.51 65.89c.13-6.27.26-12.53.39-18.8 5.48-.06 10.97-.04 16.45-.21 2.43-.08 3.72.51 3.63 3.27-.15 4.65-.01 9.31-.03 13.96 0 1.14.16 2.8-1.38 2.74-6.36-.24-12.83 1.56-19.07-.98z" fill="#16757d"/><path d="m38.85 109.73c-.68.05-1.37.1-2.05.15-.08-.91-.15-1.81-.23-2.72.06-11.3.11-22.6.2-33.9.02-1.81.24-3.63.38-5.44.65-.06 1.12.21 1.41.8.87 10.37-.01 20.78.36 28.78.02-7.36-.03-17.1.04-26.85 0-1 .13-1.99.91-2.75 4.96-.52 9.93-.33 14.89-.11 1.34 1.26 1.21 2.73.58 4.26-1.7 2.32-4.19 1.56-6.44 1.58-6.05.05-6.43.37-6.47 6.55-.03 6.16 0 12.32 0 18.48 0 2.85.69 4.83 4.13 4.88 3.39.05 4.83-1.4 4.86-4.75.03-3.99-.32-8 .33-11.96.18-1.06.35-2.59 1.87-2.43 1.07.11 1.43 1.41 1.45 2.38.14 6.29.91 12.61-.46 18.86-3.84 3.1-8.34.46-11.54 1.39-1.55.06-.74.9-.96.27-.04-.1.12-.2.45-.17 4.71.39 9.54-1.13 14.13.92-3.14 1.94-6.59.39-9.86.89-2.64.4-5.48-.94-7.97.89z" fill="#19767f"/><path d="m137.86 111.96c-10.12 0-20.26.27-30.36-.12-4.79-.18-5.87 1.51-5.7 5.93.32 8.28.19 16.59.04 24.89-.07 3.65.19 6.55 5.39 5.56-2.66.45-4.82 2.19-7.28.72-.01-11.4.11-22.81-.11-34.21-.07-3.6.82-5.03 4.67-4.84 6.1.3 12.23.05 18.34.04 5.66-.73 11.33-.8 16.99.05l.1-.08c.34.42.46.89.35 1.42-.58 1.09-1.34 1.47-2.42.63z" fill="#41e9d4"/><path d="m78.87 43.01c-.06-4.49-.06-8.98-.21-13.47-.08-2.4.5-3.73 3.3-3.63 4.66.17 9.32.1 13.98 0 2.15-.04 2.98.81 2.94 2.94-.08 4.83-.02 9.66-.03 14.48 0 1.17.04 2.74-1.5 2.66-6.16-.29-12.44 1.5-18.47-1 4.42-2.02 9.09-.78 13.63-.91 3.15-.09 4.54-.8 4.05-4.26-.39-2.75-.13-5.6-.05-8.4.11-1.37.71-2.96-1.45-3.36-2.22-.13-4.44-.02-6.31-.06 2.12.58 4.99-1.11 7.15 1.34-1.65 3.02-4.58 1.91-7.01 2.02-2.94.13-4.62.98-4.64 4.28-.02 3.19.97 4.94 4.47 4.99 2.51.04 5.36-.75 7.31 1.81-.05.63-.37 1.06-.96 1.29-5.42.02-10.89 1.27-16.21-.73z" fill="#1a767f"/><path d="m140.82 85.98c-.32 0-.64 0-.96 0-1.85-2.47-.65-5.32-.99-7.98-.34-2.67.79-5.52-1.01-8.01-9.28 0-18.56-.06-27.84.03-2.98.03-6.33-1.06-8.57 2.12-.51-.38-1.02-.76-1.53-1.14-.31-3.49 2.18-2.99 4.29-2.99 12.21-.03 24.41-.04 36.62-.06 0 0 .05.07.05.07 2.13 6 2.26 11.99-.06 17.97z" fill="#a4fdeb"/><path d="m161.84 27.03c0 5.11-.1 10.22.05 15.32.08 2.82-1.05 3.75-3.78 3.69-5.76-.12-11.53-.01-17.3 0-1.47 1.36-3.3 1.35-5.12 1.36-10.22.03-20.45.04-30.67 0-1.82 0-3.66-.03-5.04-1.53 0-6.27 0-12.54-.01-18.81.65-.3 1.16-.14 1.53.47 1.53 3.49.86 7.19.88 10.79.02 3.47 1.25 5.17 4.93 5.16 15.74-.04 31.48-.02 47.22-.01 3.33 0 4.74-1.41 4.81-4.76.08-3.77-.71-7.64.94-11.28.4-.59.92-.72 1.56-.4z" fill="#f4f8f8"/><path d="m140.82 47.05c-.01 6.62-.03 13.24-.04 19.85-13.3.03-26.61.05-39.91.08-.32-.64-.19-1.15.4-1.55.52-.32 1.08-.54 1.68-.67 9.8-.61 19.62-.12 29.44-.29 5.55-.1 5.86-.42 5.94-6.01.13-8.9.13-8.81-8.58-8.94-8.81-.13-17.63.55-26.43-.41-.61-.2-1.13-.54-1.57-1-.22-.71.02-1.21.7-1.51 11.85-.16 23.69-.03 35.54-.06.97 0 1.99-.17 2.84.51z" fill="#56ebd9"/><path d="m98.89 171.94c-5.15-.01-10.3 0-15.46-.05-1.61-.02-3.37.47-4.69-1 .04-5.32.25-10.65.04-15.96-.13-3.16 1.04-4.04 4.03-3.92 4.98.21 9.97.08 14.96.09.31.26.4.49.27.71-.12.21-.24.32-.35.31-.51.49-1.01.99-1.7 1.24-.45.12-.92.16-1.38.13-.23-.03-.45-.06-.68-.09-3.3-.24-6.61-.7-9.86.36-.34.24-.7.44-1.08.61-.55.19-1.11.23-1.67.11-.48 4.48-.06 8.95-.15 13.37.43.51.85.14 1.29-.04.64-.28 1.23-.16 1.82.13.45.24.85.56 1.3.73 8.06 3 10.96 1.04 10.91-7.31 0-1.32-.1-2.64-.03-3.97.14-2.05-.14-4.23 1.84-5.67.42.26 1.02.42 1.11.93 1.14 6.46 1.88 12.92-.54 19.28z" fill="#22c4b2"/><path d="m98.89 171.94c-.7-6.64 1.13-13.41-.98-19.99l-.04-.04c0-.27-.03-.54-.08-.8.71-.02 1.42-.05 2.12-.07-.02.24-.03.49-.06.73 2.58 3.58 1.38 7.7 1.56 11.6.26 5.48.52 5.94 6.05 5.97 15.1.07 30.2 0 45.3.04 2.48 0 4.98-.21 7.43.5.63.22 1.16.58 1.6 1.07.31.7.13 1.25-.54 1.63-1.87.96-3.89.75-5.87.75-16.63.03-33.26.03-49.88 0-2.3 0-4.71.33-6.65-1.42l.04.04z" fill="#57edd9"/><path d="m100.88 27.04h-.46s-.46.01-.46.01c1.09-1.53 2.72-.97 4.14-.97 24.64-.01 49.27 0 73.91.05 1.27 0 2.71-.44 3.67.91-6.62 0-13.24-.01-19.85-.02-.33 0-.66 0-1 .02-1.92 1.7-4.3 1.58-6.6 1.58-15.58.04-31.17.04-46.75 0-2.31 0-4.69.12-6.61-1.58z" fill="#cff6f3"/><path d="m56.68 107.95h-18.23c0-.44.01-.88.02-1.32 5.09-1.05 10.29-.52 15.44-.66.38-.42.66-.9.85-1.44.76-10.56-.62-21.12.05-31.68.03-.29.06-.57.08-.86 0-1.31.02-2.63.03-3.94.53-.66 1.16-.58 1.82-.24.37 13.38.46 26.75-.06 40.13z" fill="#0a636c"/><path d="m62.9 110.97c-2.98-.38-4.1.81-4.05 3.91.16 9.97.17 19.95 0 29.92-.06 3.37 1.23 4.15 4.37 4.23 4.22.11 8.58-1.2 12.67.88-5.97-.02-11.94-.04-17.9-.06-1.03-1.05-1.05-2.39-1.06-3.73-.03-10.8-.03-21.6 0-32.41 0-1.34.06-2.67 1.04-3.74 5.64.02 11.28.03 16.92.05-.51 2.6-2.58 1.33-3.88 1.35-2.7.03-5.45.58-8.1-.41z" fill="#4fead7"/><path d="m79.85 108.01c-1.07-.84-.94-2.04-.94-3.19 0-10.95.08-21.89-.06-32.84-.04-3.01.89-4.33 3.97-3.98 5.04.57 10.21-1.05 15.16.93-.21.22-.42.43-.63.65-3.66 1.51-7.51.8-11.26.74-3.72-.06-4.91 1.4-4.85 4.98.15 8.58.07 17.17.03 25.76-.01 2.12.31 4.31-.77 6.32-.21.22-.43.43-.65.64z" fill="#57e7d7"/><path d="m62.9 110.97c3.98-.48 8.12 1.02 11.98-.94.66.02 1.32.05 1.98.07 2.09 4.41 1.02 9.11.92 13.64-.15 6.39.02 12.82-.9 19.19-2.05-3.89-.71-8.06-.92-12.08-.25-4.78-.23-9.58 0-14.36.16-3.39-.89-4.71-4.44-4.62-2.84.07-5.93 1.13-8.61-.89z" fill="#3fe6d1"/><path d="m98.81 114.02c-.79-3.43-2.98-4.17-6.36-4.14-13.5.14-13.5.01-13.53 13.67 0 2.14-.03 4.28-.05 6.42-.32 0-.64-.02-.96-.03-.91-6.62-.69-13.25-.11-19.88.45-.89 1.3-1.07 2.17-1.19 5.94-2.06 11.88-2.11 17.82.01 1.76 1.43.95 3.37 1.01 5.14z" fill="#b6f6ef"/><path d="m79.03 65.98c-.05-5.09.02-10.19-.18-15.28-.11-2.81.95-3.77 3.72-3.65 4.76.21 9.53.14 14.29.19.24.58.1 1.03-.44 1.35-1.19.66-2.5.7-3.8.77-.99.05-1.99.08-2.97 0-3.2-.26-5.61.39-5.68 4.31-.02.97-.49 2.31-1.56 2.23-1.41-.11-1.42-1.58-1.52-2.74-.06 4.21 1.27 8.5-.58 12.64-.38.41-.81.46-1.29.19z" fill="#f2f8f8"/><path d="m57.96 109.98c0 13.29.01 26.59.02 39.88 0 .66-.01 1.33-.02 1.99-.93-.31-1.04-1.1-1.15-1.91-.61-13.32-.76-26.63.08-39.95.36 0 .71-.01 1.07-.02z" fill="#b6f6ef"/><path d="m182.96 67.86c.29.05.58.09.87.14 1.05 1.16 1.47 2.58 1.47 4.09 0 11.67.52 23.35-.27 35.02-.18.63-.48 1.2-.91 1.7-.64.37-1.21.27-1.7-.28-1.42-6.53-1.96-13.05.35-19.52.06-7.05.13-14.09.19-21.14z" fill="#57ebda"/><path d="m59 68.13c-.02 13.57-.03 27.14-.05 40.72-1.07-.57-1.02-1.6-1.02-2.58 0-11.87 0-23.74 0-35.6 0-.98-.04-2.01 1.07-2.54z" fill="#e0eeef"/><path d="m140.82 47.04c-12.99.02-25.97.04-38.96.06-.66.51-1.32.5-1.96-.03.03-.4.05-.8.08-1.2 13.61.06 27.22.11 40.84.17z" fill="#a1fae6"/><path d="m56.89 110c-.03 13.32-.05 26.63-.08 39.95-1.49-1.53-.86-3.45-.88-5.2-.07-11.57-.07-23.14-.09-34.71.35-.01.69-.02 1.04-.03z" fill="#e0eeef"/><path d="m183.83 45.99c-.28 0-.56 0-.84.03-.06-5.64-.1-11.27-.2-16.91-.03-1.89.31-3.3 2.66-3.16 5.77.33 11.58-.59 17.34.5-.09.2-.16.4-.22.6-3.77 2.54-8.01.83-12.01 1.34-1.99.25-4.5-.67-5.22 2.38-.48 4.58.36 9.2-.55 13.76-.26.53-.58 1.02-.97 1.47z" fill="#18757e"/><path d="m77.81 110.06c.04 6.63.07 13.25.11 19.88-.02 5.11 0 10.22-.1 15.33-.03 1.57.63 3.34-.93 4.63 0-2.32 0-4.64-.01-6.96 0-10.94-.01-21.89-.02-32.83.31-.05.63-.07.95-.04z" fill="#4fead7"/><path d="m79.03 65.98c.29 0 .58 0 .86-.01 2.69-2.12 5.87-1.28 8.88-1.46 2.09-.12 4.2.2 6.22-.55 1.99-1.13 1.43-3.07 1.52-4.79.19-3.72-.38-7.46.38-11.16 0-.26-.01-.52-.02-.77.9-.02 1.84.24 1.86 1.2.1 5.48.09 10.96.08 16.44 0 1.1-.58 2.08-1.74 2.03-6.01-.29-12.13 1.3-18.04-.92z" fill="#d1fefa"/><path d="m97.98 68.92c1.27 1.19.89 2.76.89 4.2 0 10.39-.04 20.78-.09 31.18 0 1.29.3 2.68-.9 3.69-.21-.23-.43-.46-.65-.68-1.54-5.32-.56-10.75-.73-16.13-.17-5.41-.05-10.83-.03-16.25.01-1.2 0-2.4.19-3.59.14-.91.63-1.64 1.2-2.33l.11-.08z" fill="#57e7d7"/><path d="m97.8 30.04c-.14 4.73 1.98 10.71-.81 13.84-2.88 3.23-8.99.75-13.67 1.11-1.47.11-2.95.02-4.43.02 0-.34 0-.67-.01-1.01 5.61-1.34 11.4.42 17-.99-.07-4.21-1.33-8.46.51-12.59.34-.59.81-.72 1.41-.38z" fill="#05636c"/><path d="m97.85 149.91c.01-6.65.02-13.3.03-19.95.17-1.38-.36-2.93.93-4.06.02 6.79.05 13.58.05 20.37 0 1.29.31 2.7-1.01 3.63z" fill="#b6f6ef"/><path d="m99.9 47.07c.65.01 1.31.02 1.96.03 0 .3.01.6.02.9.17 6.03 1.61 12.12-1 17.99 0 .33 0 .65-.01.98-2.25-6.54-.39-13.28-.97-19.91z" fill="#50e4d0"/><path d="m77.93 170.97c-4.54 2.17-9.35.58-14.02 1-1.96.18-3.95.06-5.93.07-.43-.58-.35-1.08.24-1.49 6.21-.56 12.49.57 18.68-.62.23-.4.5-.46.84-.13l.19 1.16z" fill="#b6f6ef"/><path d="m182.77 89c.04 6.66.08 13.33.13 19.99-.3 0-.6.01-.9.02-.51-.36-.87-.83-1.11-1.4-.28-6.23-1.66-12.52.92-18.61 0 0 .07-.07.07-.07.3.03.6.05.89.06z" fill="#a2fae7"/><path d="m97.8 108.88c-5.94 0-11.88 0-17.82-.01-.05-.29-.09-.58-.13-.86 0 0 .09-.09.09-.09 1.05-1.14 2.33-2.04 3.9-1.65 4.6 1.13 9.58-1.05 13.98 1.65 0 0 .07.07.07.08-.02.3-.05.6-.09.9z" fill="#57e7d7"/><path d="m56.74 67.82c-.61.08-1.21.16-1.82.24-5.01 0-10.01 0-15.02 0-.65.53-1.3.54-1.97.03-.27-.07-.53-.16-.78-.27-.11-.17-.15-.35-.12-.55 6.29-.12 12.58-.25 18.87-.37.29.11.59.14.9.11.06.28.04.55-.05.82z" fill="#57e7d7"/><path d="m77.74 169.81c-.27.08-.55.12-.84.13 0-5.67 0-11.35 0-17.02.37-.48.64-.41.84.14v16.76z" fill="#e8faf9"/><path d="m139.83 109.99c-5.66-.02-11.32-.03-16.98-.05.01-.32.02-.65.02-.97 5.64.54 11.43-1.3 16.97 1.03z" fill="#6decdc"/><path d="m95.88 43.01c-5.56 2.18-11.34.46-17 .99 0-.33 0-.66 0-.99h17.01z" fill="#127279"/><path d="m59.85 108.91c5.03-1.52 10.07-1.5 15.1 0-5.03 0-10.07 0-15.1 0z" fill="#b6f6ef"/><path d="m73.89 151.91c-3.99 0-7.99 0-11.98.01 3.84-1.99 7.96-.47 11.92-.92.36.18.49.37.39.58-.11.22-.21.33-.33.33z" fill="#e0eeef"/><path d="m73.89 151.91c0-.3-.02-.61-.06-.91 1.58.16 3.82-.94 3.91 2.06-.28-.08-.56-.12-.84-.14-.72-1.2-1.92-.95-3.01-1.01z" fill="#b6f6ef"/><path d="m265.56 191.92c-4.97 1.74-10.11.73-15.14.68-3.86-.04-5.21.89-5.1 4.95.28 10.12.11 20.26.07 30.38 0 1.63.4 3.32-.47 4.88-1.92-1.64-1.47-3.91-1.5-6-.14-10.22.15-20.45-.17-30.66-.14-.51-.36-1-.68-1.44-.36-.38-.76-.73-1.2-1.02-4.77-1.44-9.94.87-14.6-1.53-.54-.77-.53-1.55-.02-2.33 2.43-1.95 5.34-1.27 8.07-1.34 6.38-.16 6.5-.25 6.56-6.79.03-3.3.13-6.6-1.75-9.55-.29-1.71 1.27-2.41 1.93-3.62 1.14-1.83.81-3.86.81-5.83.02-15.41-.01-30.82.04-46.23 0-2.27-.45-4.69 1.34-6.63 3.25 1.12 2.38 3.96 2.4 6.22.1 18.03.05 36.06.06 54.08.39 6.48-.98 13.04.77 19.46 1.51 1.4 3.38.75 5.12.91 3.24.03 6.48-.02 9.71.05.83.01 1.64.12 2.42.39.5.23.94.55 1.33.95z" fill="#209299"/><path d="m265.56 191.92c-.27-.05-.54-.11-.81-.17-1.89-2.08-1.48-4.71-1.49-7.12-.06-21.9-.19-43.81.04-65.71.08-7.44.14-7.53-7.27-7.55-1.66 0-3.32 0-4.97.02-1.13.06-2.3.02-3.01 1.16-1.22 1.81-.82 3.85-.83 5.81-.03 15.07 0 30.14-.03 45.21 0 2.3.34 4.65-.74 6.84-.37.62-.91.81-1.59.6-.02-18.62-.02-37.24-.09-55.87 0-1.74.69-3.7-.98-5.16-.69.56-1.44 1.02-2.34 1.18-.59.1-1.19.15-1.78.16-3.64.03-7.29.19-10.92-.08-1.57-.12-3.93.41-3.9-2.48 6.62-2.38 13.41-.91 20.13-.9.27.06.54.11.81.13 5.42 2.05 11.05.64 16.57.88 2.79.12 3.8.94 3.79 3.76-.08 25.8-.05 51.6-.08 77.4 0 .63-.33 1.26-.5 1.89z" fill="#1d9189"/><path d="m242.83 192.88c.3.35.6.71.9 1.06-1.43 2.28-.89 4.82-.9 7.27-.06 8.1-.02 16.2-.02 24.3.01-8.59-.01-17.17.02-25.76 0-1.96-.32-4 .99-5.75 1.58 1.5.83 3.43.85 5.16.15 11.22.19 22.45.27 33.67-.02.82-.49 1.21-1.27 1.3-5.14-.1-10.28-.33-15.41-.26-2.63.04-3.5-.93-3.46-3.48.1-5.81-.01-11.62-.04-17.43-.28-.63-.09-1.04.57-1.24.9.31 1.29 1.04 1.56 1.87.93 5.96-.24 11.94.2 17.9 3.09.84 6.25.16 8.91.38-2.8-.56-6.31 1.06-9.42-1.06-.15-.55-.04-1.02.33-1.45 2.36-1.98 5.13-.86 7.7-.92 2.97-.07 4.79-.95 4.72-4.27-.19-9.13.49-18.28-.41-27.38-2.89-3.11-6.74-.71-9.99-1.74-.56-.12-1.07-.33-1.56-.64-.6-.69-1.24-1.39.13-1.94 5.11.17 10.25-.55 15.34.41z" fill="#1a6358"/><path d="m201.87 274.87c-.03.31 0 .61.05.91-40.24.05-80.49.11-120.73.16-.96 0-2.04.25-2.53-.99-.55-5.43-.13-10.88-.22-16.31 1.69-2.32 3.44-1.95 5.23-.12 1.04 2.38.76 4.91.82 7.39.06 2.87 1.39 4.28 4.26 4.32 1.5.02 3 .06 4.5.06 31.65 0 63.29-.01 94.94.01 9.66 0 9.19-.47 9.2-8.6 0-.83.2-1.65.48-2.43 3.34-3.33 3.36-.13 3.31 1.9-.1 4.6.26 9.15.69 13.71z" fill="#1b6559"/><path d="m57.78 192.98c.1 6.97.21 13.93.31 20.9 2.15 3.48.87 7.34 1.19 11.02.19 2.1-.25 4.25.45 6.31 1.65 2.01 3.94 1.05 5.96 1.28 3.99.45 8.16-1.01 11.99 1.17.42.52.42 1.04 0 1.56-3.51 1.91-7.31.72-10.97 1.04-2.08.18-4.22-.31-6.23.54-2.04 2.84-.8 6.07-1.12 9.11-.29 2.71.74 5.67-1.6 7.97-1.58-6.27.55-12.76-1.14-19.03-.21-.32-.42-.64-.63-.96-1.36-3.36-.55-6.86-.56-10.28-.04-9.07-.26-18.15.11-27.22.04-.61.16-1.21.33-1.8.24-.57.58-1.08 1.01-1.52.3-.06.6-.09.9-.09z" fill="#20948d"/><path d="m79.09 257.84c-.14 5.7-.29 11.4-.44 17.1-1.3-6.58.08-13.26-.78-19.86-.35-.5-.66-1.01-.95-1.55-.75-5.37-1.02-10.74.23-16.08.26-.52.69-.86 1.26-1.01 3.42.54 2.45 3.37 2.81 5.49.62 3.68-1.33 7.67 1.36 11.08.33.34.53.76.64 1.22-.28 1.6-1.94 1.52-2.86 2.34-.4.44-.81.89-1.27 1.27z" fill="#1e8e97"/><path d="m77.77 253.86c.03.41.07.82.1 1.23-6.32-.1-12.64-.2-18.96-.3.88-6.01-.71-12.29 1.96-18.1.54-.16 1.02-.04 1.42.37 1.55 2.58.97 5.46 1.01 8.22.05 2.91 1.3 4.14 4.2 4.2 2.54.05 5.34-.62 7.54 1.85-2.06 2.65-4.96 1-6.93 1.53 2.91.69 6.48-1.21 9.66 1z" fill="#1a6356"/><path d="m60.9 236.88c-.32 6.01.72 12.17-1.99 17.91-.76.17-1.09-.2-1.16-.91.09-4.76.13-9.51.29-14.26.05-1.56-.7-3.32.86-4.61.28.24.57.47.86.69.5.28.9.65 1.13 1.19z" fill="#166054"/><path d="m16.23 192.05c-.14-3.14-.39-6.29-.4-9.43-.03-22.81.06-45.61-.09-68.42-.02-3.73.67-5.49 4.89-5.13 4.79.41 9.65.13 14.48.16-.11.2-.17.42-.18.65-.08 25.23 0 50.45-.06 75.68 0 2.11.51 4.35-.93 6.26-5.34.01-10.69.03-16.03.04-.8-2.64.02-5.28.02-7.92-.03-21.97-.02-43.94-.01-65.91 0-1.83-.14-3.64-.24-5.45-.02 25.76.75 51.54-.2 77.3-.03.68-.18 1.31-.56 1.88-.25.06-.49.16-.71.29z" fill="#17757e"/><path d="m57.93 170.96c.01.36.03.72.04 1.08-.03.29-.02.59.04.88.48.7.52 1.37-.14 2-.06 5.63-.12 11.25-.18 16.88-6.26.03-12.52.06-18.77.09-.17-.94.3-1.36 1.17-1.45 3.48-.89 7-.42 10.2-.44-3.41-.33-7.14.17-10.87-.11-1.01-.81-1.38-1.89-1.15-3.1.92-4.76-.55-9.54.14-14.3 2.84-2.12 6.09-.62 9.14-1 3.1-.39 6.29.55 9.36-.54.36-.37.7-.36 1.03.03z" fill="#d0fcf2"/><path d="m56.77 194.88c.03 11.4.05 22.8.12 34.21.01 1.69-.21 3.28-.9 4.81-5.4.08-10.81.15-16.21.24-1.35.02-2.68.04-3.2-1.59.17-12.9.34-25.79.51-38.69.51-.2 1.03-.22 1.55-.05 6.02.7 12.19-.94 18.14 1.08z" fill="#186255"/><path d="m16.94 191.76v-81.13c.42-.02.85-.05 1.27-.07.24 2.88.67 5.76.68 8.63.06 21.14.07 42.28-.01 63.41-.01 3.09-.62 6.17-.95 9.26-.33-.04-.66-.07-.99-.11z" fill="#13737b"/><path d="m33.96 191.82c-.02-25.76-.04-51.51-.03-77.27 0-1.6-.5-3.37 1.02-4.67 0 0 .04.08.04.08.53.92.41 1.93.41 2.91v75.58c0 1.14.27 2.34-.52 3.36l-.46.09z" fill="#06646f"/><path d="m34.87 191.82c.04-27.29.08-54.57.11-81.86 1.68 1.01 1.02 2.68 1.02 4.06.05 24.45.06 48.9 0 73.35 0 1.49.88 3.39-1.14 4.44z" fill="#17757e"/><path d="m37 112.93c1.49 1.53.88 3.46.88 5.22.04 17.59.02 35.18.02 52.78-.28.31-.57.34-.89.06 0-19.35 0-38.7 0-58.05z" fill="#e2eeef"/><path d="m38.91 172.92c2.01 5.56.2 11.35 1.01 16.98.34.23.46.45.34.67-.11.22-.23.33-.35.33-.33.32-.66.65-.99.97-.33-.02-.66-.04-.99-.06-1.11-6.09-.27-12.22-.43-18.33.26-.7.73-.89 1.41-.56z" fill="#e1fefb"/><path d="m37.96 172.92c0 6.3-.02 12.6-.03 18.9-2.21-3.99-.61-8.29-.96-12.44-.24-2.78.01-5.6.04-8.4.3-.04.59-.06.89-.06h.02c.59.65.57 1.32.04 2z" fill="#d0fcf2"/><path d="m37.97 193.93c-.3-.01-.59-.04-.89-.08 6.52-2.18 13.19-.79 19.8-.77-.03.32-.06.65-.11.97-6.27.54-12.54.68-18.8-.11z" fill="#17786c"/><path d="m244.45 67.94c1.42 7.53.37 15.13.58 22.7.15 5.45-.12 10.9-.2 16.35-1.11.98-2.34 1.65-3.9 1.32-.85-.44-1.53-1.12-2.35-1.6-3.44-1-6.93-.1-10.39-.33-.51-.21-.88-.56-1.1-1.07-.49-9.09-.36-18.18-.1-27.21-.38 3.94-.08 7.83-.18 11.72-.37 6 .78 12.04-.65 17.98-.53.51-1.09.53-1.66.06-2.23-6.19-.55-12.6-1.1-18.88.09-6.03-.11-12.05.11-18.08.24-1.97.9-3.51 3.3-3.41 5.88.24 11.78-.51 17.65.42z" fill="#145f53"/><path d="m204.02 66.95c-.08-5.44-.06-10.88-.28-16.32-.12-2.92 1.18-3.64 3.84-3.59 5.27.09 10.55-.08 15.83-.15.18.39.36.78.54 1.17.76 5.59.13 11.2.34 16.8.05 1.46-.34 2.95-1.87 3.05-6.16.38-12.4 1.82-18.4-.96z" fill="#176155"/><path d="m204.02 66.95c4.8 0 9.62-.3 14.38.12 4.59.4 5.69-1.4 5.39-5.64-.31-4.43.08-8.91.16-13.37 1.17 4.88.47 9.84.44 14.75-.02 3.38.91 4.56 4.46 4.55 5.19-.02 10.45-.92 15.59.59-5.43.04-10.87.14-16.3.08-2.17-.02-3.56.47-3.38 2.95-.34.34-.71.41-1.14.18-.77-.7-1.27-1.79-2.55-1.78-.51 0-1-.02-1.5-.02-3.76.01-7.51.13-11.26-.04-1.82-.08-4.08.37-4.66-2.34l.36-.03z" fill="#1c978e"/><path d="m240.79 107.95c1.34-.32 2.69-.64 4.03-.95.24.26.29.55.15.87-6.6 2.33-13.42.6-20.12 1.04-.26-.34-.24-.66.07-.96h.89c.48-.39 1.01-.68 1.59-.87 4.5-.26 9.07-1.62 13.38.88z" fill="#117065"/><path d="m205.84 233.81c-.71.02-1.41.04-2.12.06-.87-.92-.9-2.04-.74-3.2.86-4.98.57-9.97.11-14.96.06-1.33.69-2.24 2-2.61 5.13-.08 10.24.88 15.38.19 2.19-.3 2.87.96 2.84 3-.06 4.65-.11 9.3.02 13.94.07 2.36-.76 3.16-3.14 3.2-4.78.08-9.6-.61-14.35.39z" fill="#a1fae7"/><path d="m205.84 233.81c3.92-1.93 8.1-.91 12.11-.8 4.08.11 5.22-1.35 4.92-5.15-.28-3.61-.1-7.26-.05-10.9.03-2.13-.53-2.73-2.93-2.36-5.06.78-10.18.4-15.2-.76.48-2.48 2.55-2.18 4.22-2.25 3.89-.16 7.78-.13 11.68 0 .9.05 1.77.23 2.56.7l.63.63c.06 5.8.02 11.61.22 17.41.1 2.84-.97 3.82-3.75 3.7-4.8-.2-9.61-.16-14.42-.22z" fill="#95efe0"/><path d="m221.81 212.85c-5.67.91-11.5-.93-17.11.99-.92.41-.97 1.2-.88 2.05.79 5 .8 10 0 15-.03.99-.06 1.99-.09 2.98-.29.03-.58.04-.87.04-.21-.21-.42-.43-.63-.64-1.45-6.47-.79-12.98-.41-19.49.48-1.49 1.42-2.59 2.83-3.29.56-.19 1.13-.26 1.72-.22 4.99.92 10.18-.7 15.11 1.11.53.39.65.88.35 1.47z" fill="#21c3b4"/><path d="m224.92 211.89c-.06.35-.11.71-.17 1.06 0 0-.48-.05-.48-.05s-.48.01-.48.01-.06.06-.06.06c-2.53-6.23-1.07-12.66-.97-19.03.26-.91.75-1.66 1.53-2.21.87-.47 1.71-.47 2.53.13 5.32.62 10.79-1.07 16.01 1.01-5.34.03-10.68.06-16.02.09-1.11 4.22-.4 8.54-.63 12.8-.11 2.1.41 4.34-1.26 6.12z" fill="#147c72"/><path d="m202.84 233.91c0 .33 0 .65.01.98-.21.19-.41.38-.62.58-.5.28-1.04.46-1.6.58-.57.11-1.14.17-1.71.22-1.98.14-3.96.07-5.94.09-6.25.05-6.51.32-6.66 6.8-.06 2.63.26 5.29-.56 7.86-.23.73-.48 1.67-1.51 1.62s-1.37-1.03-1.41-1.76c-.34-5.71-1.32-11.46.64-17.09 4.42-2.5 9.21-1.01 13.84-1.29.56 0 1.12.02 1.68.05.83.03 1.65.14 2.43.41.49.24.94.55 1.35.9l.05.05z" fill="#1cbbac"/><path d="m203.94 253.85c-.09-.31-.16-.63-.19-.96-2-6-2.26-11.98.14-17.95.33-.02.65 0 .97.08.63.67 1.03 1.45 1.17 2.36.29 4.4.13 8.81.13 13.22-.05 1.25-.53 2.32-1.35 3.24-.29 0-.59 0-.88 0z" fill="#0d6b5f"/><path d="m204.81 236.89c.02-.62.03-1.25.05-1.87.33-.08.65-.09.98-.03 4.52.89 9.09.12 13.62.45 1.19.09 3.09-.96 3.37 1.44h-.02c-5.33 2.75-10.9 1.41-16.42 1.01-.57-.26-1.1-.6-1.58-1z" fill="#065145"/><path d="m222.84 236.88c-3.13-2.04-6.63-.55-9.93-1.01-2.35-.33-4.88.81-7.06-.88 4.87-.05 9.73-.12 14.6-.12 1.36 0 3.12-.46 3.22 1.85-.27.1-.54.15-.83.16z" fill="#0d6b5f"/><path d="m203.89 234.94c-.05 5.98-.09 11.96-.14 17.95-.29-.01-.57-.03-.86-.03-.5-.4-.86-.91-1.08-1.51-.16-5.52-1.59-11.11 1-16.47 0 0 .05.01.05.01.34.02.69.04 1.03.05z" fill="#189889"/><path d="m183.83 45.99c0-.34.02-.68.03-1.03.81-4.95.77-9.91.01-14.86.14-3.04 2.29-3.09 4.52-3.08 4.73.03 9.45.02 14.18.03.06 5.1.03 10.2.24 15.29.11 2.76-.87 3.83-3.68 3.74-5.1-.17-10.2-.07-15.3-.09z" fill="#14747b"/><path d="m203.66 66.98c5.94 2.28 12.11.4 18.14 1.06-.71 2.97-3.19 2.03-5.11 2.32-3.15.47-6.52-.96-9.45 1.16-1.99 3.01-.61 6.38-1.07 9.54-.28 1.93.59 4.45-2.47 5.02-1.34-1.45-1.38-3.29-1.31-5.06.2-4.7-.49-9.36-.57-14.04.31-.32.62-.64.92-.96.3.32.61.64.91.96z" fill="#2bc0b3"/><path d="m205.84 236.9c5.66 0 11.32-.01 16.98-.02 0 4.43-.12 8.87.03 13.3.1 2.79-.99 3.79-3.74 3.7-4.76-.15-9.53-.04-14.29-.05 0-1 0-1.99 0-2.99 1.41-4.57-.4-9.38 1.01-13.95z" fill="#155f54"/><path d="m201.87 274.87c-3.03-4.08-1.81-8.82-1.96-13.32-.05-1.39.94-2.91-1.08-3.67-.14-.15-.27-.3-.41-.45-.13-.4-.14-.8-.05-1.21.19-.38.48-.65.88-.79 1.17-.11 2.42-.68 3.39.53-.29 6.31 1.1 12.68-.78 18.93z" fill="#145f53"/><path d="m202.75 251.85c.05.33.09.67.14 1-.06.32-.1.65-.12.98-.76.69-1.52.59-2.29.01-.35-.45-.6-.95-.75-1.5-.63-3.85-.12-7.73-.27-11.6.22-2.01-1.03-4.36 1.37-5.86h.99c1.39 5.59-.36 11.36.94 16.96z" fill="#29cbbc"/><path d="m202.65 255.94c-1.27 0-2.55.87-3.82-.02-4.66 2.43-9.59 1.1-14.43 1.02-.61-.18-1.15-.5-1.6-.95-.14-.68.08-1.22.63-1.63 6.49-1.31 12.96-1.73 19.35.54-.04.35-.08.69-.13 1.04z" fill="#178679"/><path d="m202.77 254.91c-6.62.03-13.24.05-19.85.08-.12-.24-.23-.48-.35-.72.18-.56.56-.89 1.14-1 1.14.04 2.13-.62 3.25-.7 4.63.35 9.44-1.33 13.86 1.29.65-.01 1.3-.03 1.95-.04v1.08z" fill="#28b5a6"/><path d="m37.96 172.92c-.01-.67-.03-1.33-.04-2h18.99c-3.15 2.05-6.67.52-9.97 1.01-2.67.39-5.55-.99-8.02.98-.32 0-.63 0-.95 0z" fill="#e8faf9"/><path d="m57.93 170.96c-.34-.01-.69-.02-1.03-.03 6.57-2.27 13.34-.4 19.99-.99-6.22 2.18-12.66.4-18.96 1.02z" fill="#e8faf9"/><path d="m97.86 192.84c2.21-6.21.4-12.64 1.06-18.93 1.13-.14 1.54.65 1.92 1.48.76 3.37.25 6.8.42 10.2.09 1.75-.38 3.61.95 5.13 2 1.23 4.22.76 6.33.76 22.38.04 44.76-.01 67.14.04 7.13.02 8.34 1.67 6.82 8.81-.32.59-.82.87-1.49.84-3.49-5.49-8.77-5.95-14.7-5.86-16.77.26-33.54.07-50.32.1-7.72.02-12.67 5.02-12.64 12.65.02 5.98.16 11.96-.03 17.93-.13 4.08 1.31 5.52 5.45 5.46 11.79-.16 23.58-.19 35.37 0 11.9.19 23.79-.32 35.68.27.97.26 1.81.69 2.16 1.71-.27.62-.71 1.06-1.32 1.33-10.18 1.13-20.4.23-30.6.5-2.8.07-5.6.02-8.41.03-12.03-.03-24.05.02-36.08-.03-2.28 0-4.64.36-6.74-.98-1.61-1.75-1.53-3.96-1.53-6.09 0-10.58-.18-21.16.08-31.74.01-1.22-.22-2.48.45-3.62z" fill="#21c3b6"/><path d="m59.91 213.9c5.33.56 10.66-1.37 15.99 0 1.17 5.18.03 10.45.52 14.85.32-4.42-.59-9.67.47-14.86 0-.33 0-.66 0-.99 2.16-5.54.41-11.31 1.01-16.94 2.64.34 2.33 2.54 2.38 4.19.14 4.47.35 8.95-.24 13.4-.99 4.51-.54 9.1-.66 13.66-.05 1.79.02 3.6-.89 5.25-.37.55-.9.79-1.56.71-5.43-.94-10.99.58-16.39-.91-2.86-6.02-1.94-12.18-.62-18.35z" fill="#2bdfd6"/><path d="m181.84 200.9c0-.83-.11-1.68.02-2.49.69-4.35-.99-5.65-5.45-5.61-23.61.23-47.23.12-70.85.07-1.9 0-4.03.78-5.66-.97.47-.39.97-.7 1.52-.96 2.67-.68 5.4-.26 8.1-.48 21.67-.08 43.34.01 65.01-.08 1.95 0 4.45 1.05 5.6-1.76.13-4.34.7-8.68-.44-12.96-1.7-2.02-4.03-1.29-6.1-1.29-22.31-.06-44.63-.03-66.94-.04-2.65 0-5.37.3-7.72-1.39-.02-.35-.05-.69-.07-1.04l62.97-.12c3.13-2.2 6.68-.98 10.05-1.2 3.11-.2 6.24.02 9.35-.17.61-.04 1.18.07 1.73.32.41.42.7.91.9 1.46.8 4.07.2 8.18.35 12.28.2 5.5.3 5.63 5.89 6.01 3.3-.08 6.6-.29 9.89-.15 3 .13 5.1 1.54 5.17 4.8.11 5.26.68 10.53-.34 15.76-.37.95-1.04 1.61-1.99 2-2.66-3.57-1.34-7.7-1.49-11.57-.25-6.61-.3-6.87-6.65-6.87-11.12 0-10.29-.81-10.32 10.16-.02 7.47.02 14.95-.02 22.42-.01 2.14.21 4.34-1.02 6.3-.3.68-.77.82-1.4.44-.37-.31-.74-.62-1.11-.93-.35-.53-.51-1.12-.48-1.75.22-8.04.03-16.08.11-24.12.02-2.11-.23-4.31 1.39-6.07z" fill="#1cb6ad"/><path d="m78.85 213.89c-.57-5.97 1.16-12.05-.94-17.94.1-3.1 2.27-3.15 4.55-3.13 5.14.04 10.27.02 15.41.02.33.69.67 1.38 1 2.07-1.81 3.06-4.88 2.39-7.61 2.46-7.76.19-7.76.14-7.88 8.08-.04 2.32.13 4.7-1 6.84-.72 1.36-1.64 2.62-3.52 1.61z" fill="#17a8a1"/><path d="m98.93 172.94c26.02 0 52.04-.03 78.06.03 1.74 0 4.21-1.12 4.84 1.94-3.22 1.82-6.77 1.46-10.2 1.25-23.05-1.38-46.1-.77-69.16-.29-.96-.02-1.81-.36-2.55-.97-.33-.34-.66-.67-.99-1.01-.06-.32-.06-.65 0-.97z" fill="#12a29e"/><path d="m57.87 174.91c.04-.67.09-1.33.13-2h19.01v1.64c-3.98-.84-7.95-.44-11.9-.68-3.85-.24-5.55 1.16-5.26 5.15.23 3.27.05 6.57-.25 9.86-1.74-4.55.72-9.53-1.73-13.97z" fill="#47e4d2"/><path d="m59.91 213.9c.5 5.98-1.1 12.09 1 17.98-.4.77-1.16 1.01-1.9 1.27-.41.12-.75.02-1.02-.31.04-6.32.07-12.64.11-18.96.61 0 1.21 0 1.82.01z" fill="#35e6df"/><path d="m97.35 190.46h-18.44c-.01-.17-.03-.35-.04-.52h18.45c.01.17.02.35.03.52z" fill="#52f3e3"/><path d="m76.89 212.9c-2.41-6.21-.1-12.56 0-18.85z" fill="#4ff1e1"/><path d="m58.9 192.91c2.21 6.21.37 12.55 0 18.85 0-6.28 0-12.57 0-18.85z" fill="#50f5e0"/><path d="m76.88 213.88v14.78c-.33 0-.66.01-.99.02v-14.79h.99z" fill="#31e5da"/><path d="m160.82 170.86c-18.93.03-37.87 0-56.8.16-3.31.03-4.37-1.08-4.23-4.3.22-4.97.06-9.96.06-14.95.64.02 1.28.05 1.91.08 4.28-.85 8.6-.27 12.9-.37 5.5-.13 5.63-.22 5.73-5.54.09-4.98-.32-9.96.23-14.93 4.39-1.16 8.87-.24 13.29-.54 6.35 1.57 7.14.96 7.68-5.36.25-2.97.38-5.89.12-8.88-.17-1.93-.55-4.66 2.94-4.51 2.06 1.66 4 2.88 6.5.47 1.99-1.91 4.72-1.03 7.16-1.21 5.12-.39 10.24-.66 15.38-.42 2.94.14 5.4 1.13 5.4 4.53 0 10.75.82 21.51-.45 32.23-1.86 2.69-4.78 1.52-7.26 2.03-3.02.62-6.68-1.2-8.99 2.24-.32 4.59-.04 9.17-.16 13.75-.05 1.94.22 3.98-1.4 5.53z" fill="#a1fae7"/><path d="m137.86 111.96c.83-.02 1.58-.21 2.01-1.03.72-.05 1.46.22 1.56.9.77 5.39.85 10.8.02 16.19-.11.68-.81.97-1.54.95h-19.1c-.02-.52-.04-1.04-.06-1.56 1.78-.96 3.86-.33 5.77-.43 1.98-.11 4.01-.26 5.96.02 4.54.65 5.89-1.31 5.44-5.59-.32-3.12-.06-6.29-.06-9.44z" fill="#47e9d5"/><path d="m139.9 128.98c1.49-6.02 1.54-12.03-.03-18.04.02-.34.04-.68.06-1.02.65 0 1.29.02 1.94.03 1.1 6.16.93 12.41.29 18.53-.47 4.49-4.26 3.33-7.29 2.48-4.66 0-9.31.01-13.97.02-.28-.21-.38-.41-.29-.63s.18-.32.27-.32c6.32-.73 12.79 1.08 19.03-1.05z" fill="#94f9e8"/><path d="m120.87 130.02c0 .32 0 .64.02.95 0 5.46-.14 10.93.02 16.38.1 3.48-1.38 4.73-4.74 4.61-4.79-.18-9.6-.1-14.4-.13 4.09-2.02 8.45-.86 12.65-.84 4.06.02 5.49-1.24 5.55-5.42.08-5.18-1.4-10.5.89-15.56z" fill="#8eefe3"/><path d="m164.19 30.02c.85-.63.98-.82 1.12-.82 17.22.13 14.72-3.7 13.57 14.71-.2-3.61-.86-7.27-.44-10.8.34-2.86-.75-3.11-2.87-3.1-3.56.02-7.12 0-11.39 0z" fill="#cff6f3"/><path d="m141.87 87.99c-.36-.01-.72-.02-1.08-.03.03-.33.06-.66.09-.98.77-4.72.86-9.49.59-14.24-.18-3.19.98-4.7 4.14-4.72 3.98-.02 7.95-.06 11.93.02 1.82.03 3.88.81 3.53 2.63-1.11 5.9 1.47 11.84-.45 17.66-6.29 1.78-12.55 2.25-18.76-.34z" fill="#d3fef4"/><path d="m160.83 88c.65-5.56-2.32-11.03-.4-16.65.37-1.08-.58-1.81-1.6-2.14-.46-.15-.97-.14-1.46-.2-13.67-1.66-15.33-.22-15.53 13.31-.02 1.58.55 3.35-.96 4.65-.01-.33-.03-.66-.05-.99.02-5.99.04-11.98.06-17.97 6.9-2.21 14-.41 20.98-1.04.01 6.99.03 13.98.04 20.97-.17.12-.35.25-.52.37-.18-.11-.36-.22-.55-.33z" fill="#d0fdf6"/><path d="m137.86 69.99c2.41.33 1.97 2.2 1.98 3.76.03 4.07.01 8.15.02 12.22-2.42 1.53-1.94-.67-1.96-1.68-.09-4.77-.04-9.54-.04-14.3z" fill="#9ff7e4"/><path d="m120.05 86.56h-16.85c0-.14-.02-.29-.03-.43h16.84z" fill="#a0f7e2"/><path d="m140.66 21.03c-10.48 0-20.97-.24-31.44.11-4.63.16-5.72-1.5-5.44-5.72.24-3.59-.53-6.62 5.15-6.52 21.12.35 42.25.32 63.37.02 5.71-.08 5.42 2.94 5.63 6.9.22 4.19-1.2 5.41-5.34 5.3-10.64-.27-21.29-.09-31.94-.09z" fill="#12727a"/><path d="m104.59 6.49h72.53v.98h-72.52c0-.33 0-.65 0-.98z" fill="#127379"/><path d="m99.77 24.07c.98-1.21 2.36-1.05 3.68-1.05 24.95 0 49.89 0 74.84.02.47 0 .94.18 1.39 1.07-26.63 0-53.25 0-79.88 0 0 0-.03-.04-.03-.04z" fill="#05646c"/><path d="m141.87 87.99h18.96c.41.25.73.58.98.99 0 4.99-.11 9.99.08 14.98.11 3.01-.91 4.17-3.99 4.07-5.65-.19-11.32-.08-16.98-.09-.67-.62-.62-1.28-.09-1.96.56-5.98-1.08-12.1 1.05-17.99z" fill="#fdfefe"/><path d="m161.81 88.98c-.33-.33-.65-.66-.98-.99.36-.01.71-.02 1.07-.04 6.3.61 12.73-1.1 18.96.99-1.28 5.48 0 11.09-.64 16.61.52-5.52-.53-11.11.65-16.59.32 0 .63.01.95.05 0 6.65.02 13.31.02 19.96-.14.25-.28.5-.42.76-.66.66-1.48.87-2.39.82-3.73-.21-7.46-.06-11.19-.15-1.77-.05-3.61.05-4.98-1.43.16-5.64.04-11.29.95-16.89.23-1.42-.65-2.49-1.99-3.09z" fill="#d3fef4"/><path d="m162.84 108.96c5.65.57 11.44-1.11 17 .98 1.47 1.44 1.36 3.32 1.37 5.14.04 9.31.06 18.61 0 27.92-.01 1.81.11 3.71-1.51 5.06-.64.27-1.26.23-1.86-.12 0-10.47-.11-20.95.06-31.42.05-3.37-.84-4.81-4.45-4.63-5.14.27-10.3.04-15.46.08-2.7.02-5.2-.47-7.07 2.89-1.55 2.78-5.12 1.19-7.06-2.9-.68-.5-1.62-.86-1-2.01 6.65-.53 13.41 1.07 19.99-.99z" fill="#a1f9e6"/><path d="m142.85 109.96c.33.67.67 1.34 1 2.01-1.94 5.36.17 10.96-.97 16.38-.29 1.38.25 3.67-1.8 3.37-2.07-.3-4.73 3.5-6.22-.75q6.99-.04 7-7.17c0-4.61 0-9.23 0-13.84.33 0 .66 0 .99.01z" fill="#9ffaea"/><path d="m140.83 105.98c.03.65.06 1.31.09 1.96-5.62 0-11.24 0-16.86 0 5.5-1.92 11.35.32 16.78-1.96z" fill="#d5fefa"/><path d="m179.83 68c-.15 1.44.38 2.96-.67 4.53-3.95-4.97-9.67-1.15-14.54-3.11 5.14-1.36 10.4.83 15.2-1.43z" fill="#9cf9e4"/><path d="m142.93 64.3c-1.34-3.85-1.35-7.72-.15-11.59 1.59 3.81 1.1 7.7.15 11.59z" fill="#a4fdea"/><path d="m201.83 66.98c3.15 3.47 1.65 7.73 1.92 11.68.17 2.43.05 4.88.05 7.32 4.52 1.25 9.14.37 13.7.61 2.11.11 4.3-.27 6.21 1.02.41.48.6 1.03.56 1.66-.01 6.05.06 12.09-.04 18.13-.2.63-.63.9-1.28.8-1.47-5.17-.13-10.5-.67-15.02-.02 3.59.03 7.87-.03 12.15-.02 1.6-.61 2.89-2.19 3.57-11.03.98-22.07.35-33.1.35-1.19 0-2.24-.5-3.13-1.29 0-13.32 0-26.64 0-39.96 5.91-1.85 12-.55 17.99-1.02z" fill="#4becda"/><path d="m185.64 49.74c.22 5.46.52 10.92-.17 16.35l-1.29-.02v-16.35c.48 0 .97.01 1.45.02z" fill="#1abfaf"/><path d="m189.54 65.03c3.53-1.26 7.06-1.41 10.58-.06-3.49 1.51-7.03 1.15-10.58.06z" fill="#1ec2af"/><path d="m67.43 62.83c-5.59 1.61-5.29-1.95-5.68-6.02-.56-5.78 2.44-5.66 6.71-5.96 5.65-.4 5.28 2.64 5.57 6.6.39 5.36-2.12 6.25-6.6 5.38z" fill="#13727b"/><path d="m76.87 64.99c-5.57 2.25-11.28.22-16.91.77 5.21-1.73 10.79.54 15.93-1.76.61.05.6.72.98 1z" fill="#026169"/><path d="m76.87 64.99c-.33-.33-.65-.66-.98-1 0-4.92 0-9.85 0-14.77.33 0 .65-.01.98-.02z" fill="#02616a"/><path d="m54.91 105.97c-.34 0-.67 0-1.01 0v-20.86c-.33 0-.67 0-1-.01 0 5.21-.28 10.44.08 15.62.35 4.98-2.81 4.36-5.79 4.23-2.87-.13-6.58 1.36-6.36-4.15.31-8.15.25-16.32 0-24.47-.11-3.69 1.4-4.6 4.7-4.38 3.1.21 6.23.05 9.35.05h.03c.77 11.32.79 22.65 0 33.97z" fill="#12727a"/><path d="m37.93 68.09c.66 0 1.31-.02 1.97-.03v36.22c-.66 0-1.31 0-1.97 0z" fill="#12727a"/><path d="m96.88 30.02c-.59 4.31 1.18 8.8-1 12.99-2.67-2.03-5.76-.96-8.61-.89-3.55.09-4.82-1.23-4.41-4.61.12-.98.12-1.99 0-2.97-.41-3.38.85-4.71 4.4-4.62 2.84.07 5.93 1.13 8.6-.89.23-.05.47-.1.7-.14.33.18.48.41.46.69-.02.3-.07.45-.16.45z" fill="#127279"/><path d="m95.88 29.02c-4.09-.34-8.3.7-13.66-1.02 5.38-1.65 9.58-.68 13.69-.95.55.66.59 1.31-.02 1.96h-.01z" fill="#127279"/><path d="m95.89 29.01c0-.65.01-1.31.02-1.96 2.09.07 1.97 1.54 1.89 2.99-.31-.01-.61-.02-.92-.02-.33-.34-.66-.67-.99-1.01z" fill="#0c686c"/><path d="m100.88 27.04h59.96c0 4.64-.12 9.28.05 13.92.11 2.93-.79 4.12-3.92 4.1-17.4-.12-34.8-.12-52.2 0-3.12.02-4.03-1.17-3.93-4.1.17-4.63.05-9.28.05-13.92z" fill="#fafcfc"/><path d="m102.85 48.03c10.78 0 21.56.14 32.34-.1 3.79-.08 4.75 1.19 4.75 4.84-.01 13.23.11 13.23-13.19 13.23-8.29 0-16.58 0-24.88 0-1.02-5.33-.31-10.7-.38-16.06-.01-.9.68-1.43 1.36-1.9z" fill="#4becda"/><path d="m102.85 48.03c-2.04 5.89-.48 11.98-.99 17.96-.33 0-.66 0-.99.01.58-5.98-1.24-12.1 1-17.99.32 0 .65.02.97.02z" fill="#3be6d0"/><path d="m94.89 152.94h.98c2.51.91.74 3.54 1.99 4.96 0 1.31.02 2.63.02 3.94 0 8.92-3.29 11.3-12.09 9.12-1.89-.47-1.63-2.33-2.9-3.02-2.19-4.79-2.29-9.48.66-14.02 3.64-1.89 7.57-.56 11.34-.96z" fill="#1fc4b3"/><path d="m80.87 170.91c-2.03-5.89-.62-11.94-.8-17.92 0-.2.52-.63.65-.58.91.37.22 1 .18 1.54.61.73 1 1.54.96 2.51-.28 4.82.83 9.74-1 14.46z" fill="#13bbab"/><path d="m80.9 155.93c0-.66 0-1.33.01-1.99h1.99c.33-.35.66-.34.99 0-1.6 4.57-.82 9.32-1 13.99-.33.33-.66.66-1 1-1.41-4.25.45-8.75-1-12.99z" fill="#23c7b8"/><path d="m80.9 155.93c2.18 4.19.43 8.68 1 12.99-.02.82-.19 1.57-1.02 1.98 0-4.99.02-9.98.03-14.97z" fill="#1ac6b5"/><path d="m83.89 153.94c-.33 0-.66 0-.99 0 0-.33 0-.66 0-1 3.99-.79 7.99-.79 11.98 0h.01c-3.5 2.12-7.35.47-11 1z" fill="#16c2af"/><path d="m94.87 152.94c-3.99 0-7.99 0-11.98 0 3.99-1.55 7.99-1.56 11.98 0z" fill="#13bbab"/><path d="m97.86 157.89c-1.57-1.29-.71-3.55-1.99-4.96.44-.79 1.19-.96 2-1.03 0 0 .04.04.04.04-.02 1.98-.03 3.97-.05 5.95z" fill="#13bbab"/><path d="m160.82 170.86c0-6.97.02-13.95.02-20.92 5.59-1.39 11.3-.88 16.96-.99 1.18.05 2.4-.19 3.53.38.57.33.81.82.73 1.47-.34.49-.8.85-1.35 1.07-4.39.89-8.84.43-13.25.39-3.23-.03-4.26 1.23-4.31 4.37-.07 4.55.81 9.19-.72 13.67-.2.2-.41.4-.61.6-.33-.02-.67-.03-1-.05z" fill="#93f2e4"/><path d="m181.85 170.94c-6.6 2.03-13.35.48-20.02.84 0-.29 0-.58 0-.87.47-.38.98-.7 1.53-.96 5.96-.64 11.93-1.12 17.85.36.22.21.43.42.65.64z" fill="#49e6d6"/><path d="m54.91 105.97c0-11.32 0-22.65 0-33.97 1.38 1.13.96 2.71.97 4.14.03 8.56.03 17.13 0 25.69 0 1.43.41 3.01-.97 4.14z" fill="#05656b"/><path d="m97.82 107.91c-5.96 0-11.92 0-17.88 0-.01-11.49.09-22.98-.11-34.46-.06-3.52 1.08-4.71 4.56-4.51 4.48.25 8.99.06 13.48.06v1.99c-2.91 1.55-6.08 1.4-9.23 1.47-2.1.04-4.52-.33-5.23 2.61 0 9.25-.26 18.48.19 27.7 2.51 3.07 5.84 1.92 8.68 1.19 2.96-.76 2.03-3.83 2.08-6.01.13-6.48.03-12.97.06-19.46 0-1.66-.03-3.34.53-4.94.27-.8.72-1.73 1.64-1.55.84.17.76 1.38 1.29 2-.02 11.31-.03 22.61-.05 33.92z" fill="#44ecd8"/><path d="m96.88 65.99c-5.66 0-11.32-.01-16.98-.02 0-5.77 0-11.54 0-18.4 3.02 2.83 1.18 5.45 2.42 7.39q1.31-6.96 10.56-6.93c3.84.95 5.06 3.41 4.53 7.23-.48 3.55.5 7.19-.53 10.74z" fill="#fefefe"/><path d="m96.88 65.99c0-1.65.05-3.3 0-4.95-.16-4.69 1.45-9.94-3.99-13.01 1.34 0 2.67-.01 4.01-.02 1.63 5.99 1.64 11.99-.01 17.98z" fill="#f6fefe"/><path d="m182.9 108.99c.31-.03.61-.08.92-.16 13.46-.31 26.92-1.12 40.36.41.76 1.69 1.04 3.47 1.04 5.32 0 10.11.06 20.22-.03 30.33-.06 5.88-.93 6.73-6.83 7.47-3.83.06-7.69.45-11.47-.52-1.46-6.19-1.81-12.49-1.05-18.8.29-2.42-.17-3.78-2.78-3.89-1.84-2.02-.43-4.38-.69-6.56-.42-3.63 1.14-7.47-1.16-10.89-4.92-.86-9.87-.12-14.79-.41-1.16-.04-2.29-.18-3.29-.85-.52-.41-.62-.91-.31-1.5l.07.03z" fill="#1fc4b3"/><path d="m223.76 108.93c-13.32-.03-26.63-.07-39.95-.1 0-.29.01-.58.03-.87h36.99c.66-.55 1.31-.59 1.97 0h.85c.33.18.45.39.38.62-.08.24-.17.36-.27.36z" fill="#47e7d6"/><path d="m183.87 30.1c1.37 4.96 1.85 9.91-.01 14.86 0-4.95 0-9.91.01-14.86z" fill="#05626b"/><path d="m97.87 73.99c-1.1-.9-2.07-2.02-2.03.75.12 7.31.13 14.63.02 21.94-.16 10.71 1.91 9.14-9.61 9.25-1.65.02-3.88.82-4.36-1.96.45-.48 1.17-.92 1.18-1.55.16-9.5 1.72-19.06-1.18-28.44-.19-2.4 1.07-3.07 3.27-3.02 4.23.09 8.47.02 12.7.02v3z" fill="#4becda"/><path d="m182.83 108.96c.08.35.16.7.24 1.05.89 1.09 1.12 2.38 1.12 3.73.06 11.27.11 22.54-.03 33.81-.01 1-.22 1.98-.73 2.86-.41.64-.96.79-1.65.45-.02-.33-.05-.67-.07-1-1.39-13.64-1.58-27.28.1-40.92h.02 1z" fill="#79ded7"/><path d="m205.82 150.94h12c6.03.98 6.49.63 6.5-5.12.02-10.15.11-20.31-.06-30.46-.05-3.25 1.04-4.36 4.27-4.47 4.09-.13 8.31 1.07 12.26-.91h1.02c1.2 1.31 1.49 2.88 1.49 4.61-.03 18.14-.01 36.28-.02 54.42 0 .68-.12 1.32-.49 1.9-1.09.05-2.28-.17-2.99 1-2.16 2.01-4.86 1.2-7.36 1.41-1.9.16-3.87-.32-5.64.75-.66.92-.56 1.98-.6 3.02-.51 4.95 1.19 10.1-1.35 14.86-.32.35-.65.7-.97 1.04-2.78-3.9-1.23-8.33-1.4-12.5-.28-7.09-.09-6.95-7.09-7.16-9.9-.3-19.83.71-29.71-.57-.57-.28-.94-.73-1.11-1.34.18-.58.56-1.01 1.1-1.28 3.84-1.14 7.79-.31 11.67-.61 1.68-.13 3.72.67 4.7-1.57.86-5.46.04-10.93.3-16.39.14-.6.51-1 1.08-1.21.9-.22 1.7-.06 2.39.58z" fill="#1aa9a6"/><path d="m246.8 110.11h3.08c3.6 1.37 7.65-.99 11.12 1.37-1.57 2.76-4.23.84-5.96 1.49 2.02.54 5.05-1.2 6.7 1.97.62 2.44.64 4.93.64 7.41.01 19.37.02 38.73 0 58.1 0 1.98.07 3.98-.41 5.91-.14.54-.37 1.05-.68 1.51-2.18 1.77-4.81 1.27-7.14.85-4.55-.81-2.4-4.64-2.84-7.04.02-.77.02-.74-.01-.18q-.39 6.73 6.6 7.47c1.37.15 3.25-.22 2.87 2.24-2.95.64-5.98-.3-8.91.55-2 0-3.99-.02-5.99-.03-1.24-1.76.22-3.54-.06-5.31.72-24.13.48-48.26.54-72.39 0-1.3-.32-2.67.47-3.89z" fill="#145f53"/><path d="m260.79 190.91c-2.69-2.03-5.79-.87-8.67-.92-3.69-.07-4.93-1.8-2.72-4.44 2.29-2.74.56-5.81 1.76-8.52.97.53.62 1.4.62 2.09-.05 9.57-.56 8.8 9.01 8.8v-73.96c.88-.36 1.21.15 1.41.88.2-1.29-1.14-1.82-1.41-2.88-3.31-2.59-7.57.49-10.92-1.86 3.66-.04 7.33.06 10.97-.16 3-.18 4.07.87 4.06 3.96-.13 25.95-.12 51.9-.15 77.85-.67-.02-1.34-.03-2.01-.04-.57-.47-1.49-.1-1.96-.8z" fill="#156054"/><path d="m224.84 172.93c4.86-2.23 9.99-.44 14.96-1.01 1.71.13 2.89.97 2.92 2.74.08 4.3.06 8.6.02 12.9-.02 2.45-1.85 2.33-3.53 2.34-4.14.02-8.27 0-12.41 0-.19-.21-.38-.41-.57-.61-.89-3.71-.21-7.48-.43-11.21-.1-1.76.39-3.63-.97-5.15z" fill="#1c9099"/><path d="m242.8 170.92c0-17.71-.03-35.42.04-53.13.01-2.68-.27-5.25-1.02-7.8.66 0 1.32 0 1.97-.01 0 18.76.03 37.53 0 56.29 0 1.59.56 3.37-1 4.65z" fill="#1db2b1"/><path d="m246.79 187.91c-.62 1.19-1.18 2.39-.95 3.79-2.21-4.64-.54-9.56-.99-14.32-.2-2.1-.02-4.25 0-6.37.3-.06.61-.11.91-.14 1.43 5.61-.38 11.43 1.03 17.04z" fill="#1d6559"/><path d="m224.85 191.96c0-5.34-.02-10.69-.03-16.03 2.26.06 1.33 1.82 1.43 2.89.35 3.69-.54 7.44.55 11.1v1.95c-.65.03-1.3.06-1.96.09z" fill="#1c9099"/><path d="m260.79 190.91c.65.27 1.31.54 1.96.81-3.64 0-7.27.01-10.91.02 2.86-1.68 5.98-.43 8.95-.82z" fill="#1d6559"/><path d="m240.8 109.99c-1.01 3.45-3.86 1.86-5.85 1.9-10.13.18-10.14.09-10.14 10.28 0 8.11.03 16.23 0 24.34-.03 5.6-1.4 6.44-6.98 4.43 4.4.59 6.23-.96 6.1-5.75-.32-12.08-.13-24.17-.15-36.26 0-.33-.03-.66-.11-.98.09-6.34.18-12.67.27-19.01.32-.42.6-.38.85.07.05 6.31.1 12.62.15 18.93-.07.32-.09.64-.07.96 5.18 2.28 10.64.46 15.94 1.09z" fill="#20ada9"/><path d="m246.79 187.91c-2.17-5.57-.4-11.38-1.03-17.04 0-18.56-.03-37.12.03-55.68 0-1.7-.82-3.69 1-5.08z" fill="#126357"/><path d="m227.81 193.91h1c3.91 1.4 8.08-.35 11.99 1 0 10.25-.1 20.51.06 30.76.05 3.23-.98 4.48-4.26 4.26-3.25-.22-6.52-.04-9.78-.04-1.07-5.6-.2-11.26-.51-16.89-.94-5.11-.35-10.27-.46-15.41-.03-1.57.3-2.99 1.96-3.68z" fill="#145f53"/><path d="m243.8 194v38.36c-2.73-.53-1.95-2.2-1.96-3.3-.07-10.14-.04-20.27-.05-30.41 0-1.85-.15-3.73 1.93-4.71 0 0 .08.06.08.06z" fill="#145f55"/><path d="m227.81 193.91c-2.14 6.23-.46 12.67-1 18.99-.33.45-.66.44-.99 0-.3-.34-.6-.67-.9-1.01-.02-4.77-.04-9.55-.05-14.32 0-1.8-.25-3.72 1.94-4.6.33.31.67.63 1 .94z" fill="#0c594d"/><path d="m226.82 230.88c4.42.31 8.94-.63 13.3 1.01-4.37 1.59-8.89.71-13.33.98-.54-.67-.55-1.34.03-1.99z" fill="#155e54"/><path d="m226.82 230.88c-.01.66-.02 1.33-.03 1.99-2.23-6.56-.39-13.32-.98-19.97h.99c0 5.66.01 11.33.02 16.99z" fill="#055145"/><path d="m240.8 194.91c-3.98-.51-8.14 1.08-11.99-1 3.98.5 8.14-1.09 11.99 1z" fill="#0c594d"/><path d="m198.83 257.87c0 2.99-.22 6 .05 8.96.36 3.87-.93 5.16-4.97 5.11-19.43-.2-38.86-.09-58.28-.09-15.94 0-31.88-.13-47.82.09-4.05.06-5.32-1.26-4.97-5.12.27-2.96.05-5.97.05-8.96 5.16-2.86 10.76-.75 16.11-1.42 13.89.03 27.78.01 41.67 0 13.21.06 26.43-.03 39.64.04 1.17-.04 2.34.41 3.51.08.57-.07 1.14-.02 1.69.16 4.4.79 9.02-.97 13.31 1.15z" fill="#145f53"/><path d="m198.16 274.33h-114.56c0-.33 0-.66 0-.99h114.54c0 .33.01.66.02.99z" fill="#156054"/><path d="m98.88 257.86c-5.33 0-10.67 0-16 0-1.26-.07-2.54 1.08-3.79-.02 0-.62-.02-1.23-.02-1.85 6.16-1.83 12.42-1.98 18.74-1.02.57.26 1.02.65 1.35 1.18.21.62.12 1.19-.27 1.71z" fill="#0e5b52"/><path d="m82.89 253.87c-2.42.12-3.74.13-3.3-3.44.54-4.42 1.42-9.17-.77-13.57-.51-.53-1.47-.83-.97-1.88.02-.35.04-.7.06-1.06.24-.19.48-.38.72-.58 6.58-1.03 13.18-2.64 19.53.97-2.13 5.46.21 11.12-.72 16.69-.44 2.64-1.11 4.06-3.85 3.82-3.57-.31-7.28.99-10.7-.96z" fill="#1c9097"/><path d="m77.85 234.98c.32.63.65 1.25.97 1.88-.3.01-.6.03-.9.04-.5.34-1.05.51-1.66.51-5.78-.5-11.71.59-17.35-1.52 0-.3 0-.59 0-.89 6.31 0 12.63-.01 18.94-.02z" fill="#0a6159"/><path d="m37.97 193.93c6.27.04 12.54.07 18.8.11.06.28.06.56 0 .84-6.27-.23-12.62 1.02-18.8-.95z" fill="#024c3d"/><path d="m57.98 232.84c.31 0 .63.01.94.01 5.99-.72 11.97-.76 17.96.02l1.04.02c.24.23.32.45.22.66-.09.21-.18.31-.27.31 0 0 .04.06.04.06-5.12-.01-10.24.02-15.36-.07-1.55-.03-3.36.69-4.57-1.01z" fill="#35cfc9"/><path d="m76.89 236.88c.34 0 .69.01 1.03.02-.05 5.65-.1 11.31-.15 16.96-5.06 0-10.12 0-15.18 0 3.44-3.09 7.48-1.17 11.11-2.99-2.63 0-5.27-.16-7.89.04-3.11.23-4.12-1.09-3.96-4.07.18-3.31.04-6.64.04-9.96 5-.8 10-.79 14.99 0z" fill="#166054"/><path d="m82.89 253.87h5.94c7.67 0 8.64-1.45 7.55-9.29-.45-3.21-2.49-7.03 1.49-9.7 2.25 2.54 1.22 5.63 1.36 8.49.16 3.44.02 6.89.13 10.33-.1.64-.42 1.14-.97 1.48-5.17.06-10.36.71-15.5-.34 0-.32 0-.65 0-.97z" fill="#178d92"/><path d="m82.89 254.85c5.36-.01 10.71-.03 16.07-.04 0 0 .25.37.26.37 0 0-.02.45-.02.45s-.31.32-.31.32c-6.6.02-13.21.04-19.81.07.86-1.76 2.52-.86 3.82-1.15z" fill="#256a5f"/><path d="m76.89 236.88c-5 0-10 0-14.99 0h-.5-.5c-.82-.02-1.56-.18-1.98-.99 5.98.56 12.09-1.23 17.98.99z" fill="#0b544a"/><path d="m31.92 150.95c0 10.64-.22 21.3.09 31.93.16 5.63-3.31 4.92-6.87 5.09-3.57.17-5.36-.46-5.32-4.79.22-21.45.28-42.91-.02-64.37-.07-5.31 2.77-4.8 6.22-4.91 3.75-.11 6.21.06 6.02 5.12-.41 10.63-.12 21.29-.12 31.93z" fill="#12727a"/><path d="m29.99 111.25c-3.11.53-6.3 1.23-10.24-.07 3.96-2.51 7.09.44 10.24.07z" fill="#147279"/><path d="m39.91 190.91c0-.34 0-.67 0-1.01 5.08-1.89 10.18-.8 15.27-.79l.07 1.79h-15.35z" fill="#dffefb"/><path d="m52.9 213.21v9.96c0 4.87-3.3 7.62-8.02 6.51-2.42-.57-4.06-1.89-4.01-4.85.13-8.13.1-16.27.01-24.4-.03-2.52.83-3.72 3.46-3.54 1.65.12 3.33.13 4.98 0 2.94-.25 3.71 1.21 3.62 3.88-.14 4.15-.04 8.3-.04 12.45z" fill="#145f53"/><path d="m38.35 232.16v-34.54c.33 0 .67-.01 1-.02v34.55c-.33 0-.67 0-1 0z" fill="#155f53"/><path d="m52.21 231.87c-3.5 1.07-7.01 1.75-11.67-.47 4.75-.69 8.21-.76 11.67.47z" fill="#155f54"/><path d="m239.78 88.8c0 4.16-.03 8.33.01 12.49.02 2.31-1.39 2.84-3.27 2.65-1.66-.17-4.78.73-4.44-1.7 1.25-8.72-4.84-16.32-3.29-24.97.35-1.94-.59-5.43 2.54-4.65 2.96.73 8.65-2.11 8.48 4.69-.09 3.83-.02 7.66-.02 11.49 0 0-.01 0-.02 0z" fill="#145f53"/><path d="m226.8 72c1.64 1.46.96 3.41.97 5.15.06 9.61.03 19.21.03 28.82-.67.32-1.15.13-1.42-.56-.15-5.53-.03-11.06-.07-16.58.29-5.61-.61-11.24.48-16.82z" fill="#145f53"/><path d="m226.82 105.96h.99 1c3.66-.77 7.33-.77 10.99 0 .8.43.98 1.16.99 1.98-4.66 0-9.32.01-13.98.02-.61-.67-.56-1.34.01-2z" fill="#0e5c4e"/><path d="m226.82 105.96c0 .67 0 1.33-.01 2h-.5s-.5-.02-.5-.02c0-6.32 0-12.64 0-18.95.32-.46.65-.46.98 0 0 5.66 0 11.32.01 16.98z" fill="#095449"/><path d="m224.78 89.01c-.28-.03-.57-.05-.85-.07-.1-.29-.18-.58-.24-.87-.78-1.02-1.18-2.18-1.22-3.47.48-4.53-1.39-9.3 1.38-13.6.31 0 .62-.02.93-.03v18.03z" fill="#1d8a7b"/><path d="m226.81 88.98c-.33 0-.65 0-.98 0 .51-5.65-1.18-11.43.98-16.99z" fill="#0e584e"/><path d="m239.8 105.97c-3.66 0-7.33 0-10.99 0 3.66-1.62 7.33-1.62 10.99 0z" fill="#145f53"/><path d="m221.71 65.98c-4.7 0-9.4-.02-14.11 0-1.81 0-2.78-.74-2.77-2.64.02-4.76 0-9.53.98-14.3 0 3.74.12 7.5-.04 11.23-.14 3.36 1.11 4.91 4.61 4.75 3.77-.17 7.55-.04 11.32-.04v.98z" fill="#0e554b"/><path d="m222.62 49.48v12.33c-.17 0-.33 0-.5 0v-12.75z" fill="#145f53"/><path d="m205.82 69.99c2.8-1.99 5.99-.55 8.96-1 2.34-.35 4.89.88 7.03-.96.33-.02.66-.02.99 0 1.12 5.46.22 10.98.49 16.46-.07.97-.3 1.79-1.57 1.53-2.09-2.75-1.2-5.97-1.34-9.01-.23-5.14-.47-5.41-5.73-5.57-2.76-.08-5.58.43-8.22-.85-.2-.2-.4-.4-.6-.6z" fill="#28ccbb"/><path d="m222.81 84.98c0-5.65-.01-11.3-.02-16.94 1.27.67.91 1.9 1.05 2.97-.04 4.66-.07 9.31-.11 13.97-.31.47-.61.47-.93 0z" fill="#2bc0b3"/><path d="m203.81 230.89c0-5 0-10 0-15 1.62 5 1.63 10 0 15z" fill="#95efe0"/><path d="m184.82 171.9c11.59 0 23.18.1 34.77-.05 3.24-.04 4.39.99 4.28 4.26-.2 5.62-.02 11.26 0 16.89-.05 6.66-.1 13.32-.15 19.97-.64-.04-1.28-.08-1.91-.12 0-.32 0-.64-.01-.97-.14-.27-.28-.54-.42-.8-.02-.3-.05-.6-.07-.9.21-10.67.11-21.35.05-32.01-.18-1.17-.53-2.88-1.74-2.63-4.43.89-8.44-1.89-12.76-1.18-5.61.93-11.22 1.23-16.87.52-1.18-.15-2.62-.27-2.85 1.22-.42 2.73-1.59 5.53.15 8.23.63.99 1.6 1.69 2.3 2.61 1.21 1.59 1.69 3.24.24 4.97q-6.99 0-6.99-6.75c0-4.43 0-8.86.01-13.29.67-.54 1.33-.54 1.97.04z" fill="#21c0b5"/><path d="m189.83 191.91c.04-2.01 0-3.77-2.1-5.14-2.6-1.71-3.78-10.54-2-12.94.79-1.06 2.03-.98 3.2-.7 5.4 1.28 10.73.94 16.19.05 2.92-.48 6.26-1.36 9.01 1.06 1.29 1.13 2.56.27 3.71-.22 3.05-1.3 4.69-.42 4.97 2.91-1.18 6.2-.27 12.45-.49 18.68-.18 5.1.2 10.21-.51 15.3-5.33.79-10.65.8-15.98 0-.34 0-.67 0-1.01 0-2.09-4.6-.97-9.47-.86-14.17.11-4.51-1.88-5.4-5.66-5.1-2.81.23-5.64.2-8.47.28z" fill="#1fc4b3"/><path d="m182.86 233.83c0-12.08.12-24.17-.1-36.25-.07-3.76 1.15-5.1 4.83-4.7 4.87.53 11.13-2.07 14.31 1.15 2.96 3 .64 9.15.91 13.91.09 1.65.02 3.31.02 4.96-.01 6.99-.02 13.97-.04 20.96 0 0-.49.01-.49.01h-.49c-.9-1.05-1.52-2.32-1.17-3.63 1.27-4.65.33-9.43.66-12.63v9.46c-1.12 2.03-1.83.59-2.22-.41-.86-2.22-.7-4.56-.38-6.87-1.3 4.7-.05 9.38.1 14.08-5 0-10 .02-15 .03-.35.32-.67.32-.96-.07z" fill="#1aa9a6"/><path d="m205.82 210.9h15.98v.98c-5.31-.52-10.76 1.12-15.98-.99z" fill="#1bbeae"/><path d="m182.86 233.83c.32.03.64.06.96.07v17.84c.34 0 .67 0 1.01.01 0-2.53 0-5.07 0-7.6 0-10.22-.78-9.25 9.51-9.27h6.48c-1.11 1.66.33 3.33 0 5-.25.24-.38.53-.46.85-.54 2.08.33 5.24-2.79 5.58-3.12.35-2.62-2.73-3.19-4.64-.36-1.19-.89-2.24-2.34-2.02-1.49.23-1.39 1.58-1.66 2.68-.78 3.16 1.65 6.58-.8 9.59-1 1.12-2.78.72-3.73 1.93-.93 0-1.87.01-2.8.02-1.72-1.25-1.6-3.14-1.55-4.9.14-5.03-.57-10.09.36-15.1 0 0 .09-.09.09-.09.31.05.62.06.93.05z" fill="#21c3b4"/><path d="m198.82 233.87c-4.11-6.4-1.43-12.72 0-19.07 2.19 4.19-.47 8.99 1.99 13.09 1.05 2.22.16 4.11-.97 5.97-.34 0-.68 0-1.02 0z" fill="#1caaaa"/><path d="m199.84 233.86c.32-1.99.65-3.98.97-5.97 0-4.6 0-9.19 0-13.79.33 0 .66 0 .99-.01v19.78c-.66 0-1.31 0-1.97 0z" fill="#0fa09c"/><path d="m202.75 251.85c-2.02-5.56-.4-11.32-.94-16.96.33 0 .67-.01 1-.01-.02 5.66-.04 11.32-.06 16.97z" fill="#2bc2b3"/><path d="m205.84 236.9c-.53 4.64 1.08 9.43-1.01 13.95 0-4.66-.01-9.31-.02-13.97.34 0 .68.01 1.03.02z" fill="#0d574d"/><path d="m199.49 43.02c-1.15-3.36-.69-6.3-.6-9.11.11-3.09-1.12-4.12-4.07-3.93-2.75.18-5.52.04-9.5.04 5.4-1.94 10.03-.19 14.3-1.53.74-.23 1.24.78 1 1.31-1.82 3.92.09 7.77.05 11.65 0 .34-.48.67-1.18 1.57z" fill="#18757e"/><path d="m222.81 84.98h.93c-.02 1.03-.03 2.06-.05 3.09-5.39-.02-10.77-.04-16.15-.08-1.57-.01-3.44.43-3.73-2.01 2.02-2.8.56-5.99 1.02-8.97.36-2.34-.91-4.9 1-7.02 2.01 2.41 1.36 5.32 1.43 8.06.15 6.24.48 6.47 6.86 6.52 2.59.02 5.64-1.72 7.71 1.41.33-.33.66-.66 1-1z" fill="#1bbfae"/><path d="m184.83 256.87c-.33 0-.67 0-1 0-.25-.21-.33-.43-.25-.64.08-.22.16-.32.24-.32 5 0 10 .02 15 .03v.94c-4.66.8-9.33.79-13.99 0z" fill="#0c5f54"/><path d="m184.83 256.87h13.99v1c-4.65-.49-9.45 1.11-13.99-.99z" fill="#10574d"/><path d="m188.83 251.87c1.88-3.62-.4-7.31.14-11.08.39-2.69 1.26-2.9 3.26-2.92 1.99-.02 3.73.15 3.59 2.81-.03.66-.03 1.33.02 1.98.07 1.11-.3 2.56 1.21 2.9 1.66.38 1.56-1.26 2.09-2.19.64-1.13.43-2.67 1.68-3.5v12.97c-3.99-.39-8.13 1.02-11.98-.99z" fill="#1ec5b4"/><path d="m188.83 251.87c3.99.37 8.12-.9 11.98.99v1.01c-4.99 0-9.99-.01-14.98-.02.09-2.03 1.55-1.99 2.99-1.98z" fill="#23caba"/><path d="m182.92 254.99c-.08.25-.13.5-.16.76-1.62 1.67-3.72 1.07-5.63 1.08-10.08.06-20.15.03-30.23.03-1.84-.09-3.7.22-5.51-.39-.61-.33-.86-.83-.75-1.52.4-.5.89-.86 1.49-1.08 12.98-.72 25.96-.52 38.94-.12.6.2 1.15.5 1.64.9l.2.35z" fill="#47968a"/><path d="m145.85 255.99c12.3-.08 24.61-.16 36.91-.24.35.05.71.09 1.06.14v.97c-.44.8-1.18.98-2.01.99-8.24-1.12-16.53-.24-24.79-.5-3.48-.11-6.97.04-10.46-.06-.76-.15-1-.59-.73-1.31z" fill="#0d584d"/><path d="m182.72 254.64-.46.05-.46-.04c-.39-.39-.69-.85-.9-1.36-.18-.52-.29-1.05-.33-1.59-.24-4.24-.04-8.49-.17-12.72.11-1.9-.91-2.67-2.71-2.66-9.67-.08-19.32.02-28.97-.04-2.14-.01-4.34.3-6.37-.77-.61-.39-.76-.91-.45-1.57 13.32-.02 26.63-.04 39.95-.06 2.07 4.74.56 9.73.99 14.59.16 1.8.14 3.61.21 5.41-.14.24-.24.5-.32.77z" fill="#76eada"/><path d="m143.88 232.87c-12.96 0-25.92 0-38.89.01-2.2 0-3.35.48-3.1-3.25.64-9.39.01-18.89-.45-28.33-.13-2.63.74-2.51 2.45-1.88 1.87.69 2.81.16 3.04-1.86.36-3.23 2.51-3.71 5.35-3.7 20.27.08 40.55.11 60.82 0 4.98-.03 7.08 2.58 7.74 7.04-.37 7.96.63 15.88.5 23.84-.1 5.66-.36 5.78-5.85 5.69-10.36-.18-20.73-.05-31.09-.06 10.52.09 21.04-.06 31.56.14.72.01 1.04.7 1 1.45-9.23.95-18.49.13-27.72.43-1.79.06-3.64-.48-5.35.49z" fill="#1fc4b3"/><path d="m98.84 253.87c-2.06-6.24-.39-12.67-.96-18.99-4.73-2.13-9.71-.5-14.55-.97-1.8-.17-3.63-.05-5.45-.05.03-.32.05-.65.04-.98.55-6.32-1.08-12.75.93-19 3.51-.95 3-3.85 3.03-6.42q.15-11.42 11.72-11.55c1.84-.02 3.64-.02 5.27-1.01.05 13.03.09 26.05.14 39.08 1.91 6.64 2.23 13.27-.17 19.88z" fill="#1aaaa6"/><path d="m98.84 253.87c.06-6.63.11-13.25.17-19.88 14.3-.02 28.59-.04 42.89-.06-.03.3-.06.61-.08.92-.41.48-.91.83-1.5 1.05-.59.18-1.2.28-1.81.32-11.54.19-23.09-.04-34.62.13-1.87-.06-2.64.92-2.59 2.72.13 4.07-.54 8.17.45 12.2 1.57 1.78 3.69 1.15 5.6 1.19 10.72.25 21.44-.4 32.16.37.58.2 1.08.52 1.49.97-.03.3-.05.6-.08.9l-.04.37c-1.37 1.15-3.03 1.19-4.69 1.2-10.72.04-21.43.04-32.15 0-1.82 0-3.65-.03-5.08-1.45h.01c0-.31-.04-.62-.12-.93z" fill="#4bd8c6"/><path d="m176.84 231.87c-1.48-1.62-3.42-.95-5.17-.96-9.25-.06-18.5-.03-27.76-1.03 9.06 0 18.12.01 27.17 0 10.84-.02 9.75 1.04 9.72-10-.01-4.78-1.52-9.48-.98-14.31.18-1.59-.53-3.37 1-4.67h1c0 8.61.04 17.23-.03 25.84-.01 1.74.66 3.69-.98 5.15-1.33.71-2.67.72-3.99-.02z" fill="#22c4b5"/><path d="m176.84 231.87c1.33 0 2.66.01 3.99.02v.95c-12.31 0-24.63.02-36.94.02 1.47-1.63 3.41-.95 5.15-.96 9.27-.07 18.54-.04 27.81-.04z" fill="#13baab"/><path d="m99.92 174.91h1.96c2.65 4.05 1.07 8.54 1.38 12.84-.05.86-.22 1.7-.56 2.49-.35.83-1.17 1.16-1.83 1.66-.33 0-.66 0-.99 0 0-5.66.02-11.32.03-16.98z" fill="#15a69f"/><path d="m76.88 232.87c-5.99 0-11.97 0-17.96-.01.43-.8 1.18-.95 1.98-.97 5.31.54 10.76-1.11 15.97.99z" fill="#36eae4"/><path d="m101.88 188.91c0-4.66 0-9.33 0-13.99 2.71-.86 5.5-1.01 8.33-1.01 17.99.02 35.97-.07 53.96.05 5.89.04 11.78.62 17.66.95v14c-2.08 1.88-4.65 1.47-7.11 1.48-21.22.02-42.44.09-63.66-.07-3.04-.02-6.65 2.35-9.18-1.41z" fill="#1aa9a6"/><path d="m101.88 188.91c3.38 2.33 6.76-.15 10.15-.12 23.27.22 46.53.12 69.8.12.19 3.93-2.74 2.97-4.86 2.97-22.7.04-45.4.02-68.1.02-2.19-1.33-4.8.3-6.99-.99 0-.67 0-1.33 0-2z" fill="#16a9a4"/><path d="m184.82 171.9c-.66-.01-1.32-.03-1.97-.04-.02-.34-.05-.67-.07-1.01-2.25-6.62-1.98-13.25-.17-19.9.15-13.65.3-27.29.46-40.94.92 0 1.84-.01 2.75-.02.6.68.8 1.48.76 2.36-.74 5.58.03 11.21-.6 16.8-.07.58-.21 1.14-.38 1.69-.84 6.41-.19 12.84-.37 19.26-.23 6.95.44 13.91-.4 20.84 0 .32 0 .64-.02.96z" fill="#13a1a1"/><path d="m182.61 150.95c.06 6.63.11 13.27.17 19.9-.31.04-.62.07-.93.09 0 0-.07-.07-.07-.07-2.69-5.65-.89-11.61-1.21-17.43.15-.96.62-1.77 1.24-2.5 0 0-.02-.07-.02-.07.27.03.55.06.82.08z" fill="#49e6d6"/><path d="m101.88 190.91c2.32.39 4.89-.92 6.99.99-2.66 0-5.33 0-7.99 0 .33-.33.67-.67 1-1z" fill="#1aa9a6"/><path d="m178.85 149.9c-6 .01-12 .03-18 .04 2.42-3.67 6.19-.88 9.25-1.85 2.36-.74 5.14-.15 7.74-.15h1c.62.65.58 1.3.01 1.96z" fill="#a3fceb"/><path d="m178.85 149.9c0-.65 0-1.31-.01-1.96 1.63-1.47.96-3.42.97-5.16.06-10.94.04-21.89.04-32.84.66-.33 1.31-.66 1.97-.99-.03 13.64-.06 27.28-.09 40.92-.96 0-1.91.02-2.87.03z" fill="#a9fded"/><path d="m180.86 88.95v17.73c-.56-5.92-2.18-11.86 0-17.74z" fill="#dcfefa"/><path d="m222.8 107.96c-.66 0-1.31 0-1.97 0 2.04-6.04.55-12.26.75-18.39.41-.02.81-.03 1.22-.05v18.45z" fill="#52f7e1"/><path d="m181.81 150.94c0 .66-.02 1.31-.02 1.97-1.02.6-2.14.43-3.24.42-3.61-.04-7.23.05-10.84-.03-2.54-.06-3.5 1.04-3.5 3.53 0 3.94.21 7.88-.16 11.82-.15.88-.65 1.58-1.2 2.25-.34 0-.68 0-1.02 0 0-5.43.1-10.86-.04-16.28-.07-2.77.97-3.81 3.74-3.74 5.42.14 10.85.05 16.28.06z" fill="#57edd9"/><path d="m162.85 170.91c0-.66 0-1.33.01-1.99 1.73-2.98.22-6.13.43-9.2.42-6.31 1.14-7.08 7.29-7.33 3.08-.13 6.23.92 9.25-.44.65.32 1.31.64 1.96.96v17.97c-6.31 0-12.63.02-18.94.03z" fill="#4becda"/><path d="m81.89 73.99c2.68 1.78 2.91 4.63 2.96 7.4.11 6.25 0 12.51.05 18.76.02 2.16-.08 4.07-3.02 3.82 0-9.99 0-19.99 0-29.98z" fill="#49eed7"/><path d="m184.84 129.93c.56-5.98-1.22-12.08.99-17.96 2.74-1.83 5.82-.65 8.73-.99 2.75-.32 5.66.79 8.24-.97 2.11 5.36.79 10.88.69 16.33-.02.93-.73 1.84.33 2.62 2.4 7.32 2.32 14.64.05 21.96-.34 0-.68.01-1.02.02-2.77-3.89-1.33-8.32-1.5-12.51-.27-6.81-.19-6.8-6.98-6.99-3.21-.09-6.67.93-9.53-1.52z" fill="#1ba9a7"/><path d="m203.87 150.92c-.02-7.32-.03-14.64-.05-21.96.99-.36 1.26-2.26 2.77-1.42 1.16.65 1.49 1.92 1.09 3.03-1.48 4.19-.58 8.5-.87 12.75-.18 2.66.04 4.99 3.82 5.09-1.24 2.38-3.9.7-4.8 2.53-.65 0-1.3-.01-1.96-.02z" fill="#21c5b5"/><path d="m202.81 110c-.35 2.42-2.23 1.93-3.78 1.95-4.4.04-8.79.01-13.19.01 0-.66 0-1.31 0-1.97h16.98z" fill="#16a5a2"/><path d="m205.51 110.42h14.58c.01.32.02.65.03.97h-14.58c-.01-.32-.02-.65-.03-.97z" fill="#1bc2af"/><path d="m184.84 129.93c4.77 0 9.55.13 14.31-.01 2.8-.08 3.77 1 3.71 3.75-.13 5.76-.02 11.52-.01 17.27 2.03 5.91.5 12 .95 17.99-5.87 2.06-11.99.51-17.95 1.26-3.08-4.67-1.49-9.92-1.31-14.79.3-7.9.23-15.79.18-23.68-.21-.6-.17-1.18.12-1.75z" fill="#1c9098"/><path d="m184.84 130.95c1.93 7.59 1.09 15.26.48 22.89-.43 5.4-1.24 10.77.51 16.08.35.22.47.44.35.66s-.24.33-.35.33c-.33 0-.66.02-.99.04-2.23-4.9-.5-10.06-.98-15.08-.19-1.97-.02-3.97-.01-5.95 1.09-4.52.2-9.12.51-13.66.12-1.77-.47-3.61.48-5.3z" fill="#168892"/><path d="m185.83 170.91c0-.33 0-.66 0-.98 5.92-1.47 11.96-.91 17.96-1-.3 2.45-2.2 1.98-3.75 1.99-4.74.03-9.48 0-14.21 0z" fill="#179195"/><path d="m226.81 189.91c-2.02-2.62-.57-5.64-.99-8.45-.28-1.85.69-3.93-.99-5.54 0-1 0-2 .01-2.99 2.41.35 1.94 2.23 1.95 3.78.04 4.4.01 8.8.01 13.19z" fill="#188d95"/><path d="m260.79 111.96c3.22.74 1.64 3.17 1.98 5.71-.89-1.66-1.43-2.69-1.98-3.71-3.44-.27-6.98.58-11.82-1 4.84-1.58 8.38-.73 11.82-1z" fill="#1d6559"/><path d="m263.31 188.39c-.24.28-.62.94-.78.89-.56-.17-1.17-.49-1.51-.95-.59-.81.43-.63.7-.78.7-.38 1.22-.02 1.6.83z" fill="#1d6559"/><path d="m99.07 259.09h55.68v.5h-55.58c-.03-.17-.07-.33-.1-.5z" fill="#166159"/><path d="m98.88 257.86c0-.33 0-.66 0-.99.53-.41 1.11-.84 1.77-.84 13.2-.04 26.4-.7 39.59.33.74.28.94.77.62 1.49-13.99 0-27.98 0-41.97 0z" fill="#0e5448"/><path d="m140.86 257.85c0-.33 0-.66 0-.98 1.66-.75 3.33-.76 5 0 10.27 0 20.54-.03 30.82.03 1.74.01 3.69-.66 5.16.96-13.66 0-27.31 0-40.97 0z" fill="#085247"/><path d="m145.85 256.86c-1.67 0-3.33 0-5 0-13.99 0-27.98 0-41.97 0 0-.31 0-.63 0-.94v-.11c14-.76 28.01-.65 42.01-.06 1.65.08 3.31.15 4.96.23v.87z" fill="#085b4d"/><path d="m140.89 255.76c-14 .02-28.01.04-42.01.06.02-.34.04-.67.06-1.01 13.97.08 27.95.16 41.92.25 0 .24.02.47.03.7z" fill="#249484"/><path d="m221.82 85.98c-2.9-1.52-5.77.24-8.69.11-8.03-.36-7.25.73-7.3-7.16-.02-2.98 0-5.95 0-8.93 4.27 0 8.53.07 12.8-.01 2.3-.04 3.25.9 3.21 3.2-.08 4.26-.02 8.53-.01 12.8z" fill="#20c6b4"/><path d="m221.81 210.89c0-8.8-.09-17.6.06-26.39.04-2.52-1.01-5.27.94-7.58 0 9.61.03 19.22-.03 28.82-.01 1.74.67 3.69-.97 5.15z" fill="#27caba"/><path d="m140.9 254.69c-.02-.27-.02-.54 0-.82.44-.5.98-.85 1.61-1.06 11.86-.75 23.73-.23 35.6-.29 1.35 0 2.62.32 3.65 1.27.02.28.03.56.03.85-13.63.01-27.26.03-40.9.04z" fill="#92e3d6"/><path d="m141.87 253.84c-.32.01-.65.02-.97.04 0 0-.13.03-.13.03-.58-.76-1.03-1.58-1.16-2.54.31-5.5-1.52-11.17 1.32-16.46.3-.01.59-.04.89-.07 12.66.04 25.32.08 37.99.12.01.76-.36 1.32-1.11 1.33-11.24.12-22.48.05-33.73.09 3.41.02 6.83.01 10.25.01h21.47c1.83 0 3.7-.18 5.05 1.47.01 5 .02 10 .04 15.01-11.89.97-23.79.45-35.68.28-1.5-.02-2.95-.4-4.22.7z" fill="#a1fae7"/><path d="m141.87 253.84c.12-1.12.67-2.06 1.85-1.87 12.65 1.99 25.38.32 38.05.89.03.31.03.63-.01.94-13.3.01-26.6.02-39.89.04z" fill="#adfef2"/><path d="m181.74 237.86c-6.2-1.85-12.56-.84-18.85-.92-6.76-.09-13.53-.45-20.68.44 1.01-2.14 2.68-1.44 3.89-1.45 9.49-.07 18.99 0 28.48-.07 1.76-.01 3.7.65 5.22-.89 1.37.48 2.05 1.42 1.94 2.89z" fill="#a7fded"/><path d="m140.93 234.91c-.05 5.65-.11 11.29-.16 16.94-.55.22-.98.08-1.29-.41-2.2-3.19-.56-6.7-.94-8.53q-.63 7.34-9.96 7.35c-2.99 0-5.98-.03-8.96.11 5.15.19 10.31 0 15.46.19 1.82.07 4.15-.44 4.76 2.32-12.5.99-25.01.37-37.5.34q.87-2.26 5.64-3.12c-1.37-2.56-1.42-5.33-1.55-8.08-.05-1-.33-2.19-1.49-2.28-1.72-.14-1.51 1.41-1.67 2.49-.49 3.2.86 6.66-1.35 9.64-.64.62-1.3.6-1.98.07-.02-4.58.02-9.17-.09-13.75-.05-2.2.58-3.5 3.02-3.27 12.32.84 24.65.84 36.97 0 .36 0 .72 0 1.08.01z" fill="#4aecd8"/><path d="m101.88 251.87c.67.89 1.64.99 2.66.99h32.66c1.01 0 1.98-.1 2.65-.99.3 0 .61-.01.91-.02v2.06c-12.18-.01-24.37 0-36.55-.08-1.6-.01-3.86.94-4.28-1.92.65-.01 1.29-.03 1.93-.04z" fill="#58f8e4"/><path d="m139.85 234.89c-.82 1.07-2 .99-3.15.99-10.22 0-20.44 0-30.66 0-1.15 0-2.33.08-3.15-.99h36.97z" fill="#49ebd7"/><path d="m184.84 130.95c-.57 6.31 1.16 12.74-.99 18.97.58-6.64-1.28-13.39.98-19.95v.98z" fill="#10878f"/><path d="m179.83 151.95c-.16.81-.28 1.72-1.41 1.59-.8-.09-1.57-.47-2.38-.55-10.72-1.11-13.63 2-11.73 12.69.29 1.62.79 2.93-1.45 3.24 0-4.6.06-9.19-.03-13.79-.04-2.3.9-3.25 3.21-3.21 4.6.08 9.19.03 13.79.03z" fill="#49e6d6"/><path d="m178.55 156.59c1.63 3.86 1.64 7.66.17 12.45-1.42-4.63-.9-8.54-.17-12.45z" fill="#47ebd7"/><g fill="#49ebd7"><path d="m101.88 251.87c0-3.49-.08-6.99.04-10.48.05-1.63-.7-3.97 2.42-3.78 2.64.16 3.66 1.32 3.64 4.1-.03 2.73-1.3 5.89 2.28 7.94 1.27.72-.03 2.08-1.38 2.15-2.32.12-4.66.06-6.99.07z"/><path d="m139.85 251.87c-7.16 0-14.32.02-21.48-.02-1.24 0-3.12.41-3.15-1.45-.03-1.89 1.86-1.49 3.1-1.5 4.99-.05 10-.27 14.98.06 4 .26 4.78-1.47 4.65-4.98-.07-2.14-2.34-4.81 1.43-6.9-.87 5.23-.64 10.04.48 14.78z"/></g></svg>