<svg enable-background="new 0 0 269.2 269" viewBox="0 0 269.2 269" xmlns="http://www.w3.org/2000/svg"><path d="m145.2 26.5c11.2 0 22.5.1 33.7.1 1.3 5.1.4 10.4.5 15.5-5.2 3.2-10.9 1.8-16.2 1.3-6.1-.6-12.1-.9-18.1.4-.7 0-1.1-.3-1.3-.9-.1-4 0-8.1 0-12.1-.1-1.6-.5-3.3 1.4-4.3z" fill="#afafaf"/><path d="m179 42.4c0-5.3-.1-10.6-.1-15.8 2.2 1.8 1.1 4.3 1.1 6.5.1 11.2.1 11.2 11.6 11.3 1 0 2 .1 3 0 2.6-.2 3.7.9 3.5 3.5-.1 1.5 0 3 0 4.5 0 10 0 9.9 10.3 10.1 2.5 0 5.3-1 7.6 1-.4.4-.9.7-1.5.9-3.9.9-7.9.3-11.9.5-2.8-.4-3.1 1.4-3.2 3.6-.1 3.7.5 7.5-.6 11.1-.3.5-.7.9-1.3 1-.3-.1-.5-.2-.8-.3-.2-.2-.3-.5-.5-.7-1.1-3-.8-6.2-.6-9.3.2-4-1.2-5.8-5.4-5.6-3.3.2-6.6.2-9.9-.1-.6-.1-1.2-.2-1.7-.4-3.7-.9-7.5-.3-11.3-.5-5.6-.2-6.5-1-6.6-6.7-.1-3-.1-5.9-.6-8.8-.1-.9-.1-1.8.2-2.7.2-.6.5-1 .9-1.4 5.4-1.4 11-.1 16.5-.8.4-.2.9-.5 1.3-.9z" fill="#d5d5d5"/><path d="m161.1 224.7c-10.2 0-20.5.2-30.7.1-3.3 0-4.1 1.1-4.2 4.2-.2 4.5 1.4 9.1-1 13.4-2.3-3.5-1.2-7.4-1.2-11.1 0-3.8-1.1-5.5-5.1-5.3-8.7.5-17.5-.6-26.2.6-.4.4-.6.8-.8 1.3-.6 4.4.3 8.8-.5 13.1-.2.5-.5 1-.9 1.4-2.4-2.5-1-5.6-1.1-8.4-.2-9.3-.1-9.2-9.5-9.3-2.5 0-4.9-.1-7.4-.1-.4-.6-.3-1.1.2-1.5 4.3-1.8 8.8-.5 13.1-1.1.5-.1 1-.2 1.4-.4 1.8-4 .4-8.2.9-12.3.1-.8.3-1.6.6-2.3.3-.5.8-.7 1.3-.7.5.3.8.6 1.1 1.1 1 3.6.3 7.2.5 10.8.1 1.1-.2 2.4.7 3.3 1.6 1.6 11.8.5 13.4-1.4 0-2.8-.2-5.6 0-8.4.1-1.8.1-3.7 2.1-4.6 5 .4 10.2-.9 15.1 1.1 1.1 4.4.4 8.7.4 14.3.3-5.3 0-9.5.3-13.6.4-.5.9-.6 1.5-.4 1.9 2.4 1 5.3 1.2 7.9.2 1.8-.6 4 1.7 5.1 8.2 1 16.4.2 24.6.5 2.6.1 5.3-.3 7.7.9 1 .6 1.1 1.1.8 1.8z" fill="#c0c0c0"/><g fill="#d5d5d5"><path d="m251.7 152c-5.8 2.2-11.9.6-17.8 1-4.5 2.7-9.4.9-14.1 1.4-1.2 0-2.4 0-3.5-.4-.6-.2-1-.5-1.5-.9-.3-.6-.3-1.1.2-1.5.5-.3 1-.6 1.5-.7 3.1-.5 6.3-.4 9.4-.3 3.7.1 5.4-1.1 5.4-5.1.1-8.9.3-8.8-8.6-9-2.8-.1-5.7.3-7.6-2.5-1.2-5.5-.8-11.1-.3-16.6.2-.5.5-1 1-1.4 1 0 2.1.1 2.9-.7 4.6-.8 9.1-.9 13.7.1.6.2 1 .6 1.5 1 .4.5.7 1 .9 1.6.8 5.3.2 10.6.4 15.9.3 5.4-.8 10.8.6 16.1.4.3.9.5 1.4.5 4.3.6 8.8-.4 13.1.7.5.1 1 .4 1.4.8z"/><path d="m17.7 153c-4.8 0-9.5-.1-14.3 0-2.8.1-3.8-1-3.7-3.8.1-3.8.2-7.6 0-11.4-.2-3.1 1.2-4 4.1-3.9 4.6.2 9.2 0 13.8 0 .5-.4 1-.5 1.6-.6 5.1.6 10.3-.3 15.4.6.6.2 1.1.5 1.5 1 1.8 5.8 1 11.8.7 17.7-.4.5-.8.9-1.4 1.1-4.5.9-9 .3-13.5.5-1.6.1-3-.1-4.2-1.2z"/><path d="m126.2 44.4c5.6 0 11.2-.1 16.8-.1.4-.3.8-.4 1.3-.4s.9.2 1.2.6c.2.5.2.9.2 1.4-.1 1-.2 2-.1 3v13.2c.1 5.6 0 11.1-.8 16.6-.2.5-.6.8-1.1.9-3.7-1.9-7.8-.2-10.8-.8 1.6 0 4.1-.1 6.6 0 1.1 0 2.6.1 1.5 1.9-4.6 1.6-9.4.7-14.1.6-.6-.1-1.1-.4-1.6-.8-.4-.5-.6-1-.7-1.6 0-.6 0-1.2.2-1.7.4-3.3.2-6.6.2-9.9 0-3.7 1.8-5.3 5.5-5.4 3.6-.2 7.3.9 10.7-.8 1.4-3.7.6-7.5.6-11.2 0-2.3-1.6-2.9-3.6-3.1-3.4-.3-6.9.5-10.3-.1-.5-.2-1-.5-1.4-.8-.6-.5-.6-1-.3-1.5z"/></g><path d="m269.5 117.2v16.7c-6 1.1-11.9.7-17.9.2-1.9-5.7-1.8-11.4-.1-17.1 6-.6 12-.8 18 .2z" fill="#888"/><path d="m214.9 153c.4 0 .7 0 1.1.1 2.2 3.2 1 6.9 1.4 10.4.2 1.8-.9 4.1 1.8 4.9 4.6.8 9.5-1.4 13.7 1.7-4.1 2-8.4.8-12.6.8-3.2.1-4.6.8-4.3 4.2.2 3.3-.1 6.6.1 10 .2 3.1-1.2 4-4.1 4-9.3-.1-18.6.1-27.9-.1-3-.1-4.4.9-4 3.9.1.8 0 1.7 0 2.5 0 11.6 0 11.6-11.8 11.6-.8 0-1.7.1-2.5 0-2.9-.3-3.6 1-3.7 3.7-.2 4.7 1.3 9.5-1 14.1 0-.3 0-.7 0-1-2.3-3.1-1.2-6.6-1.3-9.9-.1-3-1-5-4-5.9-3.6-1.7-7.8.3-11.4-1.7-.7-.7-.8-1.4-.4-2.3 2.6-1.9 5.7-1.5 8.6-1.4 3.7.1 5.6-1.1 5.3-5.1-.1-1.9-.2-4 1.2-5.7.8-.4 1.6-.4 2.3 0 1.6 2 1 4.4 1.2 6.6.2 1.9-.6 4 1 5.6 4.6.6 9.2 1.5 13.6-.7 1.2-3.6.4-7.3.5-11-.1-.5-.3-.9-.6-1.3-4.7-1.8-9.7.4-14.4-1.4-.5-.3-.8-.8-.8-1.4.3-.5.7-.9 1.2-1.1 3.4-1 6.9-.5 10.4-.6 2.9 0 4.1-1.3 4.2-4.2.1-3.8-.4-7.6.5-11.4.2-.6.6-1 1.1-1.4 5.6-1.8 11.4-.5 17.1-.9h1.7c3.6-.1 7.2-.1 10.8 0 3.4.1 4.6-1.4 4.6-4.7 0-3.4-.6-6.9.8-10.2.2-.3.4-.5.6-.7z" fill="#c4c4c3"/><path d="m17.7 153h4c2.5 2.4 5.6.8 8.3.9 3.4.2 5 1.6 4.9 4.8-.2 3.9 1.3 7.9-1.3 11.5-4.2.5-8.4.1-12.6.2-1.3 0-2.6-.1-3.2-1.5-.1-5.4-.1-10.6-.1-15.9z" fill="#888"/><path d="m232.9 170c-5-.1-10-.1-15-.2-.1-.3-.3-.6-.4-.9-1.4-13.7-1.3-13.9 12.9-14.7-3.3.4-6.7.1-10 .2-.9 0-1.6-.4-1.5-1.4h15.1c-1 5.6.9 11.4-1.1 17z" fill="#888"/><path d="m18.6 134.1c-.4 0-.7 0-1.1 0 0-.7.1-1.3.1-2 .4-.4.9-.6 1.4-.9 3.4.1 6.7.7 10.1.4.7 0-.4-.9 0-.4.1.2 0 .3-.4.3-.3 0-.6 0-1 0-6.8.1-7.6-.5-7.5-5.9s1.3-6.2 8.1-5.9c.7 0-.2-1.1 0-.5 0 .1-.1.2-.3.2-2.1-.1-4.2.6-7-.8 3.9-2.8 8-.8 11.5-1.9.9-.2 1.7-.2 2.4.5 1.6 5.3 1.2 10.7.3 16.1-.3.6-.8.9-1.4 1.1-4.9-.1-10 .7-15.2-.3z" fill="#afafaf"/><path d="m143.2 62.4c-3.8 2.1-8 .9-12 .9-3.7 0-5.3.9-5.1 4.9.2 3.3.9 6.8-.7 10.1-.2-.2-.5-.4-.7-.5-1.4-2.5-1.1-5.2-.9-7.8.3-4.1-1.6-5.2-5.2-5.1-8.1.1-16.2.1-24.3 0-2.2.1-2.6 1.5-2.6 3.3 0 3.1-.2 6.1.2 9.2.2.5.5.9 1 1.2 8.6.9 17.1.1 25.7.4 2.3.1 4.7-.4 6.6 1.4l.2.2c.1.7-.1 1.2-.7 1.5-5.6 1.6-11.4.6-17.1.8-4.1 0-8.2 0-12.3 0-2.5 0-3.6 1-3.5 3.6 0 3 .1 5.9-.1 8.9 0 .9-.2 1.7-.6 2.5-.3.5-.7.8-1.3.9-.2-.1-.5-.2-.7-.4s-.3-.4-.5-.7c-1.1-3.3-.3-6.8-.6-10.1-.1-1.7.6-3.8-2-4.3-4.4-.9-9 .6-13.3-1.2-.6-.4-.7-.9-.3-1.5 4.5 0 9-.1 13.4 0 2.5.1 3.6-.8 3.5-3.4-.1-3 .2-6-.1-8.9-.4-4.3.9-5.8 5.4-5.7 10.1.3 20.2.1 30.3.1.5-.3 1-.6 1.5-.9.5-.2 1.1-.3 1.7-.3 4.2-.1 8.5-.2 12.7.1 1-.3 1.7.2 2.4.8z" fill="#d1d1d1"/><path d="m17.8 168.8c5.2 2.3 10.6.7 15.9 1 1.9-3.1.6-6.5 1-9.7.3-2.4-.8-5 1-7.2h1l.6.6c1.4 3.3.8 6.9.8 10.3s1.4 4.7 4.8 4.7c3.5-.1 6.9-.3 10.4.3.6.2 1.1.4 1.5.8s.7.9.9 1.5c.8 3.6.4 7.3.4 10.9 0 3.2 1.3 4.4 4.5 4.4 3.5 0 7-.4 10.4.4.8.3 1.6.7 1.6 1.8-.3.5-.7.9-1.2 1.1-3.6 1-7.3.3-10.9.5-1.5.1-3.5-.5-4.1 1.8-.8 4.4.3 9-.8 13.4-.3.5-.6 1-1 1.4-2.3-4.3-.9-9-1-13.4-.1-3.4-1-4.5-4.5-4.5-4.3 0-10.3 2.2-12.7-1-2.8-3.8-.8-9.8-.8-14.9.5-.4 1-.3 1.4.2 1.6 2.8 1 5.8 1 8.7 0 3 1.1 4.5 4.3 4.6 9.7.6 10.1.4 9.8-9.2 0-1.6.5-3.4-1.2-4.6-5.1-1.1-10.3.3-15.4-.8-4.5-1.8-9.2-.5-13.7-.9-1.6-.2-3.9.9-4-2.2z" fill="#ccc"/><path d="m34.6 117.2c-.7 0-1.3 0-2 0-2.7.9-5.5.5-8.3.4-3.1-.1-4 1.3-4.2 4-.3 3.5 1.1 7.3-1.6 10.4-.3 0-.6 0-.9.1 0-4 .1-8-.1-11.9-.1-3 .9-4.3 4-4.1 3 .2 6-.2 8.9.1 4.3.5 5.2-1.4 5.2-5.4 0-4.2-1.4-8.5.9-12.5.4.4.7.9.9 1.4.9 3.4.5 6.9.5 10.3 0 3.3 1.3 4.8 4.7 4.8 2.4 0 5-.6 6.9 1.6-1.2 3.2-4 2-6.2 2.1-3 .1-5.5.2-5.6 4.4-.1 6.2.2 7 4.8 7.8 2.3.4 4.6.3 6.8-.8 1.8-.9 3.4-1.2 4.6.9.3.4.6.8.8 1.3.1.5 0 1-.2 1.5-.7.8-1.6 1.3-2.6 1.5-4.2 0-8.4-1.3-12.6.1-1.2.3-2.5.7-3.7.1-.4 0-.7 0-1.1 0-.3-.2-.4-.5-.3-.7s.2-.3.4-.3c.9-5.9.9-11.5 0-17.1z" fill="#d5d5d5"/><path d="m36.6 99.2c0-.3 0-.6 0-1 8.6 0 17.2-.1 25.8-.1 9 0 8.9 0 9.1-9.3.1-2.9-1.2-5.9 1-8.6v1c2.7 4.2.9 8.9 1.6 13.2.1.5.2 1 .4 1.4 4.1 2 8.6.3 12.8 1.1.8.2 1.5.6 2.1 1.1l.2.2c.3.5.4 1 .4 1.6-.2 4.8-.4 9.7.2 14.5-.2 1.7-1 2.5-2.8 2.1-2.8-2.8-1.1-6.3-1.3-9.4-.3-5.7-5.3-8.7-10.5-6-1.7.9-1.6 2.4-1.7 3.8-.2 3.5.4 7-.6 10.4-.3.5-.7.9-1.2 1.1-1-.3-1.4-1-1.7-1.9-.7-2.8-.5-5.6-.4-8.4.1-3.8-1.7-5.3-5.4-5.3-7.1 0-14.2 0-21.3 0-2.3 0-4.7.2-6.7-1.5z" fill="#d2d1cf"/><path d="m90.5 225.7c.7-1.2 2-1 3.1-1 9.2 0 18.5 0 27.7-.1 3 0 4.2.9 4 4-.2 4.6-.1 9.2-.2 13.9-11.5 0-23.1.1-34.6.1 0-.3 0-.6 0-.9.4-.4.9-.7 1.4-.9 8-1.1 16.1-.2 24.1-.5 2.3-.1 5.1 1 6.4-2.2 1.3-3.3.1-8.5-2.4-10.6-7.8-.5-15.7-.1-23.5-.2-2.1-.3-4.3 0-6-1.6z" fill="#929292"/><path d="m251.7 117.2v16.8c.5.4.6.9.1 1.4 0 5.6-.1 11.1-.1 16.7-.3 0-.7 0-1 0-2.4-3.2-1.4-7-1.4-10.5s-1.4-5-5-5c-2.6 0-5.7.9-7.7-1.8 1.7-2.9 4.7-1.9 7.1-2 4.1-.2 6.2-1.7 5.6-6-.2-1.3-.1-2.6 0-4 .1-3-1.4-4.2-4.2-4.1-2.3 0-4.6 0-6.9.1-1.6 0-3.4.3-4.4-1.4-.4-.6-.3-1.1.2-1.5.5-.3 1-.5 1.6-.7 3.6-.4 7.2-.1 10.8-.3 2.9.1 2.7-2.2 2.9-4.1.3-3.7-.6-7.5.9-11.1.4-.5.8-.6 1.4-.4.1 5.6.2 11.1.3 16.7.4.3.4.8-.2 1.2z" fill="#aaa"/><path d="m233.8 116.1v1c-.3-.3-.7-.6-1-.9-2.3-3.3-1.4-7.1-1.3-10.6.1-4.6-2.4-5-6-5-3.5 0-6.2.3-6.1 4.9.1 3.5 1 7.3-1.4 10.6-.4.5-.7.5-1-.1-2.3-3-1.1-6.6-1.4-9.9-.2-2.1.1-4.2-.4-6.3-.1-.9-.1-1.7.4-2.5 1-.9 2.1-.5 3.3-.6 2.6 0 5.2-.1 7.9.1 3.3.2 4.7-1.2 4.7-4.6 0-3.6-.7-7.2.9-10.7.4-.5.9-.6 1.4-.2 0 5.6.1 11.1.1 16.7.4.5.7 1.1.9 1.6.2 5.6 1.6 11.2-1 16.5z" fill="#a5a5a3"/><path d="m233.8 81.3h-.5-.5c-4.3 2.9-9.2.7-13.7 1.8-2.7.9-1.6 3.3-1.8 5.1-.4 3 .9 6.3-1.4 9.1 0 .7.1 1.3.1 2 .3.6.1 1-.5 1.3-.6 0-1-.3-1.3-.9-.3-.5-.4-1-.5-1.6-.4-3.6-.3-7.3-.2-10.9.1-3.2-1.3-4.4-4.4-4.5-3.6-.1-7.3.7-10.8-.9-.5-.4-.6-.9-.4-1.5l.1-.1c3.1-2.3 6.7-.9 10.1-1.3 1.8-.2 4.2.9 5-1.9 1.1-4.5-1.1-9.4 1.8-13.6h1c0 4.3.2 8.6 0 12.9-.1 3 .9 3.9 3.9 4 4.7.2 9.5-1.4 14 1z" fill="#cfcfcf"/><path d="m71.4 188.8h1.1l.6.6c1.4 3.5.7 7.2.7 10.7 0 3.2 1.2 4.3 4.4 4.3 3.6 0 7.2-.7 10.8.7.6.3.8.8.7 1.4l-.3.3c-3.1 2.2-6.7.8-10.1 1.3-1.8.2-4.1-.9-5 1.9-1 4.5 1.1 9.4-1.8 13.7v1c-2.4-4.2-1-8.7-.9-13 0-4-1.3-5.2-5.1-4.9-3.9.3-7.9 0-11.9 0 0-.3 0-.6 0-.9 4.3-3 9.2-.8 13.7-1.9 2.7-.9 1.6-3.2 1.8-5 .4-3.5-.9-7 1.3-10.2z" fill="#c5c5c5"/><path d="m36.4 173c-.3 0-.5-.1-.8-.1 0-.3 0-.7 0-1 5.6-2.2 11.3-.7 17-1 1 4.6.4 9.2.4 14.5-3.2-2.1-2.9-4.5-2.9-6.7-.1-3.1-1.6-4.3-4.6-4.3-3.1 0-6.3.6-9.1-1.4z" fill="#808080"/><path d="m144.2 44.4c-.4 0-.8 0-1.2-.1.1-4.7.1-9.4.2-14.1 0-1.5-.5-3.5 2-3.7-2.1 5.5-.6 11.3-1 16.9.3.2.4.5.3.7s-.2.3-.3.3z" fill="#d7d7d8"/><path d="m251.8 135.3c0-.5-.1-.9-.1-1.4h17.7c-3.6 2.1-7.5.6-11.3 1-2 .3-4.2.3-6.3.4z" fill="#aeaeae"/><path d="m126.2 62.3c-.4 0-.7-.1-1.1-.1.9-5.9-1.2-12 1.1-17.8v1c2.6 4.3.9 9 1.3 13.5.1 1.4-.4 2.5-1.3 3.4z" fill="#d7d7d8"/><path d="m251.7 117.2c0-.4.1-.9.1-1.3 4.4.1 8.8.1 13.2.3 1.5.1 3.3-.8 4.5 1-5.9 0-11.8 0-17.8 0z" fill="#aeaeae"/><path d="m233.8 99.3c0-.4 0-.9.1-1.3 4.4.1 8.8.1 13.2.2 1.5.1 3.3-.7 4.5 1-.3 0-.6 0-1 .1-5.6 2.2-11.2 2.2-16.8 0z" fill="#aeaeae"/><path d="m179 42.4v1c-.3.1-.6.4-.9.4-9-.4-17.9.9-26.9 1-2.1 0-4.3.2-6.1-1.4 4.5-3.6 9.9-2.3 14.7-1.7 6.5.8 12.8.4 19.2.7z" fill="#aaa"/><path d="m145.2 43.4h33.8c-5.9 2.3-12 .4-17.9 1.1-5.3 2.1-10.6 2.1-15.9 0-.3 0-.7 0-1 0 0-.3 0-.7 0-1 .4-.1.7-.1 1-.1z" fill="#b5b5b5"/><path d="m214.9 99.2v.9c1.9 4.4 1.2 9.1.8 13.6-1.1 11.5.5 22.9 1 34.4.4 1.4 1 2.9-.8 3.9-.3 0-.6.1-.9.1-1.2 1-2.6 1.4-4.1 1.3-7.8-.6-15.4 1.2-23.1 1.2-5.7 0-6 .5-6.1 6.3 0 2.1.1 4.3-.3 6.4-.2 1.3-1.1 2.1-2.1 2.8 0 .3-.1.6-.1.9-.5 1.1-1.4 1.7-2.6 1.5-.7 0 .2 0-.5 0-12.3-.6-12.3-.6-12.4 11.5 0 1.5-.3 2.8-1.4 3.9-2.9 2.3-6.4 1.1-9.6 1.3-2.8.2-5.6-.2-8.4.4-.5.2-1.1.3-1.6.4-4.9.8-9.9-.6-14.7 1-2 1.7-1 4-1.2 6-.3 2.7.6 5.6-1.3 8.1-5.4 2.2-11.2.2-16.7 1.4-.9.1-1.8-.1-2.5-.6-.8-5.1-.2-10.2-.1-15.3.1-.5.2-1 .4-1.5 1.7-3.3.8-5-3-4.9-1.8 0-3.6.1-5.4.2-5.9.1-8.6-2.5-8.4-8.3 0-1.2.4-2.3-.9-3.1-1.8-1.1-4.1-.5-5.9-1.5-.4-.3-.6-.6-.6-1.1.2.6-.2-1 .3-.5.1.1.5-.4.5-.4-2.7-1.4-5.9-1.6-7.9-4-2.4.8-.3 4.7-3.6 4.3-2.3-3.5-1.1-7.4-1.2-11.2-.1-3.7-1.4-5-5.2-4.5-3.6.5-7.3.9-10.8-.8-3.5-5.8-2.4-11.8-1-17.9 1.7-1.1 2 .3 2.3 1.4.7 2.6.4 5.2-.4 8.2-.1.2 1.1-.3.4-.3-.3 0-.3-.2-.2-.4.2-.5.6-.8.7-1.3 1.2-5.8 3.9-9.1 10.5-6.7 1.5.6 2.8-.5 3.2-2.3.9-5 0-10.2 1.2-15.2.2-.9.7-1.5 1.4-2 .5-.3 1-.5 1.6-.8 4.3-.5 8.5-.8 12.7.2 2.9.7 3.3-.2 3.1-3-.3-5-1.2-10.2.7-15.1 5-1.6 10.2-.9 15.2-1.8 3-3.7.9-7.9 1.2-11.8-.1-.5-.2-.9-.3-1.4 0-.7.2-1.4.7-1.9h17.9c4.1-1 8.2-.3 12.3-.4 2.4-.1 4.6-.1 6.6-1.6-1.1-5.6.5-11.2.1-16.8.4-.4.9-.7 1.4-1 .5-.2 1.1-.3 1.6-.4 5.2.2 10.7-1.4 15.6 1.8 3.1 1 6.2.5 9.3.5 4.8 0 5.4.7 5.4 5.4v4.9c.1-3.1-.3-6.6.9-9.9.2-.2.4-.4.6-.6.3 0 .7.1 1 .1 2.4 3.2 1.4 7 1.5 10.5 0 3.6 1.4 4.9 5 5 3.5 0 7.3-1 10.5 1.5.3.4.4.8.3 1.3.1 5.1-.9 10.3.8 15.3.4.3.8.5 1.3.7 4.4.7 8.9-.1 13.4.4.6.3 1.2.7 1.9 1.3z" fill="#fcfcf0"/><path d="m197 80.3c-4.4 0-8.8-.1-13.3 0-2.8.1-3.8-.9-3.7-3.7.1-4.4 0-8.8 0-13.3 4.6 0 9.2.1 13.8 0 2.3 0 3.2.9 3.2 3.2-.1 4.6 0 9.2 0 13.8z" fill="#e9e9eb"/><path d="m163.1 63.3c-5.6-1.8-11.3-.7-16.9-1-1.9-4.6-.9-9.4-.7-14.2 5-3.7 10.3-2.6 15.6-.8 1.8 3.5 1 7.2.9 10.8-.1 3.3 1.2 4.2 4.4 4.3 4.2.1 8.6-1.1 12.7.8v.1c-5.4.9-10.7 1.1-16 0z" fill="#e9e9eb"/><path d="m180 60.3c0-3.6.1-7.3-.1-10.9-.1-2.8.7-4.1 3.8-4.2 13.4-.4 13.3-.5 13.2 15.1-5.6 1.8-11.2 1.5-16.9 0z" fill="#afafaf"/><path d="m214.9 63.3v14.9c-4.3 1.9-8.8.8-13.2.7-.7 0-1.3-.3-1.7-.8-1.5-1.9-.1-12.9 2-14.8 4.2.1 8.6 0 12.9 0z" fill="#afafaf"/><path d="m201.9 63.4c-2.8 4.4.1 9.3-1.3 13.8-.3 1 1.2.5 1.9.6 4.1.9 8.2.2 12.3.4-.3 2.5-2.2 2-3.7 2-4.4 0-8.8 0-13.1 0 0-4.4.1-8.8-.1-13.2-.1-3 1.1-4.1 4-3.6z" fill="#acacac"/><path d="m180 60.3h16.9c-.1 1.1-.6 1.9-1.8 1.9-4.4 0-8.9 0-13.3 0-1.2 0-1.6-.8-1.8-1.9z" fill="#a8a8a8"/><path d="m161.1 47.4c-5 .6-10.1-1.2-14.9 1-.2.3-.5.5-.9.4-.5-.3-.6-.9-1-1.3 0-.8.1-1.6.9-2 5.3-.6 10.6-.9 15.9.1z" fill="#ececed"/><path d="m197.9 98.2c-.3 0-.6 0-1 0-.8-5.6-.8-11.3 0-16.9 0-.3 0-.7 0-1h.9c0 .3.1.6.1.9 2.6 4.4.9 9.2 1.3 13.8 0 .9-.2 1.8-.7 2.5-.1.3-.3.5-.6.7z" fill="#e4e4e0"/><path d="m161.1 45.5c-5.3 0-10.6-.1-15.9-.1 0-.3 0-.6 0-.9h15.9z" fill="#d7d7d8"/><path d="m156.2 206.7c3.8.2 5.4 2.1 5 6-.4 3.6-.1 7.3-.1 10.9-11.6 0-23.2 0-34.8 0-1.1-5-.1-10-.6-15-.1-.6-.1-1.2.2-1.7.6-.8 1.4-.9 2.3-.9 5.1.8 10.3.3 15.5.3.6 0 1.1 0 1.7-.1 3.5.3 7.2-.4 10.8.5z" fill="#878787"/><path d="m107.3 189.8c-.5 5.3 1.1 10.7-1 15.9-.8.8-1.8.9-2.8.4-2.2-2.1-.9-4.6-.7-7 .2-2.5.6-5.2-2.8-5.9-3.3-.7-5.7.9-7.5 3.6-1 1.6.1 2.7 1.1 3.9 2.1 2.4 5 3.6 7.8 4.9.2.5.1 1-.2 1.4-1.9 1.3-3.9 1-6 .7-1.6-.4-3.3-.7-4.9-1-.3 0-.6-.1-.8-.2-.1-.3-.1-.5-.2-.8-.5-.6-.8-1.3-.9-2.2-.1-1.5-.3-3-.4-4.5-.5-8.8-.5-8.8-9.5-8.9-1.3 0-2.7 0-4-.2-.8-.2-1.5-.6-2.1-1.2-.3-.3-.6-.7-1-1-2.8-5.3-1.6-10.7-.9-16.2.3-.6.7-1 1.4-1.1.9-.3 1.7-.7 2.6-.8 2.7.1 5.5-.7 7.8 1.3 2.3.4 4.9-.9 7 1 2 2.5 0 5.4.6 8.1 1.6 6.8 1.4 6.9 8.2 7.8 3.1 1.3 6.6-.3 9.2 2z" fill="#e9e9ea"/><path d="m94.4 206.7h7c2.1-1.2 4.4-.2 6.6-.4.6.3.7.8.4 1.4-2 4.5-.5 9.3-1 13.9-4.4 1.9-9 .8-13.6.8-1.3 0-2.1-1-2.2-2.3-.3-3.9-.4-7.9 0-11.8.2-1.4 1.1-2.5 2.8-1.6z" fill="#d5d5d5"/><path d="m72.5 223.7c0-5 0-10 0-15 4.3-1.9 8.8-.8 13.2-.8 1.5 0 2.6 1 2.5 2.5-.1 4.4 1.1 8.9-.8 13.2-5 .1-10 .1-14.9.1z" fill="#898989"/><path d="m94.4 206.7c-3.7 1.6-1.9 4.8-1.9 7.3-.2 8.6-1.1 7.6 7.5 7.7h7.4c1.4 1.8-.1 1.9-1.3 2-4.3.1-8.6 0-12.9 0-2.7 0-2.8-1.6-2.8-3.6 0-4.5 0-8.9 0-13.4 1.3-1.3 2.7-1.3 4 0z" fill="#dcdbd9"/><path d="m87.4 223.7c0-3.8-.1-7.6 0-11.5.1-2.6-.9-3.6-3.5-3.5-3.8.1-7.6 0-11.5 0 .2-2.6 2.2-2 3.6-2 4.4 0 8.8.1 13.2.1 0 .6 0 1.2.1 1.9-1.3 4.9.4 10-1 14.9h-.5z" fill="#808080"/><path d="m108.3 207.7c0-.3 0-.6.1-.9 5.9-1.7 11.9-1.6 17.8-.1v.9c-.3.4-.3 1-.9 1.1-.3 0-.7 0-1 0-.3.5-.7.5-1 0-5-.5-10.1 1.2-15-1z" fill="#bbbbba"/><path d="m90.5 225.7h30.8c-.3 2.3-2.1 2.4-3.7 2.4-8.5.1-17 .7-25.5-.3-.6-.3-1.1-.6-1.6-1-.1-.5-.1-.8 0-1.1z" fill="#7e7e7e"/><path d="m125.2 208.7c.3-.4.6-.7.9-1.1 0 5.3.1 10.6.1 16-2-4.8-.3-9.9-1-14.9z" fill="#929292"/><path d="m90.5 226.6h.9c2.4 5 2.4 9.9 0 14.9-.3 0-.6 0-.9 0 0-4.9 0-9.9 0-14.9z" fill="#8c8c8c"/><path d="m88.4 223.7c.6-5-1.1-10.1 1-14.9-.5 4.9 1.3 10-1 14.9z" fill="#898989"/><path d="m123.3 208.7h1v13.7c-.3 0-.7 0-1 0 0-4.5 0-9.1 0-13.7z" fill="#c6c6c6"/><path d="m215.9 151.9c.1-.7 1.1-1.3 0-2-.8-5.3-.8-10.6 0-15.9 4.5 1.9 9.2 1.2 13.7.7 3.1-.3 3.3.6 3.3 3-.1 3.5-.2 6.9 0 10.4.2 3.2-1.3 3.9-4.1 3.8-4.3-.1-8.6 0-12.9 0z" fill="#e7e7e9"/><path d="m180 167.9c0-3.8.1-7.6 0-11.4-.1-2.4.7-3.7 3.4-3.6 10.5.5 21-1.8 31.6-.9 0 .3 0 .6-.1.9-3.2 2.4-7 1.4-10.5 1.5-3.6 0-5 1.4-5 5 0 3.5 1 7.3-1.5 10.5-.3 0-.6 0-1 0-3.3-1.7-6.8-.5-10.2-.9-2.2-.3-4.6.6-6.7-1.1z" fill="#e9e9ea"/><path d="m236.7 134.1c1.7 1.6 3.8.9 5.7.9 9.7.2 8.2-1.2 8.3 8.6v8.4c-5 0-10 0-14.9 0-1.1-4.7-.2-9.4-.4-13.2-.7 3.7.7 8.5-.5 13.1-2.1-5.8-.5-11.9-.9-17.8.8-.9 1.8-.9 2.7 0z" fill="#878888"/><path d="m236.7 134.1c-1 0-1.9 0-2.9 0 0-5.7-.1-11.3-.1-17 4.4 0 8.9.1 13.3-.1 2.8-.1 4 1 3.7 3.8-.1 1.1 0 2.3 0 3.5 0 9.7 0 9.7-10 9.7-1.3 0-2.6.1-4 .1z" fill="#aeaeae"/><path d="m217.9 116.2c0-4.3.1-8.6-.1-12.9-.1-2.8.7-4.1 3.8-4.2 11.2-.3 11.2-.5 11.1 10.7 0 2.1 0 4.3-.1 6.4-4.8 0-9.8 0-14.7 0z" fill="#aeaeae"/><path d="m218.9 153c4.1 2.3 8.7.1 12.9 2-3.1 0-6.2.1-9.2 0-2.8-.1-3.7 1-3.8 3.7-.1 3.7.9 7.6-.9 11.2-2.6-.2-1.9-2.2-2-3.7 0-4.4 0-8.8 0-13.2z" fill="#858585"/><path d="m215.9 134v15.9c-1.4-1.1-1-2.7-1-4.2 0-15.2 0-30.5 0-45.7.3.1.6.1.9.1.9 5.3.8 10.6 0 15.9.1 6.1.1 12.1.1 18z" fill="#f3f4ec"/><path d="m234.8 151.9c0-5.3 0-10.6 0-15.9h1v16c-.3-.1-.7-.1-1-.1z" fill="#7f7f7f"/><path d="m215.9 116.1c0-5.3 0-10.6 0-15.9.1-.3.1-.7.2-1 1.9 5.5.4 11.3.9 16.9h-.5z" fill="#aeaeae"/><path d="m54.5 135.1c-1.6 6-1.6 11.9 0 17.9 2.4 5.7 2.5 11.3 0 17-.3 0-.6 0-.9-.1-2.5-3.2-1.5-6.9-1.5-10.5s-1.4-4.9-5-5c-3.5 0-7.3 1-10.5-1.5-2.1-5.9-.5-11.9-1-17.9 1-.3 2-.7 2.9-1 4.6-1.2 9.3.1 13.9 0 .4-.8 1.2-1 2-1 .3.3.5.6.5 1 0 .2-.1.4-.1.6s-.1.3-.3.5z" fill="#e9e9ea"/><path d="m16.7 151.9c-4 0-8-.1-11.9.1-2.9.1-4.4-.8-4-3.9.1-.5 0-1 0-1.5-.2-12.6.5-13.1 13.2-11.6 2.2.3 2.5 1.5 3 3.1.6 2 .8 3.9.7 5.9-1.4 2.5.3 5.4-1 7.9z" fill="#b0b0b0"/><path d="m35.6 153v13.2c0 1.5.7 3.5-2 3.7 0-3.8-.1-7.6 0-11.4.1-2.6-.9-3.6-3.5-3.5-3.4.1-6.9 0-10.9 0 1.1-.9 1.7-1.5 2.4-2 4.7-.1 9.4 0 14 0z" fill="#848484"/><path d="m19.5 147.3c-1.5-12.8-2.3-11.6 12-10.9-.2.2-.3.5-.5.5-3.1.1-6.7-.8-9.3.4-3 1.4.1 5.3-1.3 7.9-.2.5-.4.9-.9 2.1z" fill="#d9d9d9"/><path d="m34.7 134.1c0 .3 0 .6-.1 1-5.3-.6-10.7 1-16-1z" fill="#b3b3b3"/><path d="m16.7 151.9c.4-2.6-1-5.5 1-7.9-.4 2.6 1 5.5-1 7.9z" fill="#b3b3b3"/><path d="m126.2 62.3c0-1 .1-2 .1-3 1.3-4.6-.4-9.4.9-13.9 4.1 0 8.2.1 12.2-.1 2.7-.1 3.9.8 3.8 3.7-.2 4.4-.1 8.9-.1 13.3-.7 0-1.3 0-2 0-4.6-.8-9.3-.8-13.9 0-.3 0-.6 0-1 0z" fill="#afafaf"/><path d="m125.5 78.2c-.1.3-.1.7-.2 1-9.5 1-19.1.4-28.7.3-.7-2.8 1.6-2.3 3-2.6 2.1-.4 4.3-.1 6.4-.2 3.3-.2 6.6-.2 9.8 0 4 .2 6.3-1 6-5.5-.1-1.8 0-3.9 2.3-5.3 1.5 4.2-.3 8.4 1.1 12.2.1.2.3.1.3.1z" fill="#a7a7a7"/><path d="m96.4 79.3h28.9c0 .3 0 .6-.1 1-9.9 0-19.8.1-29.6 0-1.7 0-3.7.7-5.1-1 1.9-1.6 3.9-1.7 5.9 0z" fill="#b1b1b1"/><path d="m144.2 79.2c-.3 2.5-2.2 2-3.7 2-5.1 0-10.1 0-15.2 0 0-.3.1-.6.2-.9 5.3 0 10.5-.1 15.8-.1.4-.8.9-1.5 2-1z" fill="#f4f4ef"/><path d="m143.2 79.2c-.7.3-1.3.7-2 1-3.7-2.4-8 0-12.2-1.5 4.4-1.4 8.9.8 12.9-1.5.1 0 .8 1.3 1.3 2z" fill="#d3d3d0"/><path d="m144.2 47.4c.3.3.6.7.9 1 .8 4.6.8 9.3 0 13.9-.3 0-.6 0-.9 0 0-4.9 0-9.9 0-14.9z" fill="#e9e9eb"/><path d="m127.2 45.4c-.5 4.6 1 9.4-.9 13.9 0-4.6 0-9.3 0-13.9z" fill="#b2b2b2"/><path d="m253.1 119.7c2.3 4.3 1.7 7.4 0 10.5 0-3.1 0-6.1 0-10.5z" fill="#818181"/><path d="m183 187.8c-.7 0-1.3 0-2 0-1.3-4.9.3-10-.9-14.9 0-2.2 1.6-2.1 3.1-2.1h28.5c1.5 0 3.1-.1 3.2 2-2.4 1.9-1.5 4.6-1.5 7-.1 3.7-1.1 5.8-5.5 5.6-6.6-.4-13.2-.1-19.8-.1 7.9.1 15.8 0 23.7.8-9.6 1.9-19.3.4-28.8 1.7z" fill="#888"/><path d="m197.9 169.8c0-4.3.2-8.6 0-12.9-.1-3.1 1.1-4.1 4.1-4 4.3.2 8.6 0 12.9 0 0 4.4-.1 8.9 0 13.3.1 2.8-1 3.8-3.7 3.7-4.5-.1-8.9-.1-13.3-.1z" fill="#d5d5d5"/><path d="m177 171.9c.6-.3 1.3-.7 1.9-1 0 4.6 0 9.2.1 13.8.1 2.3-.9 3.2-3.2 3.2-4.6-.1-9.2 0-13.8-.1 0-1.3 0-2.6 0-4 1.9-1.7 1-4 1.4-6 .7-4.8 1.9-5.9 6.7-6 2.3.1 4.6.1 6.9.1z" fill="#e8e9ec"/><path d="m179 204.7c-5.5 2.4-11.3.6-16.9 1-1-4.9-.4-9.8-.3-14.6 2-.8 1.7.8 1.7 1.8.1 2.7 0 5.3 0 8 .5 0 .1-.2.1-.5.1-11.9-2.1-10.5 11.2-10.3 3.3 2.2 3.9 5.4 3.7 9.1 0 1.7-.5 3.7.5 5.5z" fill="#888"/><path d="m159.1 191.8c-.3 3.7 1.5 8.3-.8 11-2.2 2.6-6.8.6-10.3 1-1.3.2-2.5.8-3.8 0-2.4-4-1.6-8.2-.6-12.4 5.2-1.1 10.4-2 15.5.4z" fill="#c0c0c0"/><path d="m183 187.8c3-1.9 6.4-.8 9.6-.9 5.8-.2 11.6-.1 17.3-.1.3 0 .6-.3 2.3-1.1-10.4 0-19.5 0-29.8 0 3.1-2.8 5.1-.8 6.9-.8 6.4-.1 12.9-.1 19.3 0 4.2.1 2.8-3 3.3-5.2.6-2.4-2.3-6.5 3-6.8-.2 4.7 2 10.8-.9 13.9-2.9 3.2-9 .9-13.7 1.1-5.7.1-11.5-.1-17.3-.1z" fill="#888"/><path d="m144.2 190.8v12.9c0 .7 0 1.4.1 2.1.3.2.4.5.2.6-.1.1-.3.2-.4.2h.1c-5.3 1-10.6.7-15.9.1-.7 0-1.4 0-2-.1-5.9 0-11.9 0-17.8.1-2.3 0-4.7 0-7.1-.1 0-.3 0-.7 0-1 .7-.5 1.3-.6 2 0h3 2c5.4-1.1 10.9-.2 16.4-.5 4-1.5 8.1-.6 12.1-.9 1.7-.1 3.8.6 4.5-1.8 1.1-4.5-1-9.4 1.8-13.7.3-.3.7-.4 1.1-.2.3.3.4.7.5 1.1-.1.6-.3.9-.6 1.2z" fill="#dcdbd9"/><path d="m180 167.9h13.1c1.5 0 3.4-.5 3.8 1.9-6 .1-11.9.1-17.9.2.4-.7.7-1.4 1-2.1z" fill="#edeeee"/><path d="m162.2 190.8v14.9c-1.9-4.5-.4-9.3-1-13.9-.6-.5-.8-1.1-.8-1.8.1-.5.2-.9.5-1.3.4-.3.8-.3 1.2 0 5.6.8 11.4-1.1 17 1.1-3.6 1.1-7.4.2-11 .4-2.1.2-4 .1-5.9.6z" fill="#909090"/><path d="m161.1 189.8v2c-.7 0-1.4 0-2 0-4 .1-8.1-.1-12.1.3-1.5.1-2-.8-2.9-1.3 0-.3 0-.7 0-1 5.7-1.6 11.4-1.6 17 0z" fill="#bdbdb9"/><path d="m162.2 190.8c5.5-2.2 11.3-.4 16.9-1 .1.3.1.7 0 1-1 .8-2 .9-3 0-3.7.3-8.2-1.4-11 .8-2.7 2.2-.1 6.8-1.5 10.4-1.4-3.8.7-7.8-1.4-11.2z" fill="#808080"/><path d="m176 190.8h3v13.9c-2.1-3.4-.2-7.1-1.2-10.7-1.5-.5-.3 3.1-1.9 1.8-1.7-1.4-.6-3.3.1-5z" fill="#888"/><path d="m162 188.7c-.3.1-.5.2-.8.3-5.7.5-11.3.7-17-.1-.4 0-.7 0-1.1 0 6.2-2.2 12.6-.4 18.9-1 .1.2.1.5 0 .8z" fill="#dedee0"/><path d="m180.1 172.9c1.9 4.9.4 9.9.9 14.9-2.1-4.8-.5-9.9-.9-14.9z" fill="#888"/><path d="m144.1 206.7c0-.3.1-.6.2-.8 4 .4 8.1-.9 11.9.9-4.1-.1-8.1-.1-12.1-.1z" fill="#909090"/><path d="m18.5 132c0-3.8.2-7.5.1-11.3-.1-2.8 1-3.8 3.7-3.7 3.4.2 6.8.1 10.3.1-3 2.3-6.7-.1-11 1.9h8.8v.7c-2.5.3-5.2-.1-7.3 1-2.7 1.3-1.6 4.5-1.4 6.8.6 7.4 7 1.2 9.9 4.5-4.4 0-8.8 0-13.1 0z" fill="#b0b0b0"/><path d="m34.6 117.2c1.6 5.6 1.6 11.3 0 16.9 0-5.7 0-11.3 0-16.9z" fill="#b0b0b0"/><path d="m125.3 78.3c-2.3-3.4 0-7.4-1.4-10.9-.9.8-.5 1.8-.6 2.8-.2 8.2-.2 8.2-8.6 8.2-2.8 0-5.6 0-8.4 0-3.5-1-7-.5-10.5-.2-1.5.1-3.2 1-4.6-.5-1.3-5 .1-9.7 2.1-14.2 9.2 0 18.4.1 27.6-.1 3.1-.1 4.5.8 4.3 4.2-.1 3.4.1 7.1.1 10.7z" fill="#afafaf"/><path d="m107.3 98.2c-5.6-.9-11.3 1.7-16.9 0 0-.7 0-1.3 0-2 1.8-3 .8-6.4.9-9.6.1-3.1 1.4-4.6 4.4-4.3 3.8.3 7.8-1 11.5 1 .9 4.9.9 9.9.1 14.9z" fill="#e9e8ea"/><path d="m72.5 96.2c0-5 0-10 0-14.9h14.9c1.9 4.3.8 8.8.8 13.2 0 1.5-1 2.5-2.5 2.5-4.4 0-8.9 1.1-13.2-.8z" fill="#b0b0b0"/><path d="m107.3 83.3c-.8 0-1.6 0-2.5 0-3.8.1-8.2-1-11.1.6-3.3 1.8-.8 6.6-1.4 10-.2 1.3-.6 2.2-2 2.3.2-4.7-2-10.8.8-13.8 3.1-3.3 9.3-.7 14.1-1.1.6-.1 1.3 0 2 0 .1.6.1 1.3.1 2z" fill="#ecebed"/><path d="m72.5 96.2c3.8 0 7.6-.1 11.4 0 2.6.1 3.6-.9 3.5-3.5-.1-3.8 0-7.6 0-11.4 2.2.8 2 2.8 2 4.5 0 4.1 0 8.2-.1 12.3-.6 0-1.3 0-1.9.1-4.9-1.4-10 .4-14.9-1 0-.3 0-.7 0-1z" fill="#a9a8a9"/><path d="m90.4 98.2c0 5.1-.1 10.2 0 15.2.1 2.8-1 3.8-3.7 3.7-4.7-.1-9.5-.1-14.3-.1-.2-.2-.3-.4-.2-.6s.2-.3.2-.3c5-2.5 9.9-2.2 14.9 0 1.3 0 2-.7 2-2-.8-5-.8-10 0-14.9 0-.3.1-.6.1-.9.4-.1.7-.1 1-.1z" fill="#f3f3ed"/><path d="m93.4 63.4c.9 1.4 1 2.9 0 4.1-2.4 3-1.9 6.4-2 9.8.3.9 0 1.3-.9 1 0-3.9 0-7.8-.1-11.7-.1-2.2.6-3.5 3-3.2z" fill="#b1b1b1"/><path d="m90.5 78.3c.3-.3.6-.7.9-1 4.9 1 10.1-1.5 14.9 1-3.3.5-6.8-1-10 1-2 0-3.9 0-5.9 0 0-.4 0-.7.1-1z" fill="#aaa"/><path d="m127.3 62.3c4.6-1.6 9.3-1.6 13.9 0-4.7 0-9.3 0-13.9 0z" fill="#afafaf"/><path d="m54.5 169.9c0-5.7 0-11.3 0-17 4.2-.3 8.5.6 12.7-.7 2.9-.9 4.1.8 4.3 3.7.3 4.7-1.1 9.4.9 14 .2.2.3.4.3.7-.1.2-.2.3-.2.3-.3 0-.7 0-1 0-5.6 2.4-11.3 2-16.9-.1 0-.3 0-.6-.1-.9z" fill="#e9e9eb"/><path d="m54.6 170.8c5.6 0 11.3 0 16.9.1v16.9c-4.6 0-9.2 0-13.8 0-2.3 0-3.2-.9-3.2-3.2.1-4.6.1-9.2.1-13.8z" fill="#d5d5d5"/><path d="m36.7 152.9c4.5 0 9 .1 13.4 0 2.6-.1 3.6.9 3.5 3.5-.1 4.5 0 9 0 13.4-4.4 0-8.9-.1-13.3.1-2.8.1-3.8-.9-3.7-3.7.2-4.4 0-8.8.1-13.3z" fill="#d5d5d5"/><path d="m36.4 173c3.6 0 7.2.1 10.8-.2 3.5-.3 4.7 1.1 4.4 4.5-.2 2.1 0 4.2 1 6.3 0-4.2 0-8.5 0-12.7 2.2 5 2.5 11.3.4 15.2-2.5 4.5-9.2 1.2-14.1 1.7-2.8.3-2.3-2.2-2.3-3.9-.2-3.6-.2-7.3-.2-10.9z" fill="#888"/><path d="m69.5 205.8c-5 0-10 .1-15 .1 0-5 0-10 0-15 4.4-1.9 9-.8 13.5-.8 1.2 0 2.2 1 2.2 2.2.1 4.5 1.2 9-.7 13.5z" fill="#888"/><path d="m69.5 205.8c-.3-4.7 2-10.8-.9-13.8-3.1-3.3-9.3-.7-14.1-1.2.2-2.6 2.2-2 3.7-2h13.3c0 4.4.1 8.8.1 13.2-.1 1.6.4 3.6-2.1 3.8z" fill="#858585"/><path d="m36.6 99.2c9.9 0 19.8.1 29.7-.1 3.9-.1 5.4 1.3 5.2 5.2-.2 3.6 0 7.3 0 10.9-1.2 2.3-3.4 2.2-5.5 2.3-4.4.2-8.7-.4-13.1.5-1.2.2-2.4.1-3.3-.9-2.7-1.9-5.8-.9-8.7-.8-3.6.1-4.6-1.2-4.4-4.6.3-4.2.1-8.3.1-12.5z" fill="#afafaf"/><path d="m54.6 134.1c0-.3 0-.7 0-1s0-.6 0-1c-1.8-4.4-2.1-8.8-.2-13.2 5.7-1.7 11.5-2.1 17.2.2-.2 5.3.8 10.7-1 15.9-.7.7-1.5.8-2.4.7-4.6-1.1-9.4.7-13.6-1.6z" fill="#e9e9eb"/><path d="m49.6 117.1h2.9c.6-.4 1.1-.2 1.5.4-.1 4.8.5 9.7-.4 14.5-1.1-.3-.7-3.7-3.3-1.3-3.9 3.5-8.6-.1-12.9.7-.1 0-.6-1-.7-1.6-2-10.6-.4-12.6 10-12.6 1-.1 1.9-.1 2.9-.1z" fill="#d5d5d5"/><path d="m52.5 134c-1.6 1.8-3.3.4-5 .2-3-.3-6-.2-9-.2 4.7-2.1 9.4-.6 14 0z" fill="#d5d5d5"/><path d="m53.6 132.1c0-5 0-9.9.1-14.9.4-.4.8-.4 1.2 0 .3.7.3 1.4-.3 2v13c-.4-.1-.7-.1-1-.1z" fill="#e9e9ea"/><path d="m87.4 116.1c-5 0-9.9 0-14.9 0 0-4.3.1-8.6-.1-12.9-.1-2.9.7-4.2 3.8-4.1 13.7.4 10.7-1.9 11.2 10.7.1 2.1-1 4.2 0 6.3z" fill="#d4d4d4"/><path d="m54.6 117.2c-.3 0-.6 0-.9 0-.4 0-.7 0-1.1-.1 2.8-1.9 6-.6 9-.9 3.3-.4 6.8.7 10-1 .3.3.7.6 1 1v1c-6.1 1.6-12.1 1.4-18 0z" fill="#d5d5d5"/><path d="m89.4 99.2v14.9c-1.6-5-1.6-9.9 0-14.9z" fill="#d4d4d4"/><path d="m72.5 97.2c5 .6 10.1-1.2 14.9 1-5-.5-10.1 1.3-14.9-1z" fill="#b0b0b0"/><path d="m91.4 241.6c0-5 0-9.9 0-14.9h25.2c1.6 0 3.3.5 4.6-1 2.3.2 2.8 1.6 3 3.7 1 12.2 1.1 12.2-11.1 12.2-7.2 0-14.4 0-21.7 0z" fill="#878787"/><path d="m233.8 99.3h16.8c0 4.4-.1 8.8.2 13.1.2 3.1-1.2 4.1-4 3.7-.3-.3-.5-.6-.8-.9-2.9-.5-5.8.3-8.7-.4-3.7-2.7-1.2-6.6-2-9.6-.6 3.4.9 7.2-.5 10.9-.3 0-.7 0-1 0 0-5.6 0-11.2 0-16.8z" fill="#888"/><path d="m246.8 115.1v1c-4 0-8 0-12 0 0-4.4 0-8.7 0-13.1 2.3 3.5-1.2 8.1 3 11.1 2.9 1.4 6.1-.3 9 1z" fill="#838383"/><path d="m217.9 81.3h14.9c0 4.6-.1 9.2 0 13.7 0 2.3-.9 3.3-3.2 3.2-3.9-.1-7.9 0-11.8 0-1.4-5.7-1.6-11.3.1-16.9z" fill="#888"/><path d="m217.9 81.3v16.9c-.7-.3-1.3-.7-2-1 0-4.1 0-8.2.1-12.2 0-1.5-.7-3.5 1.9-3.7z" fill="#7c7c7c"/><path d="m198 96.2c0-5 0-10 0-14.9 4.5 0 9 .1 13.4 0 2.6-.1 3.6.9 3.5 3.5-.1 4.8 0 9.6 0 14.4-.7 0-1.3 0-2 0-4.3-1.2-8.7.2-13-.8-.1-1.9 1.3-1.6 2.4-1.6 2.9 0 5.8-.2 8.6 0-2.8-.1-5.7-.2-8.5-.1-2.1.1-3-.7-2.9-2.8.1-2.7-.1-5.5.1-8.3-.1 2.7 0 5.4-.1 8.1-.1 1 .4 2.4-1.5 2.5z" fill="#d5d5d5"/><path d="m89.4 203.8v2c-4.4 0-8.9-.1-13.3 0-2.8.1-3.8-1-3.7-3.7.2-4.4.1-8.8.1-13.3h1.9c2.2 2.7 1.3 6 1.4 9 .1 3.1 1.3 4.5 4.4 4.5 3.2.1 6.4-.3 9.2 1.5z" fill="#dadada"/><path d="m143.2 188.8v15c-4.9 1.9-10 .7-15.1.8-1.6 0-2.4-1-2.3-2.6.2-4.4-.6-8.8.5-13.2z" fill="#e8e9eb"/><path d="m98.4 188.8c-1.3 0-2.6-.1-3.9 0-3.9.4-5.3-1.4-5.1-5.2.2-3.9.1-7.9.1-11.8 2.5.4 1.9 2.1 1.6 3.8-.9 4.8 1.7 7.7 6.6 7.5 2.6-.1 5.2-.2 7.9-.3 1.5 0 3.1.1 3.6 1.9.6 1.8 0 3.2-1.7 4.1-3.2.8-6.1.8-9.1 0z" fill="#fbfbf3"/><path d="m68.5 135h2c.8.7.9 1.3-.1 1.9-2.5 1.6-5.5 1.2-7.5.3-3.9-1.7-4.7.2-4.2 3.1.6 3.6-3.7 3.8-4.1 6.6 0-4 0-7.9 0-11.9 4.6-.8 9.2-.7 13.9 0z" fill="#fcfdf4"/><path d="m177 171.9c-2.1 1.9-4.7 1-7 .9-3.9-.2-5.3 1.6-5.4 5.1 0 2.1-.1 4.3-.7 6.2-.6 1.8-1.2-.4-1.9-.3 0-.8-.1-1.7 0-2.5.4-3.4-1.7-8.5 1.1-9.7 4.1-1.7 9.4-1.7 13.9.3z" fill="#e9e9e6"/><path d="m126.2 188.8c.4 4.8-2.1 11 1.2 14.1 3 2.8 9.1.6 13.8.8h2c-.3 2.5-2.2 1.9-3.8 1.9-4.7.1-9.4 0-14.2 0-.3-.2-.5-.4-.3-.7.1-.2.2-.3.3-.3.6-5.1-1.1-10.6 1-15.8z" fill="#f0f1f0"/><path d="m72.5 170.9c0-.3 0-.7 0-1 0-.8-.1-1.7 0-2.5.2-1.4-.7-3.3.9-4.1 1.8-.9 2.5.9 3.3 2.1 1.4 2.1 4 1.2 5.8 2.5 1.1.8 2.2 1.4-.1 2-2.5 1.3-5.4-.4-8 1-.6 0-1.2 0-1.9 0z" fill="#fcfcf4"/><path d="m54.6 117.2c6 0 11.9-.1 17.9-.1-.3.7-.6 1.3-1 2-5.6 0-11.3 0-16.9 0-.1-.6 0-1.3 0-1.9z" fill="#ededec"/><path d="m163.1 63.3h15.9c-.2 3.9-1.6 7.7-2 11.7 0-1.9-.2-3.8 0-5.7.5-4.4-1.9-5.6-5.6-5-2.9.5-5.7 1-8.3-1z" fill="#fefef5"/><path d="m196.9 81.3v16.9c-1.4-5.6-1.8-11.3 0-16.9z" fill="#fdfef4"/><path d="m125.3 204.8v1c-5.6 0-11.3 0-16.9 0 5.5-2.2 11.2-.5 16.9-1z" fill="#fefdf9"/><path d="m200 98.2c4.3.6 8.8-1.1 12.9 1-5-.5-10.1 1.2-15-.9 0 0 .1-.1.1-.1.7-.6 1.3-.6 2 0z" fill="#e4e4e0"/><path d="m107.3 98.2c0-5 0-10 0-14.9 1.6 4.9 1.7 9.9 0 14.9z" fill="#f4f4ef"/><path d="m145.2 62.3c0-4.6 0-9.3 0-13.9h1v13.9c-.4 0-.7 0-1 0z" fill="#eeeeef"/><path d="m98.4 188.8h9v1c-3-.4-6.2 1-9-1z" fill="#e9e9ea"/><path d="m74.5 170.9c2.5-2 5.3-.5 8-1v1c-2.7 0-5.4 0-8 0z" fill="#e9e9eb"/><path d="m184.3 65.5h6.5v.5c-2.2 0-4.4 0-6.6 0 0-.2 0-.3.1-.5z" fill="#e4e4e4"/><path d="m200 98.2c-.6 0-1.3 0-1.9 0 0-.7 0-1.3 0-1.9 2.3-3.7 0-8.1 1.4-12.3 1.4 4.1-1.4 9.2 1.6 11.5 2.5 1.9 7.1.8 11.4 1.1-4.5 1.7-8.8-.8-12.5 1.6z" fill="#d2d2d1"/><path d="m128.3 206.8c5.3 0 10.6-.1 15.9-.1-5.3 1.8-10.6 1.6-15.9.1z" fill="#909090"/><path d="m89.4 203.8c-4.1 0-8.1 0-12.2 0-2.2 0-2.8-1.2-2.8-3.1 0-3.9 0-7.9 0-11.8h11.4c1.7 0 3.5-.1 3.5 2.4.1 4.1.1 8.3.1 12.5z" fill="#d4d4d4"/><path d="m103.3 205.8c-.7 0-1.3 0-2 0-5.3 1.4-7.4-3.2-10.4-5.8-2.2-1.9 1.5-7.3 5.5-8.1 6.1-1.3 8.9 1.3 7.7 7.6-.3 2-.9 4.1-.8 6.3z" fill="#e9e9ea"/><path d="m235.1 131c0-3.5 0-7 0-10.6h.4v10.6c-.2 0-.3 0-.4 0z" fill="#aaa"/><path d="m68.5 135c-4.6 0-9.3 0-13.9 0 0-.3 0-.6 0-1 4.6.5 9.4-1 13.9 1z" fill="#fcfcf0"/><path d="m184.2 174.9c-.3-.4-.7-.8-.7-1 .1-.3.6-.7.9-.7.7-.1 1.2.4 1 1.1 0 .2-.6.3-1.2.6z" fill="#888"/><path d="m144.2 188.9c5.7 0 11.3.1 17 .1 0 .3-.1.6-.1.9-5.6 0-11.3 0-16.9 0 0-.4 0-.7 0-1z" fill="#c0c0c0"/><path d="m246.8 115.1c-3-.4-6.2 1-9-1 3 .1 5.9.1 8.9.2.1 0 .2.2.2.4 0 .1-.1.3-.1.4z" fill="#828282"/></svg>